<svg width="512" height="512" version="1.1" xmlns="http://www.w3.org/2000/svg" desc="Created with imagetracer.js version 1.2.6" ><path fill="rgb(242,121,59)" stroke="rgb(242,121,59)" stroke-width="1" opacity="0.996078431372549" d="M 335 73 Q 337.7 71.9 337 74.5 Q 350.4 104.6 369 129.5 L 367 130 L 300.5 274 Q 294.3 264.3 291 251.5 L 289 242.5 L 289 235 L 283.5 236 L 271.5 243 L 248 264.5 L 243.5 271 L 244 269.5 L 335 73 Z " /><path fill="rgb(242,121,59)" stroke="rgb(242,121,59)" stroke-width="1" opacity="0.996078431372549" d="M 312.5 292 L 313.5 294 L 312.5 292 Z " /><path fill="rgb(242,121,59)" stroke="rgb(242,121,59)" stroke-width="1" opacity="0.996078431372549" d="M 229.5 300 L 230 302.5 L 228 306.5 L 225 322.5 L 224 351 Q 215.6 348.9 210 342.5 L 229.5 300 Z " /><path fill="rgb(242,121,59)" stroke="rgb(242,121,59)" stroke-width="1" opacity="0.996078431372549" d="M 318.5 300 L 319.5 302 L 318.5 300 Z " /><path fill="rgb(242,121,59)" stroke="rgb(242,121,59)" stroke-width="1" opacity="0.996078431372549" d="M 321.5 304 L 322.5 306 L 321.5 304 Z " /><path fill="rgb(242,121,59)" stroke="rgb(242,121,59)" stroke-width="1" opacity="0.996078431372549" d="M 447.5 308 L 448 311.5 L 447 311.5 L 447.5 308 Z " /><path fill="rgb(242,121,59)" stroke="rgb(242,121,59)" stroke-width="1" opacity="0.996078431372549" d="M 160.5 381 L 161 384.5 L 160 384.5 L 160.5 381 Z " /><path fill="rgb(242,121,59)" stroke="rgb(242,121,59)" stroke-width="1" opacity="0.996078431372549" d="M 92.5 421 L 93.5 423 L 92.5 421 Z " /><path fill="rgb(242,121,59)" stroke="rgb(242,121,59)" stroke-width="1" opacity="0.996078431372549" d="M 172 422 L 174 422.5 L 173.5 424 Q 175.8 423.3 175 425.5 L 192.5 446 L 207.5 457 L 213 459 L 213 462.5 L 196.5 497 Q 169.4 489.1 149 474.5 L 150 469.5 L 172 422 Z " /><path fill="rgb(242,121,59)" stroke="rgb(242,121,59)" stroke-width="1" opacity="0.996078431372549" d="M 94.5 424 L 95.5 426 L 94.5 424 Z " /><path fill="rgb(242,121,59)" stroke="rgb(242,121,59)" stroke-width="1" opacity="0.996078431372549" d="M 102.5 435 L 103.5 437 L 102.5 435 Z " /><path fill="rgb(242,121,59)" stroke="rgb(242,121,59)" stroke-width="1" opacity="0.996078431372549" d="M 105.5 438 L 108 441.5 L 105 439.5 L 105.5 438 Z " /><path fill="rgb(242,121,59)" stroke="rgb(242,121,59)" stroke-width="1" opacity="0.996078431372549" d="M 112.5 447 L 116.5 451 L 117.5 450 L 145 471.5 L 142.5 470 L 141 471.5 L 140.5 473 Q 138.8 469.9 137 471.5 Q 138.1 468.2 135.5 469 L 131 467 L 128.5 463 L 123 459.5 L 121.5 457 L 118 454.5 L 112.5 447 Z " /><path fill="rgb(242,121,59)" stroke="rgb(242,121,59)" stroke-width="1" opacity="0.996078431372549" d="M 146.5 472 L 147.5 474 L 146.5 472 Z " /><path fill="rgb(0,0,0)" stroke="rgb(0,0,0)" stroke-width="1" opacity="0" d="M 0 0 L 318 0.5 Q 279.4 19.4 253 50.5 Q 239.5 66 229 84.5 Q 214.2 110.7 205 142.5 L 199 167.5 L 199 172.5 L 196 184.5 L 195 198.5 L 194 199.5 L 193 222.5 L 192 223.5 L 192 254 Q 164.3 244.5 147 223.5 Q 137.3 212.2 132 196.5 L 129 183.5 L 129 171.5 L 127.5 170 L 95 206.5 Q 83 222.5 75 242.5 L 68 266.5 L 66 283.5 L 65 284.5 L 65 293.5 L 64 294.5 L 64 339.5 L 70 371.5 Q 76.3 393.3 86 411.5 Q 102.4 441.1 126.5 463 Q 150.1 484.4 181.5 498 L 212.5 508 L 236 511.5 L 0 512 L 0 0 Z " /><path fill="rgb(0,0,0)" stroke="rgb(0,0,0)" stroke-width="1" opacity="0" d="M 321 0 L 512 0 L 512 512 L 276 511.5 L 289.5 510 L 307.5 506 Q 329.3 499.8 347.5 490 Q 377.1 473.6 399 449.5 Q 428.3 418.3 442 371.5 L 448 339.5 L 448 297.5 L 447 296.5 L 447 287.5 L 443 264.5 Q 437.8 241.2 429 221.5 L 407 179.5 L 360 109.5 L 341 75.5 L 327 38.5 L 322 15.5 L 321 0 Z " /><path fill="rgb(245,145,94)" stroke="rgb(245,145,94)" stroke-width="1" opacity="0.8588235294117647" d="M 318.5 0 L 321 0.5 L 321 8.5 L 327 38.5 L 340 73.5 L 355 101.5 L 402 171.5 L 419 200.5 L 433 231.5 L 440 252.5 L 442 263.5 L 441 263.5 L 438 249.5 L 427 219.5 Q 408.9 180.6 384.5 148 L 383.5 150 Q 356.7 114.8 337 72.5 L 325 37.5 L 319.5 5 Q 281 24.5 254 55.5 Q 201 115.5 193.5 221 L 193 209.5 L 194 208.5 L 194 200.5 L 195 199.5 L 197 178.5 L 201 158.5 Q 207.5 130.5 218 106.5 Q 238.6 60.1 274.5 29 Q 293.9 11.9 318.5 0 Z " /><path fill="rgb(245,145,94)" stroke="rgb(245,145,94)" stroke-width="1" opacity="0.8588235294117647" d="M 127.5 170 L 129 171.5 L 130 188.5 L 136 206.5 Q 144.9 224.1 159.5 236 Q 173.3 248 192 254 L 191.5 260 Q 163.5 249.5 146 228.5 Q 137.2 217.8 132 203.5 Q 128.1 191.9 127.5 177 Q 96.8 203.8 78 242.5 Q 71.5 257.5 68 275.5 L 68 280.5 L 66 287.5 L 66 295.5 L 65 296.5 L 64.5 316 L 64 294.5 L 65 293.5 L 65 284.5 L 66 283.5 L 67 271.5 L 71 254.5 Q 75.9 237.4 84 223.5 Q 102.3 193.3 127.5 170 Z " /><path fill="rgb(245,145,94)" stroke="rgb(245,145,94)" stroke-width="1" opacity="0.8588235294117647" d="M 192.5 223 L 193 242.5 L 192 242.5 L 192.5 223 Z " /><path fill="rgb(245,145,94)" stroke="rgb(245,145,94)" stroke-width="1" opacity="0.8588235294117647" d="M 442.5 265 L 445 274.5 L 445 279.5 L 444 279.5 L 442.5 265 Z " /><path fill="rgb(245,145,94)" stroke="rgb(245,145,94)" stroke-width="1" opacity="0.8588235294117647" d="M 445.5 281 L 447 294.5 L 446 294.5 L 445.5 281 Z " /><path fill="rgb(245,145,94)" stroke="rgb(245,145,94)" stroke-width="1" opacity="0.8588235294117647" d="M 447.5 297 L 448 304.5 L 447 304.5 L 447.5 297 Z " /><path fill="rgb(245,145,94)" stroke="rgb(245,145,94)" stroke-width="1" opacity="0.8588235294117647" d="M 64.5 326 L 65 331.5 L 64 331.5 L 64.5 326 Z " /><path fill="rgb(245,145,94)" stroke="rgb(245,145,94)" stroke-width="1" opacity="0.8588235294117647" d="M 65.5 341 L 66 344.5 L 65 344.5 L 65.5 341 Z " /><path fill="rgb(243,126,65)" stroke="rgb(243,126,65)" stroke-width="1" opacity="0.996078431372549" d="M 319.5 6 L 321 20.5 L 323 27.5 L 193.5 305 L 191.5 299 L 184 305 L 173 319.5 L 166 332.5 L 160 356.5 L 160 377.5 L 123.5 454 Q 107.6 439.4 95 421.5 L 98 420.5 L 175 254 L 191.5 261 L 193 253.5 L 193 251.5 L 193 228.5 L 194 227.5 L 195 211.5 L 274 41.5 L 280.5 31 Q 297.9 16.4 319.5 6 Z " /><path fill="rgb(243,126,65)" stroke="rgb(243,126,65)" stroke-width="1" opacity="0.996078431372549" d="M 263.5 249 L 261.5 252 L 263.5 249 Z " /><path fill="rgb(243,126,65)" stroke="rgb(243,126,65)" stroke-width="1" opacity="0.996078431372549" d="M 250.5 262 L 248.5 265 L 250.5 262 Z " /><path fill="rgb(243,126,65)" stroke="rgb(243,126,65)" stroke-width="1" opacity="0.996078431372549" d="M 323.5 307 L 324.5 309 L 323.5 307 Z " /><path fill="rgb(243,126,65)" stroke="rgb(243,126,65)" stroke-width="1" opacity="0.996078431372549" d="M 224.5 331 L 225 333.5 L 224 333.5 L 224.5 331 Z " /><path fill="rgb(243,126,65)" stroke="rgb(243,126,65)" stroke-width="1" opacity="0.996078431372549" d="M 213.5 345 L 214.5 347 L 213.5 345 Z " /><path fill="rgb(241,116,52)" stroke="rgb(241,116,52)" stroke-width="1" opacity="0.996078431372549" d="M 367 130 L 370 131.5 L 400 175.5 L 411 193.5 L 412 197.5 L 346 339 Q 343.3 340.1 344 337.5 L 334 320.5 L 303 278.5 L 301 272.5 L 367 130 Z " /><path fill="rgb(241,116,52)" stroke="rgb(241,116,52)" stroke-width="1" opacity="0.996078431372549" d="M 447.5 312 L 448 318.5 L 447 318.5 L 447.5 312 Z " /><path fill="rgb(241,116,52)" stroke="rgb(241,116,52)" stroke-width="1" opacity="0.996078431372549" d="M 184.5 437 L 192.5 446 L 184.5 437 Z " /><path fill="rgb(241,116,52)" stroke="rgb(241,116,52)" stroke-width="1" opacity="0.996078431372549" d="M 196.5 448 L 198.5 451 L 196.5 448 Z " /><path fill="rgb(241,116,52)" stroke="rgb(241,116,52)" stroke-width="1" opacity="0.996078431372549" d="M 114.5 450 L 116.5 453 L 114.5 450 Z " /><path fill="rgb(241,116,52)" stroke="rgb(241,116,52)" stroke-width="1" opacity="0.996078431372549" d="M 200.5 451 L 201.5 453 L 200.5 451 Z " /><path fill="rgb(241,116,52)" stroke="rgb(241,116,52)" stroke-width="1" opacity="0.996078431372549" d="M 203.5 453 L 204.5 455 L 203.5 453 Z " /><path fill="rgb(241,116,52)" stroke="rgb(241,116,52)" stroke-width="1" opacity="0.996078431372549" d="M 206.5 455 L 207.5 457 L 206.5 455 Z " /><path fill="rgb(241,116,52)" stroke="rgb(241,116,52)" stroke-width="1" opacity="0.996078431372549" d="M 213.5 459 L 229.5 466 L 243.5 469 L 254.5 469 L 256.5 470 L 257.5 469 L 270.5 469 L 280.5 467 L 287.5 464 L 286 466.5 L 268 506 L 237.5 506 L 227.5 504 L 225.5 504 L 215.5 503 L 203 500 L 201.5 504 L 199.5 503 L 198 503.5 Q 198.8 500.9 195.5 502 L 193.5 501 L 192 501.5 Q 192.8 499.3 190.5 500 L 189 500.5 L 188.5 499 L 186.5 500 L 186.5 498 L 184.5 499 L 181 498 L 181 496 Q 175.7 497.3 176.5 494 L 173.5 494 L 148.5 480 L 138 471.5 L 141 472.5 L 142.5 470 Q 165.4 487.6 196.5 497 L 213 462.5 L 213.5 459 Z " /><path fill="rgb(241,116,52)" stroke="rgb(241,116,52)" stroke-width="1" opacity="0.996078431372549" d="M 128.5 463 L 130.5 466 L 128.5 463 Z " /><path fill="rgb(241,116,52)" stroke="rgb(241,116,52)" stroke-width="1" opacity="0.996078431372549" d="M 132.5 467 L 137 469 L 136.5 471 L 132.5 467 Z " /><path fill="rgb(242,124,63)" stroke="rgb(242,124,63)" stroke-width="1" opacity="0.996078431372549" d="M 322.5 28 Q 326.9 53.1 337 72.5 L 335 73 L 245 267.5 L 245.5 269 L 244 268.5 L 209.5 342 Q 194.8 330.2 193 305.5 L 322.5 28 Z " /><path fill="rgb(242,124,63)" stroke="rgb(242,124,63)" stroke-width="1" opacity="0.996078431372549" d="M 159.5 378 Q 161.3 404.7 173 421.5 L 148.5 474 L 117.5 450 L 116.5 451 L 112 446.5 L 111.5 445 Q 110.2 447.3 109 444.5 L 106 438 Q 103.3 439.1 104 436.5 L 101 435 L 89 416.5 L 78 394.5 L 76 387.5 L 77 387.5 Q 93.4 427.6 123.5 454 L 159.5 378 Z " /><path fill="rgb(251,187,38)" stroke="rgb(251,187,38)" stroke-width="1" opacity="1" d="M 294.5 269 L 308 293.5 L 340 336.5 Q 351.2 353.3 352 380.5 L 348 401.5 L 341 418.5 Q 331 436.5 315.5 449 Q 302.6 459.1 285.5 465 L 267.5 469 L 245.5 469 L 223.5 464 L 208.5 457 Q 193 448 182 434.5 L 173 420.5 Q 174.5 417.5 176 420.5 L 178 424.5 L 192.5 440 L 206.5 450 L 210 451 L 294.5 269 Z " /><path fill="rgb(240,110,43)" stroke="rgb(240,110,43)" stroke-width="1" opacity="0.996078431372549" d="M 412.5 197 Q 427.4 221.6 437 251.5 L 445 285.5 L 446 300.5 L 447 301.5 L 447 318.5 L 448 320.5 L 447 321.5 L 447 339.5 L 446 340.5 L 444 358.5 L 440 374.5 L 435 387.5 Q 417.3 428.3 386.5 456 Q 356.5 484.3 313 498 L 311 504 L 289.5 509 L 283.5 509 L 275.5 511 L 257.5 511 L 255.5 512 L 254.5 511 L 228.5 510 L 202 504 L 203 500 L 226.5 505 L 228.5 505 L 268 506 L 287 465.5 L 286.5 464 Q 288 466.5 289.5 463 L 291.5 462 Q 293 464.5 294.5 461 L 296.5 460 L 298 460.5 Q 297.3 458.3 299.5 459 L 305.5 455 L 307 455.5 Q 306.3 453.3 308.5 454 Q 312 449 318 448 L 318 446.5 L 331 433.5 L 341 418.5 L 346 407.5 L 350 393.5 L 350 389.5 L 352 386.5 L 351 381.5 L 352 380.5 L 352 361.5 L 349 348.5 L 345 339.5 L 412.5 197 Z " /><path fill="rgb(240,110,43)" stroke="rgb(240,110,43)" stroke-width="1" opacity="0.996078431372549" d="M 268.5 468 L 271 468.5 L 268.5 469 L 268.5 468 Z " /><path fill="rgb(237,105,37)" stroke="rgb(237,105,37)" stroke-width="1" opacity="0.9607843137254902" d="M 447.5 321 L 448 339.5 L 441 374.5 L 434 394.5 L 426 411.5 Q 409.6 441.1 385.5 463 Q 360.4 486.4 325.5 500 L 307.5 506 L 289.5 510 L 283.5 510 L 275.5 512 L 257.5 512 L 257.5 511 L 275.5 511 L 276.5 510 L 294.5 508 L 311 504 L 313 498 Q 365.8 481.1 399 443.5 Q 422.9 417.9 437 382.5 L 444 358.5 L 446 340.5 L 447 339.5 L 447.5 321 Z " /><path fill="rgb(237,105,37)" stroke="rgb(237,105,37)" stroke-width="1" opacity="0.9607843137254902" d="M 193.5 501 L 198 502.5 L 195.5 503 L 193.5 501 Z " /><path fill="rgb(237,105,37)" stroke="rgb(237,105,37)" stroke-width="1" opacity="0.9607843137254902" d="M 199.5 503 L 222 508.5 L 217.5 509 L 201.5 505 L 199.5 503 Z " /><path fill="rgb(237,105,37)" stroke="rgb(237,105,37)" stroke-width="1" opacity="0.9607843137254902" d="M 223.5 509 L 235.5 510 L 236.5 511 L 255 511.5 L 236.5 512 L 235.5 511 L 223.5 510 L 223.5 509 Z " /><path fill="rgb(243,129,71)" stroke="rgb(243,129,71)" stroke-width="1" opacity="1" d="M 319.5 5 L 318.5 7 L 316.5 8 L 317.5 6 L 319.5 5 Z " /><path fill="rgb(243,129,71)" stroke="rgb(243,129,71)" stroke-width="1" opacity="1" d="M 320.5 9 L 321 13.5 L 320 13.5 L 320.5 9 Z " /><path fill="rgb(243,129,71)" stroke="rgb(243,129,71)" stroke-width="1" opacity="1" d="M 308.5 11 L 307.5 13 L 308.5 11 Z " /><path fill="rgb(243,129,71)" stroke="rgb(243,129,71)" stroke-width="1" opacity="1" d="M 303.5 14 L 302.5 16 L 303.5 14 Z " /><path fill="rgb(243,129,71)" stroke="rgb(243,129,71)" stroke-width="1" opacity="1" d="M 300.5 16 L 299.5 18 L 290.5 24 L 292.5 21 L 300.5 16 Z " /><path fill="rgb(243,129,71)" stroke="rgb(243,129,71)" stroke-width="1" opacity="1" d="M 321.5 17 L 322 20.5 L 321 20.5 L 321.5 17 Z " /><path fill="rgb(243,129,71)" stroke="rgb(243,129,71)" stroke-width="1" opacity="1" d="M 322.5 23 L 323 26.5 L 322 26.5 L 322.5 23 Z " /><path fill="rgb(243,129,71)" stroke="rgb(243,129,71)" stroke-width="1" opacity="1" d="M 288.5 24 L 286.5 27 L 288.5 24 Z " /><path fill="rgb(243,129,71)" stroke="rgb(243,129,71)" stroke-width="1" opacity="1" d="M 284.5 27 L 281.5 31 L 278 33.5 L 197 206.5 L 194.5 215 L 194 209.5 L 195 208.5 L 195 200.5 L 196 199.5 L 198 180.5 L 204 153.5 L 210 133.5 L 219 110.5 Q 239.4 65.4 274.5 35 L 284.5 27 Z " /><path fill="rgb(243,129,71)" stroke="rgb(243,129,71)" stroke-width="1" opacity="1" d="M 324.5 33 L 325 35.5 L 324 35.5 L 324.5 33 Z " /><path fill="rgb(243,129,71)" stroke="rgb(243,129,71)" stroke-width="1" opacity="1" d="M 326.5 41 L 327 43.5 L 326 43.5 L 326.5 41 Z " /><path fill="rgb(243,129,71)" stroke="rgb(243,129,71)" stroke-width="1" opacity="1" d="M 331.5 58 L 333 61.5 L 332 61.5 L 331.5 58 Z " /><path fill="rgb(243,129,71)" stroke="rgb(243,129,71)" stroke-width="1" opacity="1" d="M 335.5 68 L 337 71.5 L 336 71.5 L 335.5 68 Z " /><path fill="rgb(243,129,71)" stroke="rgb(243,129,71)" stroke-width="1" opacity="1" d="M 339.5 77 L 341 80.5 L 340 80.5 L 339.5 77 Z " /><path fill="rgb(243,129,71)" stroke="rgb(243,129,71)" stroke-width="1" opacity="1" d="M 344.5 88 L 348 93.5 L 346 92.5 L 344.5 88 Z " /><path fill="rgb(243,129,71)" stroke="rgb(243,129,71)" stroke-width="1" opacity="1" d="M 350.5 99 L 353 102.5 L 351 101.5 L 350.5 99 Z " /><path fill="rgb(243,129,71)" stroke="rgb(243,129,71)" stroke-width="1" opacity="1" d="M 354.5 106 L 355.5 108 L 354.5 106 Z " /><path fill="rgb(243,129,71)" stroke="rgb(243,129,71)" stroke-width="1" opacity="1" d="M 357.5 111 L 358.5 113 L 357.5 111 Z " /><path fill="rgb(243,129,71)" stroke="rgb(243,129,71)" stroke-width="1" opacity="1" d="M 359.5 114 L 360.5 116 L 359.5 114 Z " /><path fill="rgb(243,129,71)" stroke="rgb(243,129,71)" stroke-width="1" opacity="1" d="M 362.5 119 L 363.5 121 L 362.5 119 Z " /><path fill="rgb(243,129,71)" stroke="rgb(243,129,71)" stroke-width="1" opacity="1" d="M 364.5 122 L 365.5 124 L 364.5 122 Z " /><path fill="rgb(243,129,71)" stroke="rgb(243,129,71)" stroke-width="1" opacity="1" d="M 366.5 125 L 367.5 127 L 366.5 125 Z " /><path fill="rgb(243,129,71)" stroke="rgb(243,129,71)" stroke-width="1" opacity="1" d="M 368.5 128 L 369.5 130 L 368.5 128 Z " /><path fill="rgb(243,129,71)" stroke="rgb(243,129,71)" stroke-width="1" opacity="1" d="M 370.5 131 L 371.5 133 L 370.5 131 Z " /><path fill="rgb(243,129,71)" stroke="rgb(243,129,71)" stroke-width="1" opacity="1" d="M 372.5 134 L 373.5 136 L 372.5 134 Z " /><path fill="rgb(243,129,71)" stroke="rgb(243,129,71)" stroke-width="1" opacity="1" d="M 374.5 137 L 375.5 139 L 374.5 137 Z " /><path fill="rgb(243,129,71)" stroke="rgb(243,129,71)" stroke-width="1" opacity="1" d="M 376.5 140 L 377.5 142 L 376.5 140 Z " /><path fill="rgb(243,129,71)" stroke="rgb(243,129,71)" stroke-width="1" opacity="1" d="M 378.5 143 L 383.5 150 L 384.5 148 Q 408.9 180.6 427 219.5 L 438 249.5 L 441 264 L 443 264.5 L 441.5 268 L 433 238.5 L 417 203.5 Q 398.7 171.3 378.5 143 Z " /><path fill="rgb(243,129,71)" stroke="rgb(243,129,71)" stroke-width="1" opacity="1" d="M 127.5 177 L 130 196.5 L 134 208.5 Q 143.1 228.9 159.5 242 L 177 253.5 L 175 254 L 96.5 422 L 81 397.5 L 70 370.5 L 71 368 Q 68.3 369.1 69 366.5 L 69 364.5 L 68 362.5 L 68 360.5 L 67 356.5 L 67 354.5 L 66 351.5 L 67 349.5 L 65 345.5 L 66 341.5 L 64 335.5 L 65 333.5 L 65 331.5 L 64 316.5 L 65 315.5 L 65 296.5 L 66 295.5 L 66 287.5 L 67 286.5 L 68 275.5 Q 71.5 257.5 78 242.5 Q 96.8 203.8 127.5 177 Z " /><path fill="rgb(243,129,71)" stroke="rgb(243,129,71)" stroke-width="1" opacity="1" d="M 193.5 221 L 194 227.5 L 193 227.5 L 193.5 221 Z " /><path fill="rgb(243,129,71)" stroke="rgb(243,129,71)" stroke-width="1" opacity="1" d="M 192.5 243 L 193 251.5 L 192 251.5 L 192.5 243 Z " /><path fill="rgb(243,129,71)" stroke="rgb(243,129,71)" stroke-width="1" opacity="1" d="M 260.5 252 L 259.5 254 L 260.5 252 Z " /><path fill="rgb(243,129,71)" stroke="rgb(243,129,71)" stroke-width="1" opacity="1" d="M 192.5 253 L 193 256.5 L 192 256.5 L 192.5 253 Z " /><path fill="rgb(243,129,71)" stroke="rgb(243,129,71)" stroke-width="1" opacity="1" d="M 184.5 257 L 192 260.5 L 190.5 260 L 184.5 258 L 184.5 257 Z " /><path fill="rgb(243,129,71)" stroke="rgb(243,129,71)" stroke-width="1" opacity="1" d="M 253.5 259 L 251.5 262 L 253.5 259 Z " /><path fill="rgb(243,129,71)" stroke="rgb(243,129,71)" stroke-width="1" opacity="1" d="M 442.5 269 L 443 271.5 L 442 271.5 L 442.5 269 Z " /><path fill="rgb(243,129,71)" stroke="rgb(243,129,71)" stroke-width="1" opacity="1" d="M 443.5 274 L 444 276.5 L 443 276.5 L 443.5 274 Z " /><path fill="rgb(243,129,71)" stroke="rgb(243,129,71)" stroke-width="1" opacity="1" d="M 444 280 L 446 280.5 L 444 281.5 L 444 280 Z " /><path fill="rgb(243,129,71)" stroke="rgb(243,129,71)" stroke-width="1" opacity="1" d="M 192.5 302 L 193 307.5 L 192 307.5 L 192.5 302 Z " /><path fill="rgb(243,129,71)" stroke="rgb(243,129,71)" stroke-width="1" opacity="1" d="M 182.5 308 L 178.5 313 L 182.5 308 Z " /><path fill="rgb(243,129,71)" stroke="rgb(243,129,71)" stroke-width="1" opacity="1" d="M 177.5 314 L 175.5 317 L 177.5 314 Z " /><path fill="rgb(243,129,71)" stroke="rgb(243,129,71)" stroke-width="1" opacity="1" d="M 174.5 318 L 173.5 320 L 174.5 318 Z " /><path fill="rgb(243,129,71)" stroke="rgb(243,129,71)" stroke-width="1" opacity="1" d="M 171.5 323 L 170.5 325 L 171.5 323 Z " /><path fill="rgb(243,129,71)" stroke="rgb(243,129,71)" stroke-width="1" opacity="1" d="M 225.5 324 L 226 326.5 L 225 326.5 L 225.5 324 Z " /><path fill="rgb(243,129,71)" stroke="rgb(243,129,71)" stroke-width="1" opacity="1" d="M 224.5 334 L 225 337.5 L 224 337.5 L 224.5 334 Z " /><path fill="rgb(243,129,71)" stroke="rgb(243,129,71)" stroke-width="1" opacity="1" d="M 205.5 338 L 211.5 345 L 205.5 338 Z " /><path fill="rgb(243,129,71)" stroke="rgb(243,129,71)" stroke-width="1" opacity="1" d="M 160.5 356 L 161 360.5 L 160 360.5 L 160.5 356 Z " /><path fill="rgb(252,192,50)" stroke="rgb(252,192,50)" stroke-width="1" opacity="1" d="M 287.5 235 L 292 256.5 L 300 274.5 Q 313.3 296.7 330 315.5 Q 340 328.5 347 344.5 L 351 358.5 L 352 372.5 L 351 372.5 L 349 357.5 L 340 336.5 L 308 293.5 L 294.5 269 L 210 451 Q 194.6 444.3 184 431.5 L 174.5 419 L 172.5 420 Q 158.3 398.7 160 361.5 L 164 339.5 L 170 325.5 Q 178.8 310.3 191.5 299 Q 192.8 330.7 211.5 345 L 223.5 352 L 226 319.5 L 233 292.5 Q 241.8 269.3 258.5 254 Q 270.8 242.3 287.5 235 Z " /></svg>