<svg width="512" height="512" version="1.1" xmlns="http://www.w3.org/2000/svg" desc="Created with imagetracer.js version 1.2.6" ><path fill="rgb(15,3,4)" stroke="rgb(15,3,4)" stroke-width="1" opacity="0.792156862745098" d="M 100.5 58 L 101 87 L 73 87 L 73 114 L 100 114.5 L 72 115 L 72 86 L 100 86 L 100.5 58 Z " /><path fill="rgb(15,3,4)" stroke="rgb(15,3,4)" stroke-width="1" opacity="0.792156862745098" d="M 128.5 58 L 129 85.5 L 128 85.5 L 128.5 58 Z " /><path fill="rgb(15,3,4)" stroke="rgb(15,3,4)" stroke-width="1" opacity="0.792156862745098" d="M 383.5 58 L 384 86.5 L 383 86.5 L 383.5 58 Z " /><path fill="rgb(15,3,4)" stroke="rgb(15,3,4)" stroke-width="1" opacity="0.792156862745098" d="M 411.5 58 L 412 86 L 440 86 L 440 115 L 412 114.5 L 439 114 L 439 87 L 411 87 L 411.5 58 Z " /><path fill="rgb(15,3,4)" stroke="rgb(15,3,4)" stroke-width="1" opacity="0.792156862745098" d="M 185 86 L 212.5 86 L 214 87.5 L 214 142 L 241.5 142 L 241.5 143 L 213 143 L 213 115 L 186.5 115 L 185 113.5 L 185 86 Z M 186 87 L 186 114 L 213 114 L 213 87 L 186 87 Z " /><path fill="rgb(15,3,4)" stroke="rgb(15,3,4)" stroke-width="1" opacity="0.792156862745098" d="M 299.5 86 L 327 86 L 327 115 L 299 115 L 299 143 L 270.5 143 L 270.5 142 L 298 142 L 298 87.5 L 299.5 86 Z M 299 87 L 299 114 L 326 114 L 326 87 L 299 87 Z " /><path fill="rgb(15,3,4)" stroke="rgb(15,3,4)" stroke-width="1" opacity="0.792156862745098" d="M 44.5 199 L 72 199.5 L 44.5 200 L 44.5 199 Z " /><path fill="rgb(15,3,4)" stroke="rgb(15,3,4)" stroke-width="1" opacity="0.792156862745098" d="M 440.5 199 L 468 199.5 L 440.5 200 L 440.5 199 Z " /><path fill="rgb(15,3,4)" stroke="rgb(15,3,4)" stroke-width="1" opacity="0.792156862745098" d="M 44.5 227 L 71.5 227 L 73 228.5 L 72.5 284 L 72 228 L 44.5 228 L 44.5 227 Z " /><path fill="rgb(15,3,4)" stroke="rgb(15,3,4)" stroke-width="1" opacity="0.792156862745098" d="M 440.5 227 L 468 227.5 L 440 228 L 439.5 284 L 439 228.5 L 440.5 227 Z " /><path fill="rgb(15,3,4)" stroke="rgb(15,3,4)" stroke-width="1" opacity="0.792156862745098" d="M 100 284 L 129 284 L 129 313 L 101.5 313 L 100 311.5 L 100 284 Z M 101 285 L 101 312 L 128 312 L 128 285 L 101 285 Z " /><path fill="rgb(15,3,4)" stroke="rgb(15,3,4)" stroke-width="1" opacity="0.792156862745098" d="M 383 284 L 412 284 L 412 311.5 L 410.5 313 L 383 313 L 383 284 Z M 384 285 L 384 312 L 411 312 L 411 285 L 384 285 Z " /><path fill="rgb(15,3,4)" stroke="rgb(15,3,4)" stroke-width="1" opacity="0.792156862745098" d="M 129.5 340 L 157 340.5 L 129.5 341 L 129.5 340 Z " /><path fill="rgb(15,3,4)" stroke="rgb(15,3,4)" stroke-width="1" opacity="0.792156862745098" d="M 355.5 340 L 383 340.5 L 355.5 341 L 355.5 340 Z " /><path fill="rgb(15,3,4)" stroke="rgb(15,3,4)" stroke-width="1" opacity="0.792156862745098" d="M 185 369 L 212.5 369 L 214 370.5 L 214 397 L 242 397 L 242 426 L 214 425.5 L 241 425 L 241 398 L 213 398 L 213 370 L 186 370 L 185.5 397 L 185 369 Z " /><path fill="rgb(15,3,4)" stroke="rgb(15,3,4)" stroke-width="1" opacity="0.792156862745098" d="M 299.5 369 L 327 369 L 327 396.5 L 326 396.5 L 326 370 L 299 370 L 299 398 L 271 398 L 271 425 L 298 425.5 L 270 426 L 270 397 L 298 397 L 298 370.5 L 299.5 369 Z " /><path fill="rgb(254,248,249)" stroke="rgb(254,248,249)" stroke-width="1" opacity="0.9803921568627451" d="M 101.5 114 L 157 114 L 157 143 L 129 143 L 129 171 L 100 171 L 100 115.5 L 101.5 114 Z " /><path fill="rgb(0,0,0)" stroke="rgb(0,0,0)" stroke-width="1" opacity="0" d="M 0 0 L 512 0 L 512 512 L 0 512 L 0 0 Z M 100 58 L 100 86 L 72 86 L 72 115 L 44 115 L 44 228 L 45 228 L 72 228 L 72 284 L 100 284 L 100 312 L 102 313 L 129 313 L 129 341 L 157 341 L 157 369 L 185 369 L 185 397 L 213 397 L 214 399 L 214 426 L 242 426 L 242 454 L 270 454 L 270 426 L 298 426 L 298 399 L 300 397 L 327 397 L 327 369 L 355 369 L 355 341 L 383 341 L 383 313 L 411 313 L 412 312 L 412 284 L 440 284 L 440 228 L 468 228 L 468 116 L 468 115 L 440 115 L 440 86 L 412 86 L 412 58 L 328 58 L 327 59 L 327 86 L 300 86 L 298 88 L 298 115 L 270 115 L 270 143 L 242 143 L 242 115 L 214 115 L 214 88 L 213 86 L 185 86 L 185 59 L 185 58 L 100 58 Z " /><path fill="rgb(254,53,69)" stroke="rgb(254,53,69)" stroke-width="1" opacity="0.984313725490196" d="M 101.5 86 L 185 86.5 L 158 87 L 158 114 L 186 114 L 186 142 L 212.5 142 L 214 143.5 L 214 171 L 241 171 L 241 143.5 L 242 143.5 L 242 171 L 270 171 L 270.5 143 L 271 171 L 298 171 L 298 143.5 L 299.5 142 L 326 142 L 326 115.5 L 327.5 114 L 354 114 L 354 87 L 327 86.5 L 382.5 86 L 384.5 86 L 410.5 86 L 412 87.5 L 412 142 L 439 142 L 439.5 115 L 440 228 L 412 228 L 412 283.5 L 411 283.5 L 411 228 L 384 228 L 384 283.5 L 382.5 285 L 355 285 L 355 312 L 383 312.5 L 355 313 L 355 341 L 327 341 L 327 368.5 L 326 368.5 L 326 341 L 299 341 L 299 370 L 271 370 L 271 396.5 L 269.5 398 L 242.5 398 L 241 396.5 L 241 370 L 213 370 L 213 341 L 186 341 L 185.5 369 L 185 341 L 157 341 L 157 313 L 129.5 313 L 129.5 312 L 157 312 L 157 285 L 129.5 285 L 128 283.5 L 128 228 L 101 228 L 100.5 284 L 100 228 L 72.5 228 L 72 227.5 L 72 115.5 L 73 115.5 L 73 142 L 99.5 142 L 99.5 143 L 73 143 L 73 171 L 157 171 L 157 87 L 129 87 L 129 113.5 L 128 113.5 L 128 87 L 101 87 L 100.5 115 L 100 87.5 L 101.5 86 Z M 355 87 L 355 114 L 383 114 L 383 87 L 355 87 Z M 384 87 L 384 114 L 411 114 L 411 87 L 384 87 Z M 158 115 L 158 142 L 185 142 L 185 115 L 158 115 Z M 327 115 L 327 142 L 354 142 L 354 115 L 327 115 Z M 355 115 L 355 142 L 383 142 L 383 115 L 355 115 Z M 384 115 L 384 142 L 411 142 L 411 115 L 384 115 Z M 158 143 L 158 171 L 185 171 L 185 143 L 158 143 Z M 186 143 L 186 171 L 213 171 L 213 143 L 186 143 Z M 299 143 L 299 171 L 326 171 L 326 143 L 299 143 Z M 327 143 L 327 171 L 354 171 L 354 143 L 327 143 Z M 355 143 L 355 171 L 383 171 L 383 143 L 355 143 Z M 384 143 L 384 171 L 411 171 L 411 143 L 384 143 Z M 412 143 L 412 171 L 439 171 L 439 143 L 412 143 Z M 73 172 L 73 199 L 100 199 L 100 172 L 73 172 Z M 101 172 L 101 199 L 128 199 L 128 172 L 101 172 Z M 129 172 L 129 199 L 157 199 L 157 172 L 129 172 Z M 158 172 L 158 199 L 185 199 L 185 172 L 158 172 Z M 186 172 L 186 199 L 213 199 L 213 172 L 186 172 Z M 214 172 L 214 199 L 241 199 L 241 172 L 214 172 Z M 242 172 L 242 199 L 270 199 L 270 172 L 242 172 Z M 271 172 L 271 199 L 298 199 L 298 172 L 271 172 Z M 299 172 L 299 199 L 326 199 L 326 172 L 299 172 Z M 327 172 L 327 199 L 354 199 L 354 172 L 327 172 Z M 355 172 L 355 199 L 383 199 L 383 172 L 355 172 Z M 384 172 L 384 199 L 411 199 L 411 172 L 384 172 Z M 412 172 L 412 199 L 439 199 L 439 172 L 412 172 Z M 73 200 L 73 227 L 100 227 L 100 200 L 73 200 Z M 101 200 L 101 227 L 128 227 L 128 200 L 101 200 Z M 129 200 L 129 227 L 157 227 L 157 200 L 129 200 Z M 158 200 L 158 227 L 185 227 L 185 200 L 158 200 Z M 186 200 L 186 227 L 213 227 L 213 200 L 186 200 Z M 214 200 L 214 227 L 241 227 L 241 200 L 214 200 Z M 242 200 L 242 227 L 270 227 L 270 200 L 242 200 Z M 271 200 L 271 227 L 298 227 L 298 200 L 271 200 Z M 299 200 L 299 227 L 326 227 L 326 200 L 299 200 Z M 327 200 L 327 227 L 354 227 L 354 200 L 327 200 Z M 355 200 L 355 227 L 383 227 L 383 200 L 355 200 Z M 384 200 L 384 227 L 411 227 L 411 200 L 384 200 Z M 412 200 L 412 227 L 439 227 L 439 200 L 412 200 Z M 129 228 L 129 284 L 157 284 L 157 228 L 129 228 Z M 158 228 L 158 284 L 185 284 L 185 228 L 158 228 Z M 186 228 L 186 284 L 213 284 L 213 228 L 186 228 Z M 214 228 L 214 284 L 241 284 L 241 228 L 214 228 Z M 242 228 L 242 284 L 270 284 L 270 228 L 242 228 Z M 271 228 L 271 284 L 298 284 L 298 228 L 271 228 Z M 299 228 L 299 284 L 326 284 L 326 228 L 299 228 Z M 327 228 L 327 284 L 354 284 L 354 228 L 327 228 Z M 355 228 L 355 284 L 383 284 L 383 228 L 355 228 Z M 158 285 L 158 312 L 185 312 L 185 285 L 158 285 Z M 186 285 L 186 312 L 213 312 L 213 285 L 186 285 Z M 214 285 L 214 312 L 241 312 L 241 285 L 214 285 Z M 242 285 L 242 312 L 270 312 L 270 285 L 242 285 Z M 271 285 L 271 312 L 298 312 L 298 285 L 271 285 Z M 299 285 L 299 312 L 326 312 L 326 285 L 299 285 Z M 327 285 L 327 312 L 354 312 L 354 285 L 327 285 Z M 158 313 L 158 340 L 185 340 L 185 313 L 158 313 Z M 186 313 L 186 340 L 213 340 L 213 313 L 186 313 Z M 214 313 L 214 340 L 241 340 L 241 313 L 214 313 Z M 242 313 L 242 340 L 270 340 L 270 313 L 242 313 Z M 271 313 L 271 340 L 298 340 L 298 313 L 271 313 Z M 299 313 L 299 340 L 326 340 L 326 313 L 299 313 Z M 327 313 L 327 340 L 354 340 L 354 313 L 327 313 Z M 214 341 L 214 369 L 241 369 L 241 341 L 214 341 Z M 242 341 L 242 369 L 270 369 L 270 341 L 242 341 Z M 271 341 L 271 369 L 298 369 L 298 341 L 271 341 Z M 242 370 L 242 397 L 270 397 L 270 370 L 242 370 Z " /><path fill="rgb(254,53,69)" stroke="rgb(254,53,69)" stroke-width="1" opacity="0.984313725490196" d="M 242.5 425 L 270 425.5 L 242.5 426 L 242.5 425 Z " /><path fill="rgb(255,54,70)" stroke="rgb(255,54,70)" stroke-width="1" opacity="1" d="M 101 87 L 128 87 L 128 114 L 101 114 L 101 87 Z " /><path fill="rgb(255,54,70)" stroke="rgb(255,54,70)" stroke-width="1" opacity="1" d="M 129 87 L 157 87 L 157 114 L 129 114 L 129 87 Z " /><path fill="rgb(255,54,70)" stroke="rgb(255,54,70)" stroke-width="1" opacity="1" d="M 158 87 L 185 87 L 185 114 L 158 114 L 158 87 Z " /><path fill="rgb(255,54,70)" stroke="rgb(255,54,70)" stroke-width="1" opacity="1" d="M 327 87 L 354 87 L 354 114 L 327 114 L 327 87 Z " /><path fill="rgb(255,54,70)" stroke="rgb(255,54,70)" stroke-width="1" opacity="1" d="M 355 87 L 383 87 L 383 114 L 355 114 L 355 87 Z " /><path fill="rgb(255,54,70)" stroke="rgb(255,54,70)" stroke-width="1" opacity="1" d="M 384 87 L 411 87 L 411 114 L 384 114 L 384 87 Z " /><path fill="rgb(255,54,70)" stroke="rgb(255,54,70)" stroke-width="1" opacity="1" d="M 73 115 L 100 115 L 100 142 L 73 142 L 73 115 Z " /><path fill="rgb(255,54,70)" stroke="rgb(255,54,70)" stroke-width="1" opacity="1" d="M 158 115 L 185 115 L 185 142 L 158 142 L 158 115 Z " /><path fill="rgb(255,54,70)" stroke="rgb(255,54,70)" stroke-width="1" opacity="1" d="M 186 115 L 213 115 L 213 142 L 186 142 L 186 115 Z " /><path fill="rgb(255,54,70)" stroke="rgb(255,54,70)" stroke-width="1" opacity="1" d="M 299 115 L 326 115 L 326 142 L 299 142 L 299 115 Z " /><path fill="rgb(255,54,70)" stroke="rgb(255,54,70)" stroke-width="1" opacity="1" d="M 327 115 L 354 115 L 354 142 L 327 142 L 327 115 Z " /><path fill="rgb(255,54,70)" stroke="rgb(255,54,70)" stroke-width="1" opacity="1" d="M 355 115 L 383 115 L 383 142 L 355 142 L 355 115 Z " /><path fill="rgb(255,54,70)" stroke="rgb(255,54,70)" stroke-width="1" opacity="1" d="M 384 115 L 411 115 L 411 142 L 384 142 L 384 115 Z " /><path fill="rgb(255,54,70)" stroke="rgb(255,54,70)" stroke-width="1" opacity="1" d="M 412 115 L 439 115 L 439 142 L 412 142 L 412 115 Z " /><path fill="rgb(255,54,70)" stroke="rgb(255,54,70)" stroke-width="1" opacity="1" d="M 73 143 L 100 143 L 100 171 L 73 171 L 73 143 Z " /><path fill="rgb(255,54,70)" stroke="rgb(255,54,70)" stroke-width="1" opacity="1" d="M 129 143 L 157 143 L 157 171 L 129 171 L 129 143 Z " /><path fill="rgb(255,54,70)" stroke="rgb(255,54,70)" stroke-width="1" opacity="1" d="M 158 143 L 185 143 L 185 171 L 158 171 L 158 143 Z " /><path fill="rgb(255,54,70)" stroke="rgb(255,54,70)" stroke-width="1" opacity="1" d="M 186 143 L 213 143 L 213 171 L 186 171 L 186 143 Z " /><path fill="rgb(255,54,70)" stroke="rgb(255,54,70)" stroke-width="1" opacity="1" d="M 214 143 L 241 143 L 241 171 L 214 171 L 214 143 Z " /><path fill="rgb(255,54,70)" stroke="rgb(255,54,70)" stroke-width="1" opacity="1" d="M 271 143 L 298 143 L 298 171 L 271 171 L 271 143 Z " /><path fill="rgb(255,54,70)" stroke="rgb(255,54,70)" stroke-width="1" opacity="1" d="M 299 143 L 326 143 L 326 171 L 299 171 L 299 143 Z " /><path fill="rgb(255,54,70)" stroke="rgb(255,54,70)" stroke-width="1" opacity="1" d="M 327 143 L 354 143 L 354 171 L 327 171 L 327 143 Z " /><path fill="rgb(255,54,70)" stroke="rgb(255,54,70)" stroke-width="1" opacity="1" d="M 355 143 L 383 143 L 383 171 L 355 171 L 355 143 Z " /><path fill="rgb(255,54,70)" stroke="rgb(255,54,70)" stroke-width="1" opacity="1" d="M 384 143 L 411 143 L 411 171 L 384 171 L 384 143 Z " /><path fill="rgb(255,54,70)" stroke="rgb(255,54,70)" stroke-width="1" opacity="1" d="M 412 143 L 439 143 L 439 171 L 412 171 L 412 143 Z " /><path fill="rgb(255,54,70)" stroke="rgb(255,54,70)" stroke-width="1" opacity="1" d="M 73 172 L 100 172 L 100 199 L 73 199 L 73 172 Z " /><path fill="rgb(255,54,70)" stroke="rgb(255,54,70)" stroke-width="1" opacity="1" d="M 101 172 L 128 172 L 128 199 L 101 199 L 101 172 Z " /><path fill="rgb(255,54,70)" stroke="rgb(255,54,70)" stroke-width="1" opacity="1" d="M 129 172 L 157 172 L 157 199 L 129 199 L 129 172 Z " /><path fill="rgb(255,54,70)" stroke="rgb(255,54,70)" stroke-width="1" opacity="1" d="M 158 172 L 185 172 L 185 199 L 158 199 L 158 172 Z " /><path fill="rgb(255,54,70)" stroke="rgb(255,54,70)" stroke-width="1" opacity="1" d="M 186 172 L 213 172 L 213 199 L 186 199 L 186 172 Z " /><path fill="rgb(255,54,70)" stroke="rgb(255,54,70)" stroke-width="1" opacity="1" d="M 214 172 L 241 172 L 241 199 L 214 199 L 214 172 Z " /><path fill="rgb(255,54,70)" stroke="rgb(255,54,70)" stroke-width="1" opacity="1" d="M 242 172 L 270 172 L 270 199 L 242 199 L 242 172 Z " /><path fill="rgb(255,54,70)" stroke="rgb(255,54,70)" stroke-width="1" opacity="1" d="M 271 172 L 298 172 L 298 199 L 271 199 L 271 172 Z " /><path fill="rgb(255,54,70)" stroke="rgb(255,54,70)" stroke-width="1" opacity="1" d="M 299 172 L 326 172 L 326 199 L 299 199 L 299 172 Z " /><path fill="rgb(255,54,70)" stroke="rgb(255,54,70)" stroke-width="1" opacity="1" d="M 327 172 L 354 172 L 354 199 L 327 199 L 327 172 Z " /><path fill="rgb(255,54,70)" stroke="rgb(255,54,70)" stroke-width="1" opacity="1" d="M 355 172 L 383 172 L 383 199 L 355 199 L 355 172 Z " /><path fill="rgb(255,54,70)" stroke="rgb(255,54,70)" stroke-width="1" opacity="1" d="M 384 172 L 411 172 L 411 199 L 384 199 L 384 172 Z " /><path fill="rgb(255,54,70)" stroke="rgb(255,54,70)" stroke-width="1" opacity="1" d="M 412 172 L 439 172 L 439 199 L 412 199 L 412 172 Z " /><path fill="rgb(255,54,70)" stroke="rgb(255,54,70)" stroke-width="1" opacity="1" d="M 73 200 L 100 200 L 100 227 L 73 227 L 73 200 Z " /><path fill="rgb(255,54,70)" stroke="rgb(255,54,70)" stroke-width="1" opacity="1" d="M 101 200 L 128 200 L 128 227 L 101 227 L 101 200 Z " /><path fill="rgb(255,54,70)" stroke="rgb(255,54,70)" stroke-width="1" opacity="1" d="M 129 200 L 157 200 L 157 227 L 129 227 L 129 200 Z " /><path fill="rgb(255,54,70)" stroke="rgb(255,54,70)" stroke-width="1" opacity="1" d="M 158 200 L 185 200 L 185 227 L 158 227 L 158 200 Z " /><path fill="rgb(255,54,70)" stroke="rgb(255,54,70)" stroke-width="1" opacity="1" d="M 186 200 L 213 200 L 213 227 L 186 227 L 186 200 Z " /><path fill="rgb(255,54,70)" stroke="rgb(255,54,70)" stroke-width="1" opacity="1" d="M 214 200 L 241 200 L 241 227 L 214 227 L 214 200 Z " /><path fill="rgb(255,54,70)" stroke="rgb(255,54,70)" stroke-width="1" opacity="1" d="M 242 200 L 270 200 L 270 227 L 242 227 L 242 200 Z " /><path fill="rgb(255,54,70)" stroke="rgb(255,54,70)" stroke-width="1" opacity="1" d="M 271 200 L 298 200 L 298 227 L 271 227 L 271 200 Z " /><path fill="rgb(255,54,70)" stroke="rgb(255,54,70)" stroke-width="1" opacity="1" d="M 299 200 L 326 200 L 326 227 L 299 227 L 299 200 Z " /><path fill="rgb(255,54,70)" stroke="rgb(255,54,70)" stroke-width="1" opacity="1" d="M 327 200 L 354 200 L 354 227 L 327 227 L 327 200 Z " /><path fill="rgb(255,54,70)" stroke="rgb(255,54,70)" stroke-width="1" opacity="1" d="M 355 200 L 383 200 L 383 227 L 355 227 L 355 200 Z " /><path fill="rgb(255,54,70)" stroke="rgb(255,54,70)" stroke-width="1" opacity="1" d="M 384 200 L 411 200 L 411 227 L 384 227 L 384 200 Z " /><path fill="rgb(255,54,70)" stroke="rgb(255,54,70)" stroke-width="1" opacity="1" d="M 412 200 L 439 200 L 439 227 L 412 227 L 412 200 Z " /><path fill="rgb(255,54,70)" stroke="rgb(255,54,70)" stroke-width="1" opacity="1" d="M 101 228 L 128 228 L 128 284 L 101 284 L 101 228 Z " /><path fill="rgb(255,54,70)" stroke="rgb(255,54,70)" stroke-width="1" opacity="1" d="M 129 228 L 157 228 L 157 284 L 129 284 L 129 228 Z " /><path fill="rgb(255,54,70)" stroke="rgb(255,54,70)" stroke-width="1" opacity="1" d="M 158 228 L 185 228 L 185 284 L 158 284 L 158 228 Z " /><path fill="rgb(255,54,70)" stroke="rgb(255,54,70)" stroke-width="1" opacity="1" d="M 186 228 L 213 228 L 213 284 L 186 284 L 186 228 Z " /><path fill="rgb(255,54,70)" stroke="rgb(255,54,70)" stroke-width="1" opacity="1" d="M 214 228 L 241 228 L 241 284 L 214 284 L 214 228 Z " /><path fill="rgb(255,54,70)" stroke="rgb(255,54,70)" stroke-width="1" opacity="1" d="M 242 228 L 270 228 L 270 284 L 242 284 L 242 228 Z " /><path fill="rgb(255,54,70)" stroke="rgb(255,54,70)" stroke-width="1" opacity="1" d="M 271 228 L 298 228 L 298 284 L 271 284 L 271 228 Z " /><path fill="rgb(255,54,70)" stroke="rgb(255,54,70)" stroke-width="1" opacity="1" d="M 299 228 L 326 228 L 326 284 L 299 284 L 299 228 Z " /><path fill="rgb(255,54,70)" stroke="rgb(255,54,70)" stroke-width="1" opacity="1" d="M 327 228 L 354 228 L 354 284 L 327 284 L 327 228 Z " /><path fill="rgb(255,54,70)" stroke="rgb(255,54,70)" stroke-width="1" opacity="1" d="M 355 228 L 383 228 L 383 284 L 355 284 L 355 228 Z " /><path fill="rgb(255,54,70)" stroke="rgb(255,54,70)" stroke-width="1" opacity="1" d="M 384 228 L 411 228 L 411 284 L 384 284 L 384 228 Z " /><path fill="rgb(255,54,70)" stroke="rgb(255,54,70)" stroke-width="1" opacity="1" d="M 129 285 L 157 285 L 157 312 L 129 312 L 129 285 Z " /><path fill="rgb(255,54,70)" stroke="rgb(255,54,70)" stroke-width="1" opacity="1" d="M 158 285 L 185 285 L 185 312 L 158 312 L 158 285 Z " /><path fill="rgb(255,54,70)" stroke="rgb(255,54,70)" stroke-width="1" opacity="1" d="M 186 285 L 213 285 L 213 312 L 186 312 L 186 285 Z " /><path fill="rgb(255,54,70)" stroke="rgb(255,54,70)" stroke-width="1" opacity="1" d="M 214 285 L 241 285 L 241 312 L 214 312 L 214 285 Z " /><path fill="rgb(255,54,70)" stroke="rgb(255,54,70)" stroke-width="1" opacity="1" d="M 242 285 L 270 285 L 270 312 L 242 312 L 242 285 Z " /><path fill="rgb(255,54,70)" stroke="rgb(255,54,70)" stroke-width="1" opacity="1" d="M 271 285 L 298 285 L 298 312 L 271 312 L 271 285 Z " /><path fill="rgb(255,54,70)" stroke="rgb(255,54,70)" stroke-width="1" opacity="1" d="M 299 285 L 326 285 L 326 312 L 299 312 L 299 285 Z " /><path fill="rgb(255,54,70)" stroke="rgb(255,54,70)" stroke-width="1" opacity="1" d="M 327 285 L 354 285 L 354 312 L 327 312 L 327 285 Z " /><path fill="rgb(255,54,70)" stroke="rgb(255,54,70)" stroke-width="1" opacity="1" d="M 355 285 L 383 285 L 383 312 L 355 312 L 355 285 Z " /><path fill="rgb(255,54,70)" stroke="rgb(255,54,70)" stroke-width="1" opacity="1" d="M 158 313 L 185 313 L 185 340 L 158 340 L 158 313 Z " /><path fill="rgb(255,54,70)" stroke="rgb(255,54,70)" stroke-width="1" opacity="1" d="M 186 313 L 213 313 L 213 340 L 186 340 L 186 313 Z " /><path fill="rgb(255,54,70)" stroke="rgb(255,54,70)" stroke-width="1" opacity="1" d="M 214 313 L 241 313 L 241 340 L 214 340 L 214 313 Z " /><path fill="rgb(255,54,70)" stroke="rgb(255,54,70)" stroke-width="1" opacity="1" d="M 242 313 L 270 313 L 270 340 L 242 340 L 242 313 Z " /><path fill="rgb(255,54,70)" stroke="rgb(255,54,70)" stroke-width="1" opacity="1" d="M 271 313 L 298 313 L 298 340 L 271 340 L 271 313 Z " /><path fill="rgb(255,54,70)" stroke="rgb(255,54,70)" stroke-width="1" opacity="1" d="M 299 313 L 326 313 L 326 340 L 299 340 L 299 313 Z " /><path fill="rgb(255,54,70)" stroke="rgb(255,54,70)" stroke-width="1" opacity="1" d="M 327 313 L 354 313 L 354 340 L 327 340 L 327 313 Z " /><path fill="rgb(255,54,70)" stroke="rgb(255,54,70)" stroke-width="1" opacity="1" d="M 186 341 L 213 341 L 213 369 L 186 369 L 186 341 Z " /><path fill="rgb(255,54,70)" stroke="rgb(255,54,70)" stroke-width="1" opacity="1" d="M 214 341 L 241 341 L 241 369 L 214 369 L 214 341 Z " /><path fill="rgb(255,54,70)" stroke="rgb(255,54,70)" stroke-width="1" opacity="1" d="M 242 341 L 270 341 L 270 369 L 242 369 L 242 341 Z " /><path fill="rgb(255,54,70)" stroke="rgb(255,54,70)" stroke-width="1" opacity="1" d="M 271 341 L 298 341 L 298 369 L 271 369 L 271 341 Z " /><path fill="rgb(255,54,70)" stroke="rgb(255,54,70)" stroke-width="1" opacity="1" d="M 299 341 L 326 341 L 326 369 L 299 369 L 299 341 Z " /><path fill="rgb(255,54,70)" stroke="rgb(255,54,70)" stroke-width="1" opacity="1" d="M 214 370 L 241 370 L 241 397 L 214 397 L 214 370 Z " /><path fill="rgb(255,54,70)" stroke="rgb(255,54,70)" stroke-width="1" opacity="1" d="M 242 370 L 270 370 L 270 397 L 242 397 L 242 370 Z " /><path fill="rgb(255,54,70)" stroke="rgb(255,54,70)" stroke-width="1" opacity="1" d="M 271 370 L 298 370 L 298 397 L 271 397 L 271 370 Z " /><path fill="rgb(255,54,70)" stroke="rgb(255,54,70)" stroke-width="1" opacity="1" d="M 242 398 L 270 398 L 270 425 L 242 425 L 242 398 Z " /><path fill="rgb(0,0,0)" stroke="rgb(0,0,0)" stroke-width="1" opacity="1" d="M 101 58 L 128 58 L 128 86 L 101 86 L 101 58 Z " /><path fill="rgb(0,0,0)" stroke="rgb(0,0,0)" stroke-width="1" opacity="1" d="M 129 58 L 185 58 L 185 86 L 129 86 L 129 58 Z " /><path fill="rgb(0,0,0)" stroke="rgb(0,0,0)" stroke-width="1" opacity="1" d="M 327 58 L 383 58 L 383 86 L 327 86 L 327 58 Z " /><path fill="rgb(0,0,0)" stroke="rgb(0,0,0)" stroke-width="1" opacity="1" d="M 384 58 L 411 58 L 411 86 L 384 86 L 384 58 Z " /><path fill="rgb(0,0,0)" stroke="rgb(0,0,0)" stroke-width="1" opacity="1" d="M 73 87 L 100 87 L 100 114 L 73 114 L 73 87 Z " /><path fill="rgb(0,0,0)" stroke="rgb(0,0,0)" stroke-width="1" opacity="1" d="M 186 87 L 213 87 L 213 114 L 186 114 L 186 87 Z " /><path fill="rgb(0,0,0)" stroke="rgb(0,0,0)" stroke-width="1" opacity="1" d="M 299 87 L 326 87 L 326 114 L 299 114 L 299 87 Z " /><path fill="rgb(0,0,0)" stroke="rgb(0,0,0)" stroke-width="1" opacity="1" d="M 412 87 L 439 87 L 439 114 L 412 114 L 412 87 Z " /><path fill="rgb(0,0,0)" stroke="rgb(0,0,0)" stroke-width="1" opacity="1" d="M 44 115 L 72 115 L 72 199 L 44 199 L 44 115 Z " /><path fill="rgb(0,0,0)" stroke="rgb(0,0,0)" stroke-width="1" opacity="1" d="M 214 115 L 242 115 L 242 142 L 214 142 L 214 115 Z " /><path fill="rgb(0,0,0)" stroke="rgb(0,0,0)" stroke-width="1" opacity="1" d="M 270 115 L 298 115 L 298 142 L 270 142 L 270 115 Z " /><path fill="rgb(0,0,0)" stroke="rgb(0,0,0)" stroke-width="1" opacity="1" d="M 440 115 L 468 115 L 468 199 L 440 199 L 440 115 Z " /><path fill="rgb(0,0,0)" stroke="rgb(0,0,0)" stroke-width="1" opacity="1" d="M 242 143 L 270 143 L 270 171 L 242 171 L 242 143 Z " /><path fill="rgb(0,0,0)" stroke="rgb(0,0,0)" stroke-width="1" opacity="1" d="M 44 200 L 72 200 L 72 227 L 44 227 L 44 200 Z " /><path fill="rgb(0,0,0)" stroke="rgb(0,0,0)" stroke-width="1" opacity="1" d="M 440 200 L 468 200 L 468 227 L 440 227 L 440 200 Z " /><path fill="rgb(0,0,0)" stroke="rgb(0,0,0)" stroke-width="1" opacity="1" d="M 73 228 L 100 228 L 100 284 L 73 284 L 73 228 Z " /><path fill="rgb(0,0,0)" stroke="rgb(0,0,0)" stroke-width="1" opacity="1" d="M 412 228 L 439 228 L 439 284 L 412 284 L 412 228 Z " /><path fill="rgb(0,0,0)" stroke="rgb(0,0,0)" stroke-width="1" opacity="1" d="M 101 285 L 128 285 L 128 312 L 101 312 L 101 285 Z " /><path fill="rgb(0,0,0)" stroke="rgb(0,0,0)" stroke-width="1" opacity="1" d="M 384 285 L 411 285 L 411 312 L 384 312 L 384 285 Z " /><path fill="rgb(0,0,0)" stroke="rgb(0,0,0)" stroke-width="1" opacity="1" d="M 129 313 L 157 313 L 157 340 L 129 340 L 129 313 Z " /><path fill="rgb(0,0,0)" stroke="rgb(0,0,0)" stroke-width="1" opacity="1" d="M 355 313 L 383 313 L 383 340 L 355 340 L 355 313 Z " /><path fill="rgb(0,0,0)" stroke="rgb(0,0,0)" stroke-width="1" opacity="1" d="M 157 341 L 185 341 L 185 369 L 157 369 L 157 341 Z " /><path fill="rgb(0,0,0)" stroke="rgb(0,0,0)" stroke-width="1" opacity="1" d="M 327 341 L 355 341 L 355 369 L 327 369 L 327 341 Z " /><path fill="rgb(0,0,0)" stroke="rgb(0,0,0)" stroke-width="1" opacity="1" d="M 186 370 L 213 370 L 213 397 L 186 397 L 186 370 Z " /><path fill="rgb(0,0,0)" stroke="rgb(0,0,0)" stroke-width="1" opacity="1" d="M 299 370 L 326 370 L 326 397 L 299 397 L 299 370 Z " /><path fill="rgb(0,0,0)" stroke="rgb(0,0,0)" stroke-width="1" opacity="1" d="M 214 398 L 241 398 L 241 425 L 214 425 L 214 398 Z " /><path fill="rgb(0,0,0)" stroke="rgb(0,0,0)" stroke-width="1" opacity="1" d="M 271 398 L 298 398 L 298 425 L 271 425 L 271 398 Z " /><path fill="rgb(0,0,0)" stroke="rgb(0,0,0)" stroke-width="1" opacity="1" d="M 242 426 L 270 426 L 270 454 L 242 454 L 242 426 Z " /></svg>