<svg width="512" height="512" version="1.1" xmlns="http://www.w3.org/2000/svg" desc="Created with imagetracer.js version 1.2.6" ><path fill="rgb(245,239,208)" stroke="rgb(245,239,208)" stroke-width="1" opacity="1" d="M 239.5 22 L 272.5 22 L 273.5 23 L 283.5 23 L 284.5 24 L 296.5 25 L 328.5 33 L 349.5 41 Q 399.5 63.5 433 102.5 Q 451.8 123.7 465 150.5 L 463 149.5 Q 447.9 123.1 425.5 104 Q 406.5 87 383.5 74 L 383 76.5 L 384 77.5 L 384 85.5 L 378.5 94 Q 374.2 97.7 364.5 96 Q 354.1 92.9 348 85.5 Q 341.2 78.8 341 65.5 L 345 57.5 L 331.5 53 L 329.5 54 L 322.5 50 L 291.5 44 L 269.5 43 L 268.5 42 L 243.5 42 L 242.5 43 L 220.5 44 L 197.5 48 Q 169.8 54.3 146.5 65 Q 99.9 86.4 68 122.5 L 47.5 151 L 48 149.5 Q 69 107 103.5 78 Q 131.9 53.4 169.5 38 L 205.5 27 L 228.5 23 L 238.5 23 L 239.5 22 Z " /><path fill="rgb(245,239,208)" stroke="rgb(245,239,208)" stroke-width="1" opacity="1" d="M 390.5 85 Q 398.3 85.7 402 90.5 Q 406.3 93.7 405 102.5 L 402.5 106 L 395.5 107 L 388 103 L 385 98.5 L 384 90.5 L 387.5 86 L 390.5 85 Z " /><path fill="rgb(245,239,208)" stroke="rgb(245,239,208)" stroke-width="1" opacity="1" d="M 213.5 267 L 298.5 267 L 299.5 268 L 341.5 269 L 342.5 270 L 355.5 270 L 356.5 271 L 367.5 271 L 368.5 272 L 394.5 274 L 416.5 278 L 426 281 L 425 298 L 87.5 298 Q 86.4 297.9 87 292.5 L 86 291.5 L 86 281 L 95.5 278 L 118.5 274 L 124.5 274 L 125.5 273 L 155.5 271 L 156.5 270 L 169.5 270 L 170.5 269 L 212.5 268 L 213.5 267 Z " /><path fill="rgb(254,210,99)" stroke="rgb(254,210,99)" stroke-width="1" opacity="1" d="M 99.5 81 L 98.5 83 L 99.5 81 Z " /><path fill="rgb(254,210,99)" stroke="rgb(254,210,99)" stroke-width="1" opacity="1" d="M 412.5 81 L 413.5 83 L 412.5 81 Z " /><path fill="rgb(254,210,99)" stroke="rgb(254,210,99)" stroke-width="1" opacity="1" d="M 82.5 98 L 81.5 100 L 82.5 98 Z " /><path fill="rgb(254,210,99)" stroke="rgb(254,210,99)" stroke-width="1" opacity="1" d="M 429.5 98 L 430.5 100 L 429.5 98 Z " /><path fill="rgb(254,210,99)" stroke="rgb(254,210,99)" stroke-width="1" opacity="1" d="M 180.5 157 L 181.5 159 L 180.5 157 Z " /><path fill="rgb(254,210,99)" stroke="rgb(254,210,99)" stroke-width="1" opacity="1" d="M 331.5 157 L 330.5 159 L 331.5 157 Z " /><path fill="rgb(254,210,99)" stroke="rgb(254,210,99)" stroke-width="1" opacity="1" d="M 184.5 160 L 186.5 163 L 184.5 160 Z " /><path fill="rgb(254,210,99)" stroke="rgb(254,210,99)" stroke-width="1" opacity="1" d="M 327.5 160 L 325.5 163 L 327.5 160 Z " /><path fill="rgb(254,210,99)" stroke="rgb(254,210,99)" stroke-width="1" opacity="1" d="M 193.5 169 L 194.5 171 L 193.5 169 Z " /><path fill="rgb(254,210,99)" stroke="rgb(254,210,99)" stroke-width="1" opacity="1" d="M 318.5 169 L 317.5 171 L 318.5 169 Z " /><path fill="rgb(254,210,99)" stroke="rgb(254,210,99)" stroke-width="1" opacity="1" d="M 168.5 176 L 169.5 178 L 168.5 176 Z " /><path fill="rgb(254,210,99)" stroke="rgb(254,210,99)" stroke-width="1" opacity="1" d="M 343.5 176 L 342.5 178 L 343.5 176 Z " /><path fill="rgb(254,210,99)" stroke="rgb(254,210,99)" stroke-width="1" opacity="1" d="M 156.5 203 L 159 203.5 L 156.5 204 L 156.5 203 Z " /><path fill="rgb(254,210,99)" stroke="rgb(254,210,99)" stroke-width="1" opacity="1" d="M 353.5 203 L 356 203.5 L 353.5 204 L 353.5 203 Z " /><path fill="rgb(254,210,99)" stroke="rgb(254,210,99)" stroke-width="1" opacity="1" d="M 110.5 211 L 111.5 213 L 110.5 211 Z " /><path fill="rgb(254,210,99)" stroke="rgb(254,210,99)" stroke-width="1" opacity="1" d="M 401.5 211 L 400.5 213 L 401.5 211 Z " /><path fill="rgb(254,210,99)" stroke="rgb(254,210,99)" stroke-width="1" opacity="1" d="M 209.5 245 L 213 245.5 L 209.5 246 L 209.5 245 Z " /><path fill="rgb(254,210,99)" stroke="rgb(254,210,99)" stroke-width="1" opacity="1" d="M 299.5 245 L 303 245.5 L 299.5 246 L 299.5 245 Z " /><path fill="rgb(254,210,99)" stroke="rgb(254,210,99)" stroke-width="1" opacity="1" d="M 489.5 260 L 490 265.5 L 489 265.5 L 489.5 260 Z " /><path fill="rgb(254,210,99)" stroke="rgb(254,210,99)" stroke-width="1" opacity="1" d="M 22.5 261 L 23 265.5 L 22 265.5 L 22.5 261 Z " /><path fill="rgb(254,210,99)" stroke="rgb(254,210,99)" stroke-width="1" opacity="1" d="M 69.5 265 L 68.5 267 L 69.5 265 Z " /><path fill="rgb(254,210,99)" stroke="rgb(254,210,99)" stroke-width="1" opacity="1" d="M 442.5 265 L 445.5 269 L 442.5 265 Z " /><path fill="rgb(254,210,99)" stroke="rgb(254,210,99)" stroke-width="1" opacity="1" d="M 488.5 269 L 489 272.5 L 488 272.5 L 488.5 269 Z " /><path fill="rgb(254,210,99)" stroke="rgb(254,210,99)" stroke-width="1" opacity="1" d="M 23.5 270 L 24 272.5 L 23 272.5 L 23.5 270 Z " /><path fill="rgb(254,210,99)" stroke="rgb(254,210,99)" stroke-width="1" opacity="1" d="M 24.5 276 L 25 278.5 L 24 278.5 L 24.5 276 Z " /><path fill="rgb(254,210,99)" stroke="rgb(254,210,99)" stroke-width="1" opacity="1" d="M 27.5 289 L 28 291.5 L 27 291.5 L 27.5 289 Z " /><path fill="rgb(254,210,99)" stroke="rgb(254,210,99)" stroke-width="1" opacity="1" d="M 39.5 322 L 43 328.5 L 41 327.5 L 39.5 322 Z " /><path fill="rgb(254,210,99)" stroke="rgb(254,210,99)" stroke-width="1" opacity="1" d="M 472.5 322 L 473 323.5 L 469.5 329 L 470 327.5 L 472.5 322 Z " /><path fill="rgb(254,210,99)" stroke="rgb(254,210,99)" stroke-width="1" opacity="1" d="M 46.5 336 L 47.5 338 L 46.5 336 Z " /><path fill="rgb(254,210,99)" stroke="rgb(254,210,99)" stroke-width="1" opacity="1" d="M 465.5 336 L 464.5 338 L 465.5 336 Z " /><path fill="rgb(254,210,99)" stroke="rgb(254,210,99)" stroke-width="1" opacity="1" d="M 48.5 339 L 51 342.5 L 49 341.5 L 48.5 339 Z " /><path fill="rgb(254,210,99)" stroke="rgb(254,210,99)" stroke-width="1" opacity="1" d="M 462.5 341 L 461.5 343 L 462.5 341 Z " /><path fill="rgb(254,210,99)" stroke="rgb(254,210,99)" stroke-width="1" opacity="1" d="M 51.5 344 L 52.5 346 L 51.5 344 Z " /><path fill="rgb(254,210,99)" stroke="rgb(254,210,99)" stroke-width="1" opacity="1" d="M 460.5 344 L 459.5 346 L 460.5 344 Z " /><path fill="rgb(254,210,99)" stroke="rgb(254,210,99)" stroke-width="1" opacity="1" d="M 53.5 347 L 54.5 349 L 53.5 347 Z " /><path fill="rgb(254,210,99)" stroke="rgb(254,210,99)" stroke-width="1" opacity="1" d="M 458.5 347 L 457.5 349 L 458.5 347 Z " /><path fill="rgb(254,210,99)" stroke="rgb(254,210,99)" stroke-width="1" opacity="1" d="M 55.5 350 L 57.5 353 L 55.5 350 Z " /><path fill="rgb(254,210,99)" stroke="rgb(254,210,99)" stroke-width="1" opacity="1" d="M 456.5 350 L 454.5 353 L 456.5 350 Z " /><path fill="rgb(254,210,99)" stroke="rgb(254,210,99)" stroke-width="1" opacity="1" d="M 84.5 351 L 85.5 353 L 84.5 351 Z " /><path fill="rgb(254,210,99)" stroke="rgb(254,210,99)" stroke-width="1" opacity="1" d="M 427.5 351 L 426.5 353 L 427.5 351 Z " /><path fill="rgb(254,210,99)" stroke="rgb(254,210,99)" stroke-width="1" opacity="1" d="M 58.5 354 L 60.5 357 L 58.5 354 Z " /><path fill="rgb(254,210,99)" stroke="rgb(254,210,99)" stroke-width="1" opacity="1" d="M 453.5 354 L 451.5 357 L 453.5 354 Z " /><path fill="rgb(254,210,99)" stroke="rgb(254,210,99)" stroke-width="1" opacity="1" d="M 61.5 358 L 64.5 362 L 61.5 358 Z " /><path fill="rgb(254,210,99)" stroke="rgb(254,210,99)" stroke-width="1" opacity="1" d="M 450.5 358 L 448.5 361 L 450.5 358 Z " /><path fill="rgb(254,210,99)" stroke="rgb(254,210,99)" stroke-width="1" opacity="1" d="M 90.5 360 L 91.5 362 L 90.5 360 Z " /><path fill="rgb(254,210,99)" stroke="rgb(254,210,99)" stroke-width="1" opacity="1" d="M 421.5 360 L 420.5 362 L 421.5 360 Z " /><path fill="rgb(254,210,99)" stroke="rgb(254,210,99)" stroke-width="1" opacity="1" d="M 65.5 363 L 69.5 368 L 65.5 363 Z " /><path fill="rgb(254,210,99)" stroke="rgb(254,210,99)" stroke-width="1" opacity="1" d="M 446.5 363 L 442.5 368 L 446.5 363 Z " /><path fill="rgb(254,210,99)" stroke="rgb(254,210,99)" stroke-width="1" opacity="1" d="M 93.5 364 L 94.5 366 L 93.5 364 Z " /><path fill="rgb(254,210,99)" stroke="rgb(254,210,99)" stroke-width="1" opacity="1" d="M 418.5 364 L 417.5 366 L 418.5 364 Z " /><path fill="rgb(254,210,99)" stroke="rgb(254,210,99)" stroke-width="1" opacity="1" d="M 97.5 369 L 99.5 372 L 97.5 369 Z " /><path fill="rgb(254,210,99)" stroke="rgb(254,210,99)" stroke-width="1" opacity="1" d="M 414.5 369 L 412.5 372 L 414.5 369 Z " /><path fill="rgb(254,210,99)" stroke="rgb(254,210,99)" stroke-width="1" opacity="1" d="M 71.5 370 L 84.5 384 L 71.5 370 Z " /><path fill="rgb(254,210,99)" stroke="rgb(254,210,99)" stroke-width="1" opacity="1" d="M 439.5 371 L 426.5 385 L 439.5 371 Z " /><path fill="rgb(254,210,99)" stroke="rgb(254,210,99)" stroke-width="1" opacity="1" d="M 113.5 385 L 115.5 388 L 113.5 385 Z " /><path fill="rgb(254,210,99)" stroke="rgb(254,210,99)" stroke-width="1" opacity="1" d="M 398.5 385 L 396.5 388 L 398.5 385 Z " /><path fill="rgb(254,210,99)" stroke="rgb(254,210,99)" stroke-width="1" opacity="1" d="M 88.5 386 L 92.5 391 L 88.5 386 Z " /><path fill="rgb(254,210,99)" stroke="rgb(254,210,99)" stroke-width="1" opacity="1" d="M 423.5 386 L 418.5 392 L 423.5 386 Z " /><path fill="rgb(254,210,99)" stroke="rgb(254,210,99)" stroke-width="1" opacity="1" d="M 119.5 390 L 120.5 392 L 119.5 390 Z " /><path fill="rgb(254,210,99)" stroke="rgb(254,210,99)" stroke-width="1" opacity="1" d="M 392.5 390 L 391.5 392 L 392.5 390 Z " /><path fill="rgb(254,210,99)" stroke="rgb(254,210,99)" stroke-width="1" opacity="1" d="M 95.5 392 L 98.5 396 L 95.5 392 Z " /><path fill="rgb(254,210,99)" stroke="rgb(254,210,99)" stroke-width="1" opacity="1" d="M 416.5 392 L 413.5 396 L 416.5 392 Z " /><path fill="rgb(254,210,99)" stroke="rgb(254,210,99)" stroke-width="1" opacity="1" d="M 387.5 394 L 386.5 396 L 387.5 394 Z " /><path fill="rgb(254,210,99)" stroke="rgb(254,210,99)" stroke-width="1" opacity="1" d="M 100.5 396 L 110 403.5 L 107.5 402 Q 102 399.9 100.5 396 Z " /><path fill="rgb(254,210,99)" stroke="rgb(254,210,99)" stroke-width="1" opacity="1" d="M 411.5 396 L 409.5 399 L 411.5 396 Z " /><path fill="rgb(254,210,99)" stroke="rgb(254,210,99)" stroke-width="1" opacity="1" d="M 407.5 399 L 405.5 402 L 402.5 404 L 404.5 401 L 407.5 399 Z " /><path fill="rgb(254,210,99)" stroke="rgb(254,210,99)" stroke-width="1" opacity="1" d="M 111.5 404 L 112.5 406 L 111.5 404 Z " /><path fill="rgb(254,210,99)" stroke="rgb(254,210,99)" stroke-width="1" opacity="1" d="M 400.5 404 L 399.5 406 L 400.5 404 Z " /><path fill="rgb(254,210,99)" stroke="rgb(254,210,99)" stroke-width="1" opacity="1" d="M 114.5 406 L 115.5 408 L 114.5 406 Z " /><path fill="rgb(254,210,99)" stroke="rgb(254,210,99)" stroke-width="1" opacity="1" d="M 397.5 406 L 396.5 408 L 397.5 406 Z " /><path fill="rgb(254,210,99)" stroke="rgb(254,210,99)" stroke-width="1" opacity="1" d="M 117.5 408 L 121 410.5 L 119.5 410 L 117.5 408 Z " /><path fill="rgb(254,210,99)" stroke="rgb(254,210,99)" stroke-width="1" opacity="1" d="M 394.5 408 L 393.5 410 L 394.5 408 Z " /><path fill="rgb(254,210,99)" stroke="rgb(254,210,99)" stroke-width="1" opacity="1" d="M 122.5 411 L 126 413.5 L 124.5 413 L 122.5 411 Z " /><path fill="rgb(254,210,99)" stroke="rgb(254,210,99)" stroke-width="1" opacity="1" d="M 389.5 411 L 388.5 413 L 389.5 411 Z " /><path fill="rgb(254,210,99)" stroke="rgb(254,210,99)" stroke-width="1" opacity="1" d="M 129.5 415 L 135 418.5 L 133.5 418 Q 129.5 417.5 129.5 415 Z " /><path fill="rgb(254,210,99)" stroke="rgb(254,210,99)" stroke-width="1" opacity="1" d="M 382.5 415 L 381.5 417 L 379.5 418 L 380.5 416 L 382.5 415 Z " /><path fill="rgb(254,210,99)" stroke="rgb(254,210,99)" stroke-width="1" opacity="1" d="M 144.5 423 L 148 424.5 L 146.5 425 L 144.5 423 Z " /><path fill="rgb(254,210,99)" stroke="rgb(254,210,99)" stroke-width="1" opacity="1" d="M 366.5 423 L 368 423.5 L 362.5 426 L 362.5 425 L 366.5 423 Z " /><path fill="rgb(254,210,99)" stroke="rgb(254,210,99)" stroke-width="1" opacity="1" d="M 357.5 427 L 359 427.5 L 355.5 429 L 355.5 428 L 357.5 427 Z " /><path fill="rgb(254,210,99)" stroke="rgb(254,210,99)" stroke-width="1" opacity="1" d="M 246.5 437 L 249 437.5 L 246.5 438 L 246.5 437 Z " /><path fill="rgb(254,210,99)" stroke="rgb(254,210,99)" stroke-width="1" opacity="1" d="M 263.5 437 L 266 437.5 L 263.5 438 L 263.5 437 Z " /><path fill="rgb(254,210,99)" stroke="rgb(254,210,99)" stroke-width="1" opacity="1" d="M 328.5 437 L 331 437.5 L 328.5 438 L 328.5 437 Z " /><path fill="rgb(254,210,99)" stroke="rgb(254,210,99)" stroke-width="1" opacity="1" d="M 197.5 441 L 200 441.5 L 197.5 442 L 197.5 441 Z " /><path fill="rgb(254,210,99)" stroke="rgb(254,210,99)" stroke-width="1" opacity="1" d="M 308.5 442 L 311 442.5 L 308.5 443 L 308.5 442 Z " /><path fill="rgb(254,210,99)" stroke="rgb(254,210,99)" stroke-width="1" opacity="1" d="M 213.5 444 L 216 444.5 L 213.5 445 L 213.5 444 Z " /><path fill="rgb(254,210,99)" stroke="rgb(254,210,99)" stroke-width="1" opacity="1" d="M 296.5 444 L 300 444.5 L 296.5 445 L 296.5 444 Z " /><path fill="rgb(254,210,99)" stroke="rgb(254,210,99)" stroke-width="1" opacity="1" d="M 219.5 445 L 223 445.5 L 219.5 446 L 219.5 445 Z " /><path fill="rgb(254,210,99)" stroke="rgb(254,210,99)" stroke-width="1" opacity="1" d="M 289.5 445 L 293 445.5 L 289.5 446 L 289.5 445 Z " /><path fill="rgb(254,210,99)" stroke="rgb(254,210,99)" stroke-width="1" opacity="1" d="M 228.5 446 L 232 446.5 L 228.5 447 L 228.5 446 Z " /><path fill="rgb(254,210,99)" stroke="rgb(254,210,99)" stroke-width="1" opacity="1" d="M 280.5 446 L 284 446.5 L 280.5 447 L 280.5 446 Z " /><path fill="rgb(254,210,99)" stroke="rgb(254,210,99)" stroke-width="1" opacity="1" d="M 240.5 447 L 255 447.5 L 240.5 448 L 240.5 447 Z " /><path fill="rgb(254,210,99)" stroke="rgb(254,210,99)" stroke-width="1" opacity="1" d="M 257.5 447 L 272 447.5 L 257.5 448 L 257.5 447 Z " /><path fill="rgb(0,0,0)" stroke="rgb(0,0,0)" stroke-width="1" opacity="0" d="M 0 0 L 238 0.5 L 219.5 2 L 186.5 9 L 146.5 24 Q 101.4 45.9 69 80.5 Q 38.7 112.2 20 155.5 L 12 176.5 L 5 202.5 L 2 219.5 L 0.5 238 L 0 0 Z " /><path fill="rgb(0,0,0)" stroke="rgb(0,0,0)" stroke-width="1" opacity="0" d="M 274.5 0 L 512 0 L 512 237.5 L 511 237.5 L 510 219.5 L 503 186.5 L 488 146.5 Q 467.6 104.9 436.5 74 Q 407 44.5 367.5 25 Q 347.9 15.5 325.5 9 L 292.5 2 L 274.5 1 L 274.5 0 Z " /><path fill="rgb(0,0,0)" stroke="rgb(0,0,0)" stroke-width="1" opacity="0" d="M 0.5 274 L 2 292.5 L 9 325.5 L 24 365.5 Q 45.8 410.8 80.5 443 Q 112.3 473.2 155.5 492 L 198.5 506 L 227.5 511 L 238 511.5 L 0 512 L 0.5 274 Z " /><path fill="rgb(0,0,0)" stroke="rgb(0,0,0)" stroke-width="1" opacity="0" d="M 511.5 274 L 512 512 L 274 511.5 L 292.5 510 L 325.5 503 L 365.5 488 Q 410.1 466.6 442 432.5 Q 472.9 400.4 492 356.5 L 506 313.5 L 510 292.5 L 511.5 274 Z " /><path fill="rgb(255,211,100)" stroke="rgb(255,211,100)" stroke-width="1" opacity="1" d="M 243.5 42 L 268.5 42 L 269.5 43 L 291.5 44 L 322.5 50 L 330.5 54 L 333.5 53 L 345 57.5 L 341 65.5 L 341 70.5 Q 343.5 82.5 351.5 89 L 364.5 96 L 374.5 96 L 381 91.5 Q 385.3 87.3 384 77.5 L 383 74.5 L 385.5 76 Q 419.6 94.4 444 122.5 L 461.5 146 L 463 145.5 L 462 147.5 L 464 147.5 L 463 149.5 L 465 149.5 L 464.5 151 L 466 151.5 L 465.5 153 Q 467.8 152.3 467 154.5 Q 478.7 177.3 485 205.5 L 488 221.5 L 488 228.5 L 489 229.5 L 489 238.5 L 490 239.5 L 490 259.5 L 489 260.5 L 488 275.5 L 482 299.5 Q 475.6 319.1 466 335.5 Q 449 364.5 424.5 386 Q 390.1 417.1 341.5 434 L 302.5 444 L 280.5 446 L 279.5 447 L 257.5 447 L 255.5 448 L 254.5 447 L 232.5 447 L 231.5 446 L 209.5 444 L 176.5 436 L 154.5 428 Q 104 406.5 70 368.5 Q 45.8 342.2 32 305.5 L 26 285.5 L 23 269.5 L 22 239.5 L 23 238.5 L 23 228.5 L 24 227.5 L 25 215.5 L 30 193.5 Q 36.3 171.5 45 153 L 47 152.5 L 46.5 151 L 48 150.5 L 47.5 149 L 49 149.5 L 48 147.5 L 50 147.5 L 49 145.5 L 52 144.5 Q 66.7 120.7 87.5 103 Q 119.6 74.6 163.5 58 L 202.5 47 L 213.5 46 L 220.5 44 L 228.5 44 L 229.5 43 L 242.5 43 L 243.5 42 Z M 391 85 L 388 86 L 384 91 L 385 99 L 388 103 L 396 107 L 403 106 L 405 103 Q 406 94 402 91 Q 398 86 391 85 Z M 117 138 L 117 160 L 123 161 L 132 161 L 145 164 Q 161 170 173 181 L 151 181 L 150 182 L 139 182 L 138 183 L 126 184 L 109 189 L 101 194 L 112 213 L 123 208 L 136 205 L 159 204 L 160 203 L 196 203 L 198 202 L 203 196 L 203 187 L 195 171 Q 170 140 117 138 Z M 387 138 L 386 139 L 372 140 L 355 145 Q 339 151 328 160 Q 315 170 309 187 Q 308 194 310 198 L 317 203 L 369 204 L 390 208 L 401 213 L 411 194 L 404 189 L 387 184 L 375 183 L 374 182 L 363 182 L 362 181 L 339 181 Q 351 170 368 164 L 381 161 L 390 161 L 395 160 L 395 138 L 387 138 Z M 210 245 L 209 246 L 187 246 L 186 247 L 156 248 L 155 249 L 145 249 L 144 250 L 134 250 L 133 251 L 124 251 L 116 253 L 110 253 L 89 257 L 77 261 L 70 265 L 64 273 L 64 295 L 68 315 L 73 330 Q 82 352 97 370 Q 124 400 164 418 L 187 427 L 209 433 L 226 436 L 233 436 L 234 437 L 246 437 L 247 438 L 266 438 L 267 437 L 279 437 L 280 436 L 299 434 L 316 430 L 337 423 Q 371 410 397 388 Q 419 369 433 343 L 444 315 L 448 294 L 448 273 L 446 269 L 440 263 L 424 257 L 403 253 L 390 252 L 389 251 L 380 251 L 379 250 L 370 250 L 369 249 L 344 248 L 343 247 L 327 247 L 326 246 L 304 246 L 303 245 L 210 245 Z " /><path fill="rgb(255,211,100)" stroke="rgb(255,211,100)" stroke-width="1" opacity="1" d="M 122.5 63 L 121.5 65 L 122.5 63 Z " /><path fill="rgb(255,211,100)" stroke="rgb(255,211,100)" stroke-width="1" opacity="1" d="M 389.5 63 L 390.5 65 L 389.5 63 Z " /><path fill="rgb(255,211,100)" stroke="rgb(255,211,100)" stroke-width="1" opacity="1" d="M 396.5 68 L 397.5 70 L 396.5 68 Z " /><path fill="rgb(255,211,100)" stroke="rgb(255,211,100)" stroke-width="1" opacity="1" d="M 110.5 72 L 109.5 74 L 110.5 72 Z " /><path fill="rgb(255,211,100)" stroke="rgb(255,211,100)" stroke-width="1" opacity="1" d="M 401.5 72 L 402.5 74 L 401.5 72 Z " /><path fill="rgb(255,211,100)" stroke="rgb(255,211,100)" stroke-width="1" opacity="1" d="M 105.5 76 L 104.5 78 L 105.5 76 Z " /><path fill="rgb(255,211,100)" stroke="rgb(255,211,100)" stroke-width="1" opacity="1" d="M 406.5 76 L 408.5 79 L 406.5 76 Z " /><path fill="rgb(255,211,100)" stroke="rgb(255,211,100)" stroke-width="1" opacity="1" d="M 97.5 83 L 83.5 98 L 97.5 83 Z " /><path fill="rgb(255,211,100)" stroke="rgb(255,211,100)" stroke-width="1" opacity="1" d="M 414.5 83 L 428.5 98 L 414.5 83 Z " /><path fill="rgb(255,211,100)" stroke="rgb(255,211,100)" stroke-width="1" opacity="1" d="M 433.5 103 L 435.5 106 L 433.5 103 Z " /><path fill="rgb(255,211,100)" stroke="rgb(255,211,100)" stroke-width="1" opacity="1" d="M 77.5 104 L 76.5 106 L 77.5 104 Z " /><path fill="rgb(255,211,100)" stroke="rgb(255,211,100)" stroke-width="1" opacity="1" d="M 73.5 109 L 72.5 111 L 73.5 109 Z " /><path fill="rgb(255,211,100)" stroke="rgb(255,211,100)" stroke-width="1" opacity="1" d="M 438.5 109 L 439.5 111 L 438.5 109 Z " /><path fill="rgb(255,211,100)" stroke="rgb(255,211,100)" stroke-width="1" opacity="1" d="M 64.5 121 L 63.5 123 L 64.5 121 Z " /><path fill="rgb(255,211,100)" stroke="rgb(255,211,100)" stroke-width="1" opacity="1" d="M 447.5 121 L 448.5 123 L 447.5 121 Z " /><path fill="rgb(97,51,66)" stroke="rgb(97,51,66)" stroke-width="1" opacity="1" d="M 241.5 21 L 246 21.5 L 241.5 22 L 241.5 21 Z " /><path fill="rgb(97,51,66)" stroke="rgb(97,51,66)" stroke-width="1" opacity="1" d="M 266.5 21 L 272 21.5 L 266.5 22 L 266.5 21 Z " /><path fill="rgb(97,51,66)" stroke="rgb(97,51,66)" stroke-width="1" opacity="1" d="M 229.5 22 L 232 22.5 L 229.5 23 L 229.5 22 Z " /><path fill="rgb(97,51,66)" stroke="rgb(97,51,66)" stroke-width="1" opacity="1" d="M 280.5 22 L 283 22.5 L 280.5 23 L 280.5 22 Z " /><path fill="rgb(97,51,66)" stroke="rgb(97,51,66)" stroke-width="1" opacity="1" d="M 393.5 65 L 394.5 67 L 393.5 65 Z " /><path fill="rgb(97,51,66)" stroke="rgb(97,51,66)" stroke-width="1" opacity="1" d="M 114.5 68 L 113.5 70 L 114.5 68 Z " /><path fill="rgb(97,51,66)" stroke="rgb(97,51,66)" stroke-width="1" opacity="1" d="M 110.5 71 L 109.5 73 L 110.5 71 Z " /><path fill="rgb(97,51,66)" stroke="rgb(97,51,66)" stroke-width="1" opacity="1" d="M 401.5 71 L 402.5 73 L 401.5 71 Z " /><path fill="rgb(97,51,66)" stroke="rgb(97,51,66)" stroke-width="1" opacity="1" d="M 406.5 75 L 408.5 78 L 406.5 75 Z " /><path fill="rgb(97,51,66)" stroke="rgb(97,51,66)" stroke-width="1" opacity="1" d="M 104.5 76 L 103.5 78 L 104.5 76 Z " /><path fill="rgb(97,51,66)" stroke="rgb(97,51,66)" stroke-width="1" opacity="1" d="M 414.5 82 L 429.5 98 L 414.5 82 Z " /><path fill="rgb(97,51,66)" stroke="rgb(97,51,66)" stroke-width="1" opacity="1" d="M 96.5 83 L 82.5 98 L 96.5 83 Z " /><path fill="rgb(97,51,66)" stroke="rgb(97,51,66)" stroke-width="1" opacity="1" d="M 77.5 103 L 76.5 105 L 77.5 103 Z " /><path fill="rgb(97,51,66)" stroke="rgb(97,51,66)" stroke-width="1" opacity="1" d="M 434.5 103 L 435.5 105 L 434.5 103 Z " /><path fill="rgb(97,51,66)" stroke="rgb(97,51,66)" stroke-width="1" opacity="1" d="M 72.5 109 L 71.5 111 L 72.5 109 Z " /><path fill="rgb(97,51,66)" stroke="rgb(97,51,66)" stroke-width="1" opacity="1" d="M 439.5 109 L 440.5 111 L 439.5 109 Z " /><path fill="rgb(97,51,66)" stroke="rgb(97,51,66)" stroke-width="1" opacity="1" d="M 69.5 113 L 68.5 115 L 69.5 113 Z " /><path fill="rgb(97,51,66)" stroke="rgb(97,51,66)" stroke-width="1" opacity="1" d="M 442.5 113 L 443.5 115 L 442.5 113 Z " /><path fill="rgb(97,51,66)" stroke="rgb(97,51,66)" stroke-width="1" opacity="1" d="M 445.5 117 L 446.5 119 L 445.5 117 Z " /><path fill="rgb(97,51,66)" stroke="rgb(97,51,66)" stroke-width="1" opacity="1" d="M 127.5 160 L 130 160.5 L 127.5 161 L 127.5 160 Z " /><path fill="rgb(97,51,66)" stroke="rgb(97,51,66)" stroke-width="1" opacity="1" d="M 183.5 160 L 184.5 162 L 183.5 160 Z " /><path fill="rgb(97,51,66)" stroke="rgb(97,51,66)" stroke-width="1" opacity="1" d="M 328.5 160 L 327.5 162 L 328.5 160 Z " /><path fill="rgb(97,51,66)" stroke="rgb(97,51,66)" stroke-width="1" opacity="1" d="M 382.5 160 L 385 160.5 L 382.5 161 L 382.5 160 Z " /><path fill="rgb(97,51,66)" stroke="rgb(97,51,66)" stroke-width="1" opacity="1" d="M 159.5 181 L 175 181.5 L 159.5 182 L 159.5 181 Z " /><path fill="rgb(97,51,66)" stroke="rgb(97,51,66)" stroke-width="1" opacity="1" d="M 337.5 181 L 354 181.5 L 337.5 182 L 337.5 181 Z " /><path fill="rgb(97,51,66)" stroke="rgb(97,51,66)" stroke-width="1" opacity="1" d="M 142.5 182 L 145 182.5 L 142.5 183 L 142.5 182 Z " /><path fill="rgb(97,51,66)" stroke="rgb(97,51,66)" stroke-width="1" opacity="1" d="M 367.5 182 L 371 182.5 L 367.5 183 L 367.5 182 Z " /><path fill="rgb(97,51,66)" stroke="rgb(97,51,66)" stroke-width="1" opacity="1" d="M 202.5 188 L 203 193.5 L 202 193.5 L 202.5 188 Z " /><path fill="rgb(97,51,66)" stroke="rgb(97,51,66)" stroke-width="1" opacity="1" d="M 309.5 188 L 310 193.5 L 309 193.5 L 309.5 188 Z " /><path fill="rgb(97,51,66)" stroke="rgb(97,51,66)" stroke-width="1" opacity="1" d="M 200.5 198 L 198.5 201 L 200.5 198 Z " /><path fill="rgb(97,51,66)" stroke="rgb(97,51,66)" stroke-width="1" opacity="1" d="M 311.5 198 L 313.5 201 L 311.5 198 Z " /><path fill="rgb(97,51,66)" stroke="rgb(97,51,66)" stroke-width="1" opacity="1" d="M 147.5 203 L 152 203.5 L 147.5 204 L 147.5 203 Z " /><path fill="rgb(97,51,66)" stroke="rgb(97,51,66)" stroke-width="1" opacity="1" d="M 360.5 203 L 365 203.5 L 360.5 204 L 360.5 203 Z " /><path fill="rgb(97,51,66)" stroke="rgb(97,51,66)" stroke-width="1" opacity="1" d="M 137.5 204 L 140 204.5 L 137.5 205 L 137.5 204 Z " /><path fill="rgb(97,51,66)" stroke="rgb(97,51,66)" stroke-width="1" opacity="1" d="M 372.5 204 L 375 204.5 L 372.5 205 L 372.5 204 Z " /><path fill="rgb(97,51,66)" stroke="rgb(97,51,66)" stroke-width="1" opacity="1" d="M 489.5 229 L 490 232.5 L 489 232.5 L 489.5 229 Z " /><path fill="rgb(97,51,66)" stroke="rgb(97,51,66)" stroke-width="1" opacity="1" d="M 21.5 241 L 22 246.5 L 21 246.5 L 21.5 241 Z " /><path fill="rgb(97,51,66)" stroke="rgb(97,51,66)" stroke-width="1" opacity="1" d="M 490.5 241 L 491 246.5 L 490 246.5 L 490.5 241 Z " /><path fill="rgb(97,51,66)" stroke="rgb(97,51,66)" stroke-width="1" opacity="1" d="M 232.5 245 L 280 245.5 L 232.5 246 L 232.5 245 Z " /><path fill="rgb(97,51,66)" stroke="rgb(97,51,66)" stroke-width="1" opacity="1" d="M 197.5 246 L 204 246.5 L 197.5 247 L 197.5 246 Z " /><path fill="rgb(97,51,66)" stroke="rgb(97,51,66)" stroke-width="1" opacity="1" d="M 308.5 246 L 315 246.5 L 308.5 247 L 308.5 246 Z " /><path fill="rgb(97,51,66)" stroke="rgb(97,51,66)" stroke-width="1" opacity="1" d="M 177.5 247 L 183 247.5 L 177.5 248 L 177.5 247 Z " /><path fill="rgb(97,51,66)" stroke="rgb(97,51,66)" stroke-width="1" opacity="1" d="M 329.5 247 L 335 247.5 L 329.5 248 L 329.5 247 Z " /><path fill="rgb(97,51,66)" stroke="rgb(97,51,66)" stroke-width="1" opacity="1" d="M 162.5 248 L 167 248.5 L 162.5 249 L 162.5 248 Z " /><path fill="rgb(97,51,66)" stroke="rgb(97,51,66)" stroke-width="1" opacity="1" d="M 345.5 248 L 350 248.5 L 345.5 249 L 345.5 248 Z " /><path fill="rgb(97,51,66)" stroke="rgb(97,51,66)" stroke-width="1" opacity="1" d="M 150.5 249 L 154 249.5 L 150.5 250 L 150.5 249 Z " /><path fill="rgb(97,51,66)" stroke="rgb(97,51,66)" stroke-width="1" opacity="1" d="M 359.5 249 L 363 249.5 L 359.5 250 L 359.5 249 Z " /><path fill="rgb(97,51,66)" stroke="rgb(97,51,66)" stroke-width="1" opacity="1" d="M 138.5 250 L 142 250.5 L 138.5 251 L 138.5 250 Z " /><path fill="rgb(97,51,66)" stroke="rgb(97,51,66)" stroke-width="1" opacity="1" d="M 370.5 250 L 373 250.5 L 370.5 251 L 370.5 250 Z " /><path fill="rgb(97,51,66)" stroke="rgb(97,51,66)" stroke-width="1" opacity="1" d="M 128.5 251 L 132 251.5 L 128.5 252 L 128.5 251 Z " /><path fill="rgb(97,51,66)" stroke="rgb(97,51,66)" stroke-width="1" opacity="1" d="M 380.5 251 L 384 251.5 L 380.5 252 L 380.5 251 Z " /><path fill="rgb(97,51,66)" stroke="rgb(97,51,66)" stroke-width="1" opacity="1" d="M 21.5 264 L 22 270.5 L 21 270.5 L 21.5 264 Z " /><path fill="rgb(97,51,66)" stroke="rgb(97,51,66)" stroke-width="1" opacity="1" d="M 490.5 264 L 491 270.5 L 490 270.5 L 490.5 264 Z " /><path fill="rgb(97,51,66)" stroke="rgb(97,51,66)" stroke-width="1" opacity="1" d="M 70.5 265 L 69.5 267 L 70.5 265 Z " /><path fill="rgb(97,51,66)" stroke="rgb(97,51,66)" stroke-width="1" opacity="1" d="M 441.5 265 L 442.5 267 L 441.5 265 Z " /><path fill="rgb(97,51,66)" stroke="rgb(97,51,66)" stroke-width="1" opacity="1" d="M 230.5 266 L 282 266.5 L 230.5 267 L 230.5 266 Z " /><path fill="rgb(97,51,66)" stroke="rgb(97,51,66)" stroke-width="1" opacity="1" d="M 196.5 267 L 204 267.5 L 196.5 268 L 196.5 267 Z " /><path fill="rgb(97,51,66)" stroke="rgb(97,51,66)" stroke-width="1" opacity="1" d="M 308.5 267 L 316 267.5 L 308.5 268 L 308.5 267 Z " /><path fill="rgb(97,51,66)" stroke="rgb(97,51,66)" stroke-width="1" opacity="1" d="M 176.5 268 L 182 268.5 L 176.5 269 L 176.5 268 Z " /><path fill="rgb(97,51,66)" stroke="rgb(97,51,66)" stroke-width="1" opacity="1" d="M 330.5 268 L 336 268.5 L 330.5 269 L 330.5 268 Z " /><path fill="rgb(97,51,66)" stroke="rgb(97,51,66)" stroke-width="1" opacity="1" d="M 444.5 268 L 445.5 270 L 444.5 268 Z " /><path fill="rgb(97,51,66)" stroke="rgb(97,51,66)" stroke-width="1" opacity="1" d="M 161.5 269 L 165 269.5 L 161.5 270 L 161.5 269 Z " /><path fill="rgb(97,51,66)" stroke="rgb(97,51,66)" stroke-width="1" opacity="1" d="M 347.5 269 L 351 269.5 L 347.5 270 L 347.5 269 Z " /><path fill="rgb(97,51,66)" stroke="rgb(97,51,66)" stroke-width="1" opacity="1" d="M 148.5 270 L 152 270.5 L 148.5 271 L 148.5 270 Z " /><path fill="rgb(97,51,66)" stroke="rgb(97,51,66)" stroke-width="1" opacity="1" d="M 360.5 270 L 364 270.5 L 360.5 271 L 360.5 270 Z " /><path fill="rgb(97,51,66)" stroke="rgb(97,51,66)" stroke-width="1" opacity="1" d="M 138.5 271 L 141 271.5 L 138.5 272 L 138.5 271 Z " /><path fill="rgb(97,51,66)" stroke="rgb(97,51,66)" stroke-width="1" opacity="1" d="M 371.5 271 L 374 271.5 L 371.5 272 L 371.5 271 Z " /><path fill="rgb(97,51,66)" stroke="rgb(97,51,66)" stroke-width="1" opacity="1" d="M 128.5 272 L 131 272.5 L 128.5 273 L 128.5 272 Z " /><path fill="rgb(97,51,66)" stroke="rgb(97,51,66)" stroke-width="1" opacity="1" d="M 381.5 272 L 384 272.5 L 381.5 273 L 381.5 272 Z " /><path fill="rgb(97,51,66)" stroke="rgb(97,51,66)" stroke-width="1" opacity="1" d="M 120.5 273 L 123 273.5 L 120.5 274 L 120.5 273 Z " /><path fill="rgb(97,51,66)" stroke="rgb(97,51,66)" stroke-width="1" opacity="1" d="M 389.5 273 L 392 273.5 L 389.5 274 L 389.5 273 Z " /><path fill="rgb(97,51,66)" stroke="rgb(97,51,66)" stroke-width="1" opacity="1" d="M 22.5 279 L 23 281.5 L 22 281.5 L 22.5 279 Z " /><path fill="rgb(97,51,66)" stroke="rgb(97,51,66)" stroke-width="1" opacity="1" d="M 489.5 279 L 490 281.5 L 489 281.5 L 489.5 279 Z " /><path fill="rgb(97,51,66)" stroke="rgb(97,51,66)" stroke-width="1" opacity="1" d="M 64.5 282 L 65 287.5 L 64 287.5 L 64.5 282 Z " /><path fill="rgb(97,51,66)" stroke="rgb(97,51,66)" stroke-width="1" opacity="1" d="M 447.5 282 L 448 287.5 L 447 287.5 L 447.5 282 Z " /><path fill="rgb(97,51,66)" stroke="rgb(97,51,66)" stroke-width="1" opacity="1" d="M 85.5 284 L 86 287.5 L 85 287.5 L 85.5 284 Z " /><path fill="rgb(97,51,66)" stroke="rgb(97,51,66)" stroke-width="1" opacity="1" d="M 426.5 284 L 427 287.5 L 426 287.5 L 426.5 284 Z " /><path fill="rgb(97,51,66)" stroke="rgb(97,51,66)" stroke-width="1" opacity="1" d="M 488.5 287 L 489 289.5 L 488 289.5 L 488.5 287 Z " /><path fill="rgb(97,51,66)" stroke="rgb(97,51,66)" stroke-width="1" opacity="1" d="M 94 320 L 417.5 320 L 418 321.5 Q 406.6 344.1 387.5 359 L 381.5 362 Q 371.9 354.6 358.5 351 L 323.5 344 L 303.5 343 L 302.5 342 L 285.5 342 L 284.5 341 L 226.5 341 L 225.5 342 L 195.5 343 L 194.5 344 L 186.5 344 L 185.5 345 L 167.5 347 L 145.5 353 L 128.5 362 L 106 340.5 L 96 326.5 L 94 320 Z " /><path fill="rgb(97,51,66)" stroke="rgb(97,51,66)" stroke-width="1" opacity="1" d="M 252.5 362 Q 258.7 360.3 260.5 363 L 292.5 363 L 293.5 364 L 306.5 364 L 307.5 365 L 331.5 367 L 350.5 371 L 362.5 375 L 370 379 Q 371.1 381.7 368.5 381 L 360.5 387 L 337.5 399 L 309.5 409 L 279.5 415 L 270.5 415 L 269.5 416 L 242.5 416 L 241.5 415 L 232.5 415 L 210.5 411 L 184.5 403 Q 161 393.7 142 381 L 143.5 378 L 150.5 374 L 162.5 370 L 183.5 366 L 201.5 365 L 202.5 364 L 215.5 364 L 216.5 363 L 251.5 363 L 252.5 362 Z " /><path fill="rgb(97,51,66)" stroke="rgb(97,51,66)" stroke-width="1" opacity="1" d="M 98.5 369 L 99.5 371 L 98.5 369 Z " /><path fill="rgb(97,51,66)" stroke="rgb(97,51,66)" stroke-width="1" opacity="1" d="M 413.5 369 L 412.5 371 L 413.5 369 Z " /><path fill="rgb(97,51,66)" stroke="rgb(97,51,66)" stroke-width="1" opacity="1" d="M 114.5 385 L 116.5 388 L 114.5 385 Z " /><path fill="rgb(97,51,66)" stroke="rgb(97,51,66)" stroke-width="1" opacity="1" d="M 397.5 385 L 395.5 388 L 397.5 385 Z " /><path fill="rgb(97,51,66)" stroke="rgb(97,51,66)" stroke-width="1" opacity="1" d="M 120.5 390 L 121.5 392 L 120.5 390 Z " /><path fill="rgb(97,51,66)" stroke="rgb(97,51,66)" stroke-width="1" opacity="1" d="M 391.5 390 L 390.5 392 L 391.5 390 Z " /><path fill="rgb(97,51,66)" stroke="rgb(97,51,66)" stroke-width="1" opacity="1" d="M 124.5 393 L 125.5 395 L 124.5 393 Z " /><path fill="rgb(97,51,66)" stroke="rgb(97,51,66)" stroke-width="1" opacity="1" d="M 383.5 396 L 382.5 398 L 383.5 396 Z " /><path fill="rgb(97,51,66)" stroke="rgb(97,51,66)" stroke-width="1" opacity="1" d="M 68.5 397 L 69.5 399 L 68.5 397 Z " /><path fill="rgb(97,51,66)" stroke="rgb(97,51,66)" stroke-width="1" opacity="1" d="M 442.5 398 L 441.5 400 L 442.5 398 Z " /><path fill="rgb(97,51,66)" stroke="rgb(97,51,66)" stroke-width="1" opacity="1" d="M 72.5 402 L 73.5 404 L 72.5 402 Z " /><path fill="rgb(97,51,66)" stroke="rgb(97,51,66)" stroke-width="1" opacity="1" d="M 76.5 407 L 78.5 410 L 76.5 407 Z " /><path fill="rgb(97,51,66)" stroke="rgb(97,51,66)" stroke-width="1" opacity="1" d="M 434.5 408 L 432.5 411 L 434.5 408 Z " /><path fill="rgb(97,51,66)" stroke="rgb(97,51,66)" stroke-width="1" opacity="1" d="M 84.5 416 L 95.5 428 L 84.5 416 Z " /><path fill="rgb(97,51,66)" stroke="rgb(97,51,66)" stroke-width="1" opacity="1" d="M 424.5 419 L 419.5 425 L 424.5 419 Z " /><path fill="rgb(97,51,66)" stroke="rgb(97,51,66)" stroke-width="1" opacity="1" d="M 410.5 432 L 408.5 435 L 410.5 432 Z " /><path fill="rgb(97,51,66)" stroke="rgb(97,51,66)" stroke-width="1" opacity="1" d="M 102.5 433 L 104.5 436 L 102.5 433 Z " /><path fill="rgb(97,51,66)" stroke="rgb(97,51,66)" stroke-width="1" opacity="1" d="M 229.5 435 L 232 435.5 L 229.5 436 L 229.5 435 Z " /><path fill="rgb(97,51,66)" stroke="rgb(97,51,66)" stroke-width="1" opacity="1" d="M 280.5 435 L 283 435.5 L 280.5 436 L 280.5 435 Z " /><path fill="rgb(97,51,66)" stroke="rgb(97,51,66)" stroke-width="1" opacity="1" d="M 239.5 436 L 243 436.5 L 239.5 437 L 239.5 436 Z " /><path fill="rgb(97,51,66)" stroke="rgb(97,51,66)" stroke-width="1" opacity="1" d="M 268.5 436 L 273 436.5 L 268.5 437 L 268.5 436 Z " /><path fill="rgb(97,51,66)" stroke="rgb(97,51,66)" stroke-width="1" opacity="1" d="M 108.5 438 L 109.5 440 L 108.5 438 Z " /><path fill="rgb(97,51,66)" stroke="rgb(97,51,66)" stroke-width="1" opacity="1" d="M 399.5 441 L 398.5 443 L 399.5 441 Z " /><path fill="rgb(97,51,66)" stroke="rgb(97,51,66)" stroke-width="1" opacity="1" d="M 113.5 442 L 114.5 444 L 113.5 442 Z " /><path fill="rgb(97,51,66)" stroke="rgb(97,51,66)" stroke-width="1" opacity="1" d="M 117.5 445 L 118.5 447 L 117.5 445 Z " /><path fill="rgb(97,51,66)" stroke="rgb(97,51,66)" stroke-width="1" opacity="1" d="M 287.5 488 L 290 488.5 L 287.5 489 L 287.5 488 Z " /><path fill="rgb(97,51,66)" stroke="rgb(97,51,66)" stroke-width="1" opacity="1" d="M 230.5 489 L 233 489.5 L 230.5 490 L 230.5 489 Z " /><path fill="rgb(97,51,66)" stroke="rgb(97,51,66)" stroke-width="1" opacity="1" d="M 279.5 489 L 282 489.5 L 279.5 490 L 279.5 489 Z " /><path fill="rgb(97,51,66)" stroke="rgb(97,51,66)" stroke-width="1" opacity="1" d="M 241.5 490 L 247 490.5 L 241.5 491 L 241.5 490 Z " /><path fill="rgb(97,51,66)" stroke="rgb(97,51,66)" stroke-width="1" opacity="1" d="M 264.5 490 L 271 490.5 L 264.5 491 L 264.5 490 Z " /><path fill="rgb(20,30,33)" stroke="rgb(20,30,33)" stroke-width="1" opacity="0.9921568627450981" d="M 238.5 0 L 255 0.5 L 238.5 1 L 238.5 0 Z " /><path fill="rgb(20,30,33)" stroke="rgb(20,30,33)" stroke-width="1" opacity="0.9921568627450981" d="M 258.5 0 L 274 0.5 L 258.5 1 L 258.5 0 Z " /><path fill="rgb(20,30,33)" stroke="rgb(20,30,33)" stroke-width="1" opacity="0.9921568627450981" d="M 227.5 1 L 234 1.5 L 227.5 2 L 227.5 1 Z " /><path fill="rgb(20,30,33)" stroke="rgb(20,30,33)" stroke-width="1" opacity="0.9921568627450981" d="M 278.5 1 L 285 1.5 L 278.5 2 L 278.5 1 Z " /><path fill="rgb(20,30,33)" stroke="rgb(20,30,33)" stroke-width="1" opacity="0.9921568627450981" d="M 219.5 2 L 224 2.5 L 219.5 3 L 219.5 2 Z " /><path fill="rgb(20,30,33)" stroke="rgb(20,30,33)" stroke-width="1" opacity="0.9921568627450981" d="M 288.5 2 L 293 2.5 L 288.5 3 L 288.5 2 Z " /><path fill="rgb(20,30,33)" stroke="rgb(20,30,33)" stroke-width="1" opacity="0.9921568627450981" d="M 213.5 3 L 217 3.5 L 213.5 4 L 213.5 3 Z " /><path fill="rgb(20,30,33)" stroke="rgb(20,30,33)" stroke-width="1" opacity="0.9921568627450981" d="M 295.5 3 L 299 3.5 L 295.5 4 L 295.5 3 Z " /><path fill="rgb(20,30,33)" stroke="rgb(20,30,33)" stroke-width="1" opacity="0.9921568627450981" d="M 207.5 4 L 211 4.5 L 207.5 5 L 207.5 4 Z " /><path fill="rgb(20,30,33)" stroke="rgb(20,30,33)" stroke-width="1" opacity="0.9921568627450981" d="M 301.5 4 L 305 4.5 L 301.5 5 L 301.5 4 Z " /><path fill="rgb(20,30,33)" stroke="rgb(20,30,33)" stroke-width="1" opacity="0.9921568627450981" d="M 203.5 5 L 206 5.5 L 203.5 6 L 203.5 5 Z " /><path fill="rgb(20,30,33)" stroke="rgb(20,30,33)" stroke-width="1" opacity="0.9921568627450981" d="M 306.5 5 L 309 5.5 L 306.5 6 L 306.5 5 Z " /><path fill="rgb(20,30,33)" stroke="rgb(20,30,33)" stroke-width="1" opacity="0.9921568627450981" d="M 198.5 6 L 201 6.5 L 198.5 7 L 198.5 6 Z " /><path fill="rgb(20,30,33)" stroke="rgb(20,30,33)" stroke-width="1" opacity="0.9921568627450981" d="M 311.5 6 L 314 6.5 L 311.5 7 L 311.5 6 Z " /><path fill="rgb(20,30,33)" stroke="rgb(20,30,33)" stroke-width="1" opacity="0.9921568627450981" d="M 194.5 7 L 197 7.5 L 194.5 8 L 194.5 7 Z " /><path fill="rgb(20,30,33)" stroke="rgb(20,30,33)" stroke-width="1" opacity="0.9921568627450981" d="M 315.5 7 L 318 7.5 L 315.5 8 L 315.5 7 Z " /><path fill="rgb(20,30,33)" stroke="rgb(20,30,33)" stroke-width="1" opacity="0.9921568627450981" d="M 190.5 8 L 193 8.5 L 190.5 9 L 190.5 8 Z " /><path fill="rgb(20,30,33)" stroke="rgb(20,30,33)" stroke-width="1" opacity="0.9921568627450981" d="M 319.5 8 L 322 8.5 L 319.5 9 L 319.5 8 Z " /><path fill="rgb(20,30,33)" stroke="rgb(20,30,33)" stroke-width="1" opacity="0.9921568627450981" d="M 186.5 9 L 189 9.5 L 183.5 11 L 183.5 10 L 186.5 9 Z " /><path fill="rgb(20,30,33)" stroke="rgb(20,30,33)" stroke-width="1" opacity="0.9921568627450981" d="M 323.5 9 L 326 9.5 L 323.5 10 L 323.5 9 Z " /><path fill="rgb(20,30,33)" stroke="rgb(20,30,33)" stroke-width="1" opacity="0.9921568627450981" d="M 333.5 12 L 338 13.5 L 336.5 14 L 333.5 13 L 333.5 12 Z " /><path fill="rgb(20,30,33)" stroke="rgb(20,30,33)" stroke-width="1" opacity="0.9921568627450981" d="M 165.5 16 L 167 16.5 L 163.5 18 L 163.5 17 L 165.5 16 Z " /><path fill="rgb(20,30,33)" stroke="rgb(20,30,33)" stroke-width="1" opacity="0.9921568627450981" d="M 345.5 16 L 349 17.5 L 347.5 18 L 345.5 16 Z " /><path fill="rgb(20,30,33)" stroke="rgb(20,30,33)" stroke-width="1" opacity="0.9921568627450981" d="M 160.5 18 L 162 18.5 L 158.5 20 L 158.5 19 L 160.5 18 Z " /><path fill="rgb(20,30,33)" stroke="rgb(20,30,33)" stroke-width="1" opacity="0.9921568627450981" d="M 350.5 18 L 354 19.5 L 352.5 20 L 350.5 18 Z " /><path fill="rgb(20,30,33)" stroke="rgb(20,30,33)" stroke-width="1" opacity="0.9921568627450981" d="M 155.5 20 L 157 20.5 L 151.5 23 L 151.5 22 L 155.5 20 Z " /><path fill="rgb(20,30,33)" stroke="rgb(20,30,33)" stroke-width="1" opacity="0.9921568627450981" d="M 355.5 20 L 361 22.5 L 359.5 23 L 355.5 21 L 355.5 20 Z " /><path fill="rgb(20,30,33)" stroke="rgb(20,30,33)" stroke-width="1" opacity="0.9921568627450981" d="M 146.5 24 L 148 24.5 L 135.5 31 L 136.5 29 L 146.5 24 Z " /><path fill="rgb(20,30,33)" stroke="rgb(20,30,33)" stroke-width="1" opacity="0.9921568627450981" d="M 366.5 25 L 375 29.5 L 373.5 29 L 366.5 26 L 366.5 25 Z " /><path fill="rgb(20,30,33)" stroke="rgb(20,30,33)" stroke-width="1" opacity="0.9921568627450981" d="M 133.5 31 L 132.5 33 L 115.5 43 L 116.5 41 L 133.5 31 Z " /><path fill="rgb(20,30,33)" stroke="rgb(20,30,33)" stroke-width="1" opacity="0.9921568627450981" d="M 378.5 31 L 384 34.5 L 382.5 34 Q 378.5 33.5 378.5 31 Z " /><path fill="rgb(20,30,33)" stroke="rgb(20,30,33)" stroke-width="1" opacity="0.9921568627450981" d="M 385.5 35 L 389 37.5 L 387.5 37 L 385.5 35 Z " /><path fill="rgb(20,30,33)" stroke="rgb(20,30,33)" stroke-width="1" opacity="0.9921568627450981" d="M 390.5 38 Q 416.9 54.1 438 75.5 L 464 106.5 L 461 104.5 Q 445.3 81.7 424.5 64 Q 409.8 50.2 391.5 40 L 390.5 38 Z " /><path fill="rgb(20,30,33)" stroke="rgb(20,30,33)" stroke-width="1" opacity="0.9921568627450981" d="M 113.5 43 L 111.5 46 L 105.5 50 L 107.5 47 L 113.5 43 Z " /><path fill="rgb(20,30,33)" stroke="rgb(20,30,33)" stroke-width="1" opacity="0.9921568627450981" d="M 103.5 50 L 101.5 53 L 103.5 50 Z " /><path fill="rgb(20,30,33)" stroke="rgb(20,30,33)" stroke-width="1" opacity="0.9921568627450981" d="M 99.5 53 L 96.5 57 L 71 79.5 L 50.5 104 L 52 101.5 Q 64.5 83.5 80.5 69 L 99.5 53 Z " /><path fill="rgb(20,30,33)" stroke="rgb(20,30,33)" stroke-width="1" opacity="0.9921568627450981" d="M 49.5 105 L 48 107.5 L 45.5 111 L 47 108.5 L 49.5 105 Z " /><path fill="rgb(20,30,33)" stroke="rgb(20,30,33)" stroke-width="1" opacity="0.9921568627450981" d="M 464.5 108 L 474 121.5 L 472 120.5 L 464.5 108 Z " /><path fill="rgb(20,30,33)" stroke="rgb(20,30,33)" stroke-width="1" opacity="0.9921568627450981" d="M 44.5 112 L 43 114.5 L 41.5 117 L 42 115.5 L 44.5 112 Z " /><path fill="rgb(20,30,33)" stroke="rgb(20,30,33)" stroke-width="1" opacity="0.9921568627450981" d="M 40.5 118 L 40 119.5 L 32.5 132 L 33 130.5 L 40.5 118 Z " /><path fill="rgb(20,30,33)" stroke="rgb(20,30,33)" stroke-width="1" opacity="0.9921568627450981" d="M 474.5 123 L 477 126.5 L 475 125.5 L 474.5 123 Z " /><path fill="rgb(20,30,33)" stroke="rgb(20,30,33)" stroke-width="1" opacity="0.9921568627450981" d="M 477.5 128 L 481 133.5 L 479 132.5 L 477.5 128 Z " /><path fill="rgb(20,30,33)" stroke="rgb(20,30,33)" stroke-width="1" opacity="0.9921568627450981" d="M 30.5 135 L 30 136.5 L 24.5 148 L 24 146.5 L 30.5 135 Z " /><path fill="rgb(20,30,33)" stroke="rgb(20,30,33)" stroke-width="1" opacity="0.9921568627450981" d="M 482.5 137 L 488 147.5 L 487 147.5 L 482.5 137 Z " /><path fill="rgb(20,30,33)" stroke="rgb(20,30,33)" stroke-width="1" opacity="0.9921568627450981" d="M 22.5 151 L 23 152.5 L 20.5 157 L 20 155.5 L 22.5 151 Z " /><path fill="rgb(20,30,33)" stroke="rgb(20,30,33)" stroke-width="1" opacity="0.9921568627450981" d="M 489.5 151 L 492 156.5 L 491 156.5 L 489.5 151 Z " /><path fill="rgb(20,30,33)" stroke="rgb(20,30,33)" stroke-width="1" opacity="0.9921568627450981" d="M 19.5 158 L 20 159.5 L 18.5 162 L 18 160.5 L 19.5 158 Z " /><path fill="rgb(20,30,33)" stroke="rgb(20,30,33)" stroke-width="1" opacity="0.9921568627450981" d="M 492.5 158 L 494 161.5 L 493 161.5 L 492.5 158 Z " /><path fill="rgb(20,30,33)" stroke="rgb(20,30,33)" stroke-width="1" opacity="0.9921568627450981" d="M 17.5 163 L 18 164.5 L 16.5 167 L 16 165.5 L 17.5 163 Z " /><path fill="rgb(20,30,33)" stroke="rgb(20,30,33)" stroke-width="1" opacity="0.9921568627450981" d="M 494.5 163 L 496 166.5 L 495 166.5 L 494.5 163 Z " /><path fill="rgb(20,30,33)" stroke="rgb(20,30,33)" stroke-width="1" opacity="0.9921568627450981" d="M 13.5 174 L 14 175.5 L 12.5 179 L 12 176.5 L 13.5 174 Z " /><path fill="rgb(20,30,33)" stroke="rgb(20,30,33)" stroke-width="1" opacity="0.9921568627450981" d="M 501.5 183 L 503 188.5 L 502 188.5 L 501.5 183 Z " /><path fill="rgb(20,30,33)" stroke="rgb(20,30,33)" stroke-width="1" opacity="0.9921568627450981" d="M 9.5 186 L 10 188.5 L 9 188.5 L 9.5 186 Z " /><path fill="rgb(20,30,33)" stroke="rgb(20,30,33)" stroke-width="1" opacity="0.9921568627450981" d="M 8.5 190 L 9 192.5 L 8 192.5 L 8.5 190 Z " /><path fill="rgb(20,30,33)" stroke="rgb(20,30,33)" stroke-width="1" opacity="0.9921568627450981" d="M 503.5 190 L 504 192.5 L 503 192.5 L 503.5 190 Z " /><path fill="rgb(20,30,33)" stroke="rgb(20,30,33)" stroke-width="1" opacity="0.9921568627450981" d="M 7.5 194 L 8 196.5 L 7 196.5 L 7.5 194 Z " /><path fill="rgb(20,30,33)" stroke="rgb(20,30,33)" stroke-width="1" opacity="0.9921568627450981" d="M 504.5 194 L 505 196.5 L 504 196.5 L 504.5 194 Z " /><path fill="rgb(20,30,33)" stroke="rgb(20,30,33)" stroke-width="1" opacity="0.9921568627450981" d="M 6.5 198 L 7 200.5 L 6 200.5 L 6.5 198 Z " /><path fill="rgb(20,30,33)" stroke="rgb(20,30,33)" stroke-width="1" opacity="0.9921568627450981" d="M 505.5 198 L 506 200.5 L 505 200.5 L 505.5 198 Z " /><path fill="rgb(20,30,33)" stroke="rgb(20,30,33)" stroke-width="1" opacity="0.9921568627450981" d="M 5.5 202 L 6 205.5 L 5 205.5 L 5.5 202 Z " /><path fill="rgb(20,30,33)" stroke="rgb(20,30,33)" stroke-width="1" opacity="0.9921568627450981" d="M 506.5 203 L 507 205.5 L 506 205.5 L 506.5 203 Z " /><path fill="rgb(20,30,33)" stroke="rgb(20,30,33)" stroke-width="1" opacity="0.9921568627450981" d="M 4.5 207 L 5 210.5 L 4 210.5 L 4.5 207 Z " /><path fill="rgb(20,30,33)" stroke="rgb(20,30,33)" stroke-width="1" opacity="0.9921568627450981" d="M 507.5 207 L 508 210.5 L 507 210.5 L 507.5 207 Z " /><path fill="rgb(20,30,33)" stroke="rgb(20,30,33)" stroke-width="1" opacity="0.9921568627450981" d="M 3.5 213 L 4 216.5 L 3 216.5 L 3.5 213 Z " /><path fill="rgb(20,30,33)" stroke="rgb(20,30,33)" stroke-width="1" opacity="0.9921568627450981" d="M 508.5 213 L 509 216.5 L 508 216.5 L 508.5 213 Z " /><path fill="rgb(20,30,33)" stroke="rgb(20,30,33)" stroke-width="1" opacity="0.9921568627450981" d="M 2.5 219 L 3 223.5 L 2 223.5 L 2.5 219 Z " /><path fill="rgb(20,30,33)" stroke="rgb(20,30,33)" stroke-width="1" opacity="0.9921568627450981" d="M 509.5 219 L 510 224.5 L 509 224.5 L 509.5 219 Z " /><path fill="rgb(20,30,33)" stroke="rgb(20,30,33)" stroke-width="1" opacity="0.9921568627450981" d="M 1.5 227 L 2 233.5 L 1 233.5 L 1.5 227 Z " /><path fill="rgb(20,30,33)" stroke="rgb(20,30,33)" stroke-width="1" opacity="0.9921568627450981" d="M 510.5 227 L 511 233.5 L 510 233.5 L 510.5 227 Z " /><path fill="rgb(20,30,33)" stroke="rgb(20,30,33)" stroke-width="1" opacity="0.9921568627450981" d="M 0.5 238 L 1 273.5 L 0 273.5 L 0.5 238 Z " /><path fill="rgb(20,30,33)" stroke="rgb(20,30,33)" stroke-width="1" opacity="0.9921568627450981" d="M 511.5 238 L 512 273.5 L 511 273.5 L 511.5 238 Z " /><path fill="rgb(20,30,33)" stroke="rgb(20,30,33)" stroke-width="1" opacity="0.9921568627450981" d="M 1.5 278 L 2 284.5 L 1 284.5 L 1.5 278 Z " /><path fill="rgb(20,30,33)" stroke="rgb(20,30,33)" stroke-width="1" opacity="0.9921568627450981" d="M 510.5 278 L 511 284.5 L 510 284.5 L 510.5 278 Z " /><path fill="rgb(20,30,33)" stroke="rgb(20,30,33)" stroke-width="1" opacity="0.9921568627450981" d="M 509.5 287 L 510 292.5 L 509 292.5 L 509.5 287 Z " /><path fill="rgb(20,30,33)" stroke="rgb(20,30,33)" stroke-width="1" opacity="0.9921568627450981" d="M 2.5 288 L 3 292.5 L 2 292.5 L 2.5 288 Z " /><path fill="rgb(20,30,33)" stroke="rgb(20,30,33)" stroke-width="1" opacity="0.9921568627450981" d="M 3.5 295 L 4 298.5 L 3 298.5 L 3.5 295 Z " /><path fill="rgb(20,30,33)" stroke="rgb(20,30,33)" stroke-width="1" opacity="0.9921568627450981" d="M 508.5 295 L 509 298.5 L 508 298.5 L 508.5 295 Z " /><path fill="rgb(20,30,33)" stroke="rgb(20,30,33)" stroke-width="1" opacity="0.9921568627450981" d="M 4.5 300 L 5 304.5 L 4 304.5 L 4.5 300 Z " /><path fill="rgb(20,30,33)" stroke="rgb(20,30,33)" stroke-width="1" opacity="0.9921568627450981" d="M 507.5 301 L 508 304.5 L 507 304.5 L 507.5 301 Z " /><path fill="rgb(20,30,33)" stroke="rgb(20,30,33)" stroke-width="1" opacity="0.9921568627450981" d="M 5.5 306 L 6 308.5 L 5 308.5 L 5.5 306 Z " /><path fill="rgb(20,30,33)" stroke="rgb(20,30,33)" stroke-width="1" opacity="0.9921568627450981" d="M 506.5 306 L 507 308.5 L 506 308.5 L 506.5 306 Z " /><path fill="rgb(20,30,33)" stroke="rgb(20,30,33)" stroke-width="1" opacity="0.9921568627450981" d="M 6.5 311 L 7 313.5 L 6 313.5 L 6.5 311 Z " /><path fill="rgb(20,30,33)" stroke="rgb(20,30,33)" stroke-width="1" opacity="0.9921568627450981" d="M 505.5 311 L 506 313.5 L 505 313.5 L 505.5 311 Z " /><path fill="rgb(20,30,33)" stroke="rgb(20,30,33)" stroke-width="1" opacity="0.9921568627450981" d="M 7.5 315 L 8 317.5 L 7 317.5 L 7.5 315 Z " /><path fill="rgb(20,30,33)" stroke="rgb(20,30,33)" stroke-width="1" opacity="0.9921568627450981" d="M 504.5 315 L 505 317.5 L 504 317.5 L 504.5 315 Z " /><path fill="rgb(20,30,33)" stroke="rgb(20,30,33)" stroke-width="1" opacity="0.9921568627450981" d="M 8.5 319 L 9 321.5 L 8 321.5 L 8.5 319 Z " /><path fill="rgb(20,30,33)" stroke="rgb(20,30,33)" stroke-width="1" opacity="0.9921568627450981" d="M 503.5 319 L 504 321.5 L 503 321.5 L 503.5 319 Z " /><path fill="rgb(20,30,33)" stroke="rgb(20,30,33)" stroke-width="1" opacity="0.9921568627450981" d="M 9.5 323 L 11 328.5 L 10 328.5 L 9.5 323 Z " /><path fill="rgb(20,30,33)" stroke="rgb(20,30,33)" stroke-width="1" opacity="0.9921568627450981" d="M 502.5 323 L 503 325.5 L 501.5 329 L 501 326.5 L 502.5 323 Z " /><path fill="rgb(20,30,33)" stroke="rgb(20,30,33)" stroke-width="1" opacity="0.9921568627450981" d="M 16.5 345 L 18 348.5 L 17 348.5 L 16.5 345 Z " /><path fill="rgb(20,30,33)" stroke="rgb(20,30,33)" stroke-width="1" opacity="0.9921568627450981" d="M 495.5 345 L 496 346.5 L 494.5 349 L 494 347.5 L 495.5 345 Z " /><path fill="rgb(20,30,33)" stroke="rgb(20,30,33)" stroke-width="1" opacity="0.9921568627450981" d="M 18.5 350 L 20 353.5 L 19 353.5 L 18.5 350 Z " /><path fill="rgb(20,30,33)" stroke="rgb(20,30,33)" stroke-width="1" opacity="0.9921568627450981" d="M 493.5 350 L 494 351.5 L 492.5 354 L 492 352.5 L 493.5 350 Z " /><path fill="rgb(20,30,33)" stroke="rgb(20,30,33)" stroke-width="1" opacity="0.9921568627450981" d="M 20.5 355 L 23 360.5 L 22 360.5 L 20.5 355 Z " /><path fill="rgb(20,30,33)" stroke="rgb(20,30,33)" stroke-width="1" opacity="0.9921568627450981" d="M 491.5 355 L 492 356.5 L 489.5 361 L 489 359.5 L 491.5 355 Z " /><path fill="rgb(20,30,33)" stroke="rgb(20,30,33)" stroke-width="1" opacity="0.9921568627450981" d="M 24.5 364 L 31 376.5 L 29 375.5 L 24 365.5 L 24.5 364 Z " /><path fill="rgb(20,30,33)" stroke="rgb(20,30,33)" stroke-width="1" opacity="0.9921568627450981" d="M 487.5 364 L 488 365.5 L 481.5 377 L 482 375.5 L 487.5 364 Z " /><path fill="rgb(20,30,33)" stroke="rgb(20,30,33)" stroke-width="1" opacity="0.9921568627450981" d="M 31.5 378 L 43 396.5 L 41 395.5 L 31.5 378 Z " /><path fill="rgb(20,30,33)" stroke="rgb(20,30,33)" stroke-width="1" opacity="0.9921568627450981" d="M 480.5 378 L 480 379.5 L 469.5 397 L 470 395.5 L 480.5 378 Z " /><path fill="rgb(20,30,33)" stroke="rgb(20,30,33)" stroke-width="1" opacity="0.9921568627450981" d="M 43.5 398 L 44.5 400 L 43.5 398 Z " /><path fill="rgb(20,30,33)" stroke="rgb(20,30,33)" stroke-width="1" opacity="0.9921568627450981" d="M 468.5 398 L 467 400.5 Q 452.5 424 432.5 442 L 408.5 462 L 410.5 459 Q 426.8 447.8 440 433.5 Q 455.8 417.3 468.5 398 Z " /><path fill="rgb(20,30,33)" stroke="rgb(20,30,33)" stroke-width="1" opacity="0.9921568627450981" d="M 45.5 401 Q 59.7 421.8 77.5 439 L 111 466.5 L 108.5 465 Q 87 451 70 432.5 L 49 407.5 L 45.5 401 Z " /><path fill="rgb(20,30,33)" stroke="rgb(20,30,33)" stroke-width="1" opacity="0.9921568627450981" d="M 406.5 462 L 404.5 465 L 398.5 469 L 400.5 466 L 406.5 462 Z " /><path fill="rgb(20,30,33)" stroke="rgb(20,30,33)" stroke-width="1" opacity="0.9921568627450981" d="M 112.5 467 L 113.5 469 L 112.5 467 Z " /><path fill="rgb(20,30,33)" stroke="rgb(20,30,33)" stroke-width="1" opacity="0.9921568627450981" d="M 115.5 469 L 134 480.5 L 132.5 480 L 116.5 471 L 115.5 469 Z " /><path fill="rgb(20,30,33)" stroke="rgb(20,30,33)" stroke-width="1" opacity="0.9921568627450981" d="M 396.5 469 L 395.5 471 L 380.5 480 L 381.5 478 L 396.5 469 Z " /><path fill="rgb(20,30,33)" stroke="rgb(20,30,33)" stroke-width="1" opacity="0.9921568627450981" d="M 135.5 481 L 148 487.5 L 146.5 488 L 136.5 483 L 135.5 481 Z " /><path fill="rgb(20,30,33)" stroke="rgb(20,30,33)" stroke-width="1" opacity="0.9921568627450981" d="M 376.5 481 L 375.5 483 L 364.5 488 L 364.5 487 L 376.5 481 Z " /><path fill="rgb(20,30,33)" stroke="rgb(20,30,33)" stroke-width="1" opacity="0.9921568627450981" d="M 151.5 489 L 157 491.5 L 155.5 492 L 151.5 490 L 151.5 489 Z " /><path fill="rgb(20,30,33)" stroke="rgb(20,30,33)" stroke-width="1" opacity="0.9921568627450981" d="M 359.5 489 L 361 489.5 L 355.5 492 L 355.5 491 L 359.5 489 Z " /><path fill="rgb(20,30,33)" stroke="rgb(20,30,33)" stroke-width="1" opacity="0.9921568627450981" d="M 158.5 492 L 162 493.5 L 160.5 494 L 158.5 492 Z " /><path fill="rgb(20,30,33)" stroke="rgb(20,30,33)" stroke-width="1" opacity="0.9921568627450981" d="M 352.5 492 L 354 492.5 L 350.5 494 L 350.5 493 L 352.5 492 Z " /><path fill="rgb(20,30,33)" stroke="rgb(20,30,33)" stroke-width="1" opacity="0.9921568627450981" d="M 163.5 494 L 167 495.5 L 165.5 496 L 163.5 494 Z " /><path fill="rgb(20,30,33)" stroke="rgb(20,30,33)" stroke-width="1" opacity="0.9921568627450981" d="M 347.5 494 L 349 494.5 L 345.5 496 L 345.5 495 L 347.5 494 Z " /><path fill="rgb(20,30,33)" stroke="rgb(20,30,33)" stroke-width="1" opacity="0.9921568627450981" d="M 183.5 501 L 189 502.5 L 186.5 503 L 183.5 502 L 183.5 501 Z " /><path fill="rgb(20,30,33)" stroke="rgb(20,30,33)" stroke-width="1" opacity="0.9921568627450981" d="M 323.5 502 L 326 502.5 L 323.5 503 L 323.5 502 Z " /><path fill="rgb(20,30,33)" stroke="rgb(20,30,33)" stroke-width="1" opacity="0.9921568627450981" d="M 190.5 503 L 193 503.5 L 190.5 504 L 190.5 503 Z " /><path fill="rgb(20,30,33)" stroke="rgb(20,30,33)" stroke-width="1" opacity="0.9921568627450981" d="M 319.5 503 L 322 503.5 L 319.5 504 L 319.5 503 Z " /><path fill="rgb(20,30,33)" stroke="rgb(20,30,33)" stroke-width="1" opacity="0.9921568627450981" d="M 194.5 504 L 197 504.5 L 194.5 505 L 194.5 504 Z " /><path fill="rgb(20,30,33)" stroke="rgb(20,30,33)" stroke-width="1" opacity="0.9921568627450981" d="M 315.5 504 L 318 504.5 L 315.5 505 L 315.5 504 Z " /><path fill="rgb(20,30,33)" stroke="rgb(20,30,33)" stroke-width="1" opacity="0.9921568627450981" d="M 198.5 505 L 201 505.5 L 198.5 506 L 198.5 505 Z " /><path fill="rgb(20,30,33)" stroke="rgb(20,30,33)" stroke-width="1" opacity="0.9921568627450981" d="M 311.5 505 L 314 505.5 L 311.5 506 L 311.5 505 Z " /><path fill="rgb(20,30,33)" stroke="rgb(20,30,33)" stroke-width="1" opacity="0.9921568627450981" d="M 203.5 506 L 206 506.5 L 203.5 507 L 203.5 506 Z " /><path fill="rgb(20,30,33)" stroke="rgb(20,30,33)" stroke-width="1" opacity="0.9921568627450981" d="M 306.5 506 L 309 506.5 L 306.5 507 L 306.5 506 Z " /><path fill="rgb(20,30,33)" stroke="rgb(20,30,33)" stroke-width="1" opacity="0.9921568627450981" d="M 207.5 507 L 211 507.5 L 207.5 508 L 207.5 507 Z " /><path fill="rgb(20,30,33)" stroke="rgb(20,30,33)" stroke-width="1" opacity="0.9921568627450981" d="M 301.5 507 L 304 507.5 L 301.5 508 L 301.5 507 Z " /><path fill="rgb(20,30,33)" stroke="rgb(20,30,33)" stroke-width="1" opacity="0.9921568627450981" d="M 213.5 508 L 217 508.5 L 213.5 509 L 213.5 508 Z " /><path fill="rgb(20,30,33)" stroke="rgb(20,30,33)" stroke-width="1" opacity="0.9921568627450981" d="M 295.5 508 L 299 508.5 L 295.5 509 L 295.5 508 Z " /><path fill="rgb(20,30,33)" stroke="rgb(20,30,33)" stroke-width="1" opacity="0.9921568627450981" d="M 220.5 509 L 224 509.5 L 220.5 510 L 220.5 509 Z " /><path fill="rgb(20,30,33)" stroke="rgb(20,30,33)" stroke-width="1" opacity="0.9921568627450981" d="M 288.5 509 L 293 509.5 L 288.5 510 L 288.5 509 Z " /><path fill="rgb(20,30,33)" stroke="rgb(20,30,33)" stroke-width="1" opacity="0.9921568627450981" d="M 227.5 510 L 234 510.5 L 227.5 511 L 227.5 510 Z " /><path fill="rgb(20,30,33)" stroke="rgb(20,30,33)" stroke-width="1" opacity="0.9921568627450981" d="M 278.5 510 L 285 510.5 L 278.5 511 L 278.5 510 Z " /><path fill="rgb(20,30,33)" stroke="rgb(20,30,33)" stroke-width="1" opacity="0.9921568627450981" d="M 238.5 511 L 253 511.5 L 238.5 512 L 238.5 511 Z " /><path fill="rgb(20,30,33)" stroke="rgb(20,30,33)" stroke-width="1" opacity="0.9921568627450981" d="M 254.5 511 L 274 511.5 L 254.5 512 L 254.5 511 Z " /><path fill="rgb(20,30,33)" stroke="rgb(20,30,33)" stroke-width="1" opacity="1" d="M 255.5 0 L 258.5 1 L 287.5 2 L 310.5 6 L 326.5 10 L 361.5 23 Q 412.9 47.1 448 87.5 Q 483.3 126.2 501 182.5 L 508 211.5 L 510 233.5 L 511 234.5 L 511 277.5 L 510 278.5 L 508 300.5 L 503 322.5 L 489 361.5 Q 467.5 408 432.5 441 Q 396.1 476.1 344.5 496 L 326.5 502 L 300.5 508 L 288.5 509 L 287.5 510 L 278.5 510 L 277.5 511 L 254.5 511 L 253.5 512 L 252.5 511 L 224.5 510 L 201.5 506 Q 173.8 499.7 150.5 489 Q 105.3 468.2 73 434.5 Q 36.4 397.6 16 344.5 L 6 310.5 L 2 287.5 L 2 278.5 L 1 277.5 L 1 234.5 L 2 233.5 L 2 224.5 L 3 223.5 L 4 211.5 L 10 185.5 L 23 150.5 Q 44.2 104.7 78.5 72 Q 111.6 39.6 157.5 20 Q 177.9 11.4 201.5 6 L 224.5 2 L 254.5 1 L 255.5 0 Z M 242 21 L 241 22 L 230 22 L 229 23 L 206 26 L 170 37 Q 127 54 97 83 Q 64 112 44 154 L 34 178 L 29 194 L 23 223 L 22 241 L 21 242 L 21 271 L 22 272 L 23 290 L 32 329 Q 50 381 84 417 Q 116 451 163 472 L 202 485 L 223 489 L 241 490 L 242 491 L 271 491 L 272 490 L 290 489 L 315 484 L 340 476 Q 386 457 420 425 Q 451 394 471 352 L 484 315 L 489 290 L 490 272 L 491 271 L 490 230 L 489 229 L 486 206 L 479 181 Q 462 132 430 98 Q 397 61 350 40 L 329 32 L 297 24 L 284 23 L 283 22 L 273 22 L 272 21 L 242 21 Z " /><path fill="rgb(20,30,33)" stroke="rgb(20,30,33)" stroke-width="1" opacity="1" d="M 117 139 Q 169.1 140.7 194 170.5 L 202 185.5 L 202 195.5 L 197.5 201 L 191.5 203 L 147.5 203 L 146.5 204 L 137.5 204 L 123.5 207 L 111 212 L 102 193.5 L 116.5 187 L 135.5 183 L 175 181.5 Q 164.8 170.8 149.5 165 L 129.5 160 L 117 160 L 117 139 Z " /><path fill="rgb(20,30,33)" stroke="rgb(20,30,33)" stroke-width="1" opacity="1" d="M 382.5 139 L 395 139 L 395 160 L 382.5 160 L 362.5 165 Q 347.3 170.8 337 181.5 L 376.5 183 L 395.5 187 L 410 193.5 L 401 212 L 388.5 207 L 374.5 204 L 365.5 204 L 364.5 203 L 320.5 203 Q 313.9 202.1 311 197.5 Q 308.3 193.7 310 185.5 Q 314.9 170.4 326.5 162 Q 337.2 152.7 351.5 147 L 362.5 143 L 382.5 139 Z " /><path fill="rgb(20,30,33)" stroke="rgb(20,30,33)" stroke-width="1" opacity="1" d="M 204.5 246 L 307.5 246 L 308.5 247 L 328.5 247 L 329.5 248 L 358.5 249 L 359.5 250 L 389.5 252 L 390.5 253 L 396.5 253 L 419.5 257 L 435.5 262 L 444 267 L 448 275.5 L 448 281.5 L 447 282.5 L 446 301.5 L 443 314.5 L 433 340.5 Q 419.6 366.6 398.5 385 Q 371.9 407.9 336.5 422 L 315.5 429 L 287.5 435 L 268.5 436 L 267.5 437 L 243.5 437 L 242.5 436 L 232.5 436 L 231.5 435 L 218.5 434 L 196.5 429 L 161.5 416 Q 125.1 399.4 100 371.5 Q 84 353.5 74 329.5 L 66 301.5 L 64 275.5 L 68.5 267 L 76.5 262 L 88.5 258 L 108.5 254 L 114.5 254 L 122.5 252 L 131.5 252 L 132.5 251 L 141.5 251 L 142.5 250 L 166.5 249 L 167.5 248 L 182.5 248 L 183.5 247 L 203.5 247 L 204.5 246 Z M 231 266 L 230 267 L 177 268 L 176 269 L 162 269 L 161 270 L 129 272 L 128 273 L 121 273 L 98 277 L 85 282 L 86 296 L 87 297 L 88 299 L 425 299 L 426 296 L 427 282 L 423 279 L 405 275 L 385 273 L 384 272 L 375 272 L 374 271 L 365 271 L 364 270 L 337 269 L 336 268 L 317 268 L 316 267 L 231 266 Z M 94 320 L 96 327 L 106 341 L 129 362 L 146 353 L 168 347 L 186 345 L 187 344 L 195 344 L 196 343 L 226 342 L 227 341 L 285 341 L 286 342 L 303 342 L 304 343 L 324 344 L 359 351 Q 372 355 382 362 L 388 359 Q 407 344 418 322 L 418 320 L 94 320 Z M 253 362 L 252 363 L 217 363 L 216 364 L 203 364 L 202 365 L 184 366 L 163 370 L 151 374 L 144 378 L 142 381 Q 161 394 185 403 L 211 411 L 233 415 L 242 415 L 243 416 L 270 416 L 271 415 L 280 415 L 310 409 L 338 399 L 361 387 L 369 381 Q 371 382 370 379 L 363 375 L 351 371 L 332 367 L 308 365 L 307 364 L 294 364 L 293 363 L 261 363 Q 259 360 253 362 Z " /><path fill="rgb(184,149,69)" stroke="rgb(184,149,69)" stroke-width="1" opacity="1" d="M 246.5 21 L 266 21.5 L 246.5 22 L 246.5 21 Z " /><path fill="rgb(184,149,69)" stroke="rgb(184,149,69)" stroke-width="1" opacity="1" d="M 232.5 22 L 235 22.5 L 232.5 23 L 232.5 22 Z " /><path fill="rgb(184,149,69)" stroke="rgb(184,149,69)" stroke-width="1" opacity="1" d="M 277.5 22 L 280 22.5 L 277.5 23 L 277.5 22 Z " /><path fill="rgb(184,149,69)" stroke="rgb(184,149,69)" stroke-width="1" opacity="1" d="M 117.5 66 L 116.5 68 L 117.5 66 Z " /><path fill="rgb(184,149,69)" stroke="rgb(184,149,69)" stroke-width="1" opacity="1" d="M 398.5 69 L 399.5 71 L 398.5 69 Z " /><path fill="rgb(184,149,69)" stroke="rgb(184,149,69)" stroke-width="1" opacity="1" d="M 108.5 73 L 107.5 75 L 108.5 73 Z " /><path fill="rgb(184,149,69)" stroke="rgb(184,149,69)" stroke-width="1" opacity="1" d="M 403.5 73 L 404.5 75 L 403.5 73 Z " /><path fill="rgb(184,149,69)" stroke="rgb(184,149,69)" stroke-width="1" opacity="1" d="M 102.5 78 L 100.5 81 L 102.5 78 Z " /><path fill="rgb(184,149,69)" stroke="rgb(184,149,69)" stroke-width="1" opacity="1" d="M 409.5 78 L 411.5 81 L 409.5 78 Z " /><path fill="rgb(184,149,69)" stroke="rgb(184,149,69)" stroke-width="1" opacity="1" d="M 80.5 100 L 78.5 103 L 80.5 100 Z " /><path fill="rgb(184,149,69)" stroke="rgb(184,149,69)" stroke-width="1" opacity="1" d="M 431.5 100 L 433.5 103 L 431.5 100 Z " /><path fill="rgb(184,149,69)" stroke="rgb(184,149,69)" stroke-width="1" opacity="1" d="M 74.5 107 L 73.5 109 L 74.5 107 Z " /><path fill="rgb(184,149,69)" stroke="rgb(184,149,69)" stroke-width="1" opacity="1" d="M 437.5 107 L 438.5 109 L 437.5 107 Z " /><path fill="rgb(184,149,69)" stroke="rgb(184,149,69)" stroke-width="1" opacity="1" d="M 67.5 116 L 66.5 118 L 67.5 116 Z " /><path fill="rgb(184,149,69)" stroke="rgb(184,149,69)" stroke-width="1" opacity="1" d="M 117.5 138 L 124 138.5 L 117.5 139 L 117.5 138 Z " /><path fill="rgb(184,149,69)" stroke="rgb(184,149,69)" stroke-width="1" opacity="1" d="M 388.5 138 L 395 138.5 L 388.5 139 L 388.5 138 Z " /><path fill="rgb(184,149,69)" stroke="rgb(184,149,69)" stroke-width="1" opacity="1" d="M 124.5 160 L 127 160.5 L 124.5 161 L 124.5 160 Z " /><path fill="rgb(184,149,69)" stroke="rgb(184,149,69)" stroke-width="1" opacity="1" d="M 385.5 160 L 388 160.5 L 385.5 161 L 385.5 160 Z " /><path fill="rgb(184,149,69)" stroke="rgb(184,149,69)" stroke-width="1" opacity="1" d="M 187.5 163 L 192.5 169 L 187.5 163 Z " /><path fill="rgb(184,149,69)" stroke="rgb(184,149,69)" stroke-width="1" opacity="1" d="M 324.5 163 L 319.5 169 L 324.5 163 Z " /><path fill="rgb(184,149,69)" stroke="rgb(184,149,69)" stroke-width="1" opacity="1" d="M 171.5 178 L 172.5 180 L 171.5 178 Z " /><path fill="rgb(184,149,69)" stroke="rgb(184,149,69)" stroke-width="1" opacity="1" d="M 340.5 178 L 339.5 180 L 340.5 178 Z " /><path fill="rgb(184,149,69)" stroke="rgb(184,149,69)" stroke-width="1" opacity="1" d="M 152.5 181 L 159 181.5 L 152.5 182 L 152.5 181 Z " /><path fill="rgb(184,149,69)" stroke="rgb(184,149,69)" stroke-width="1" opacity="1" d="M 354.5 181 L 360 181.5 L 354.5 182 L 354.5 181 Z " /><path fill="rgb(184,149,69)" stroke="rgb(184,149,69)" stroke-width="1" opacity="1" d="M 139.5 182 L 142 182.5 L 139.5 183 L 139.5 182 Z " /><path fill="rgb(184,149,69)" stroke="rgb(184,149,69)" stroke-width="1" opacity="1" d="M 152.5 203 L 156 203.5 L 152.5 204 L 152.5 203 Z " /><path fill="rgb(184,149,69)" stroke="rgb(184,149,69)" stroke-width="1" opacity="1" d="M 356.5 203 L 360 203.5 L 356.5 204 L 356.5 203 Z " /><path fill="rgb(184,149,69)" stroke="rgb(184,149,69)" stroke-width="1" opacity="1" d="M 24.5 217 L 25 219.5 L 24 219.5 L 24.5 217 Z " /><path fill="rgb(184,149,69)" stroke="rgb(184,149,69)" stroke-width="1" opacity="1" d="M 23.5 224 L 24 226.5 L 23 226.5 L 23.5 224 Z " /><path fill="rgb(184,149,69)" stroke="rgb(184,149,69)" stroke-width="1" opacity="1" d="M 488.5 224 L 489 226.5 L 488 226.5 L 488.5 224 Z " /><path fill="rgb(184,149,69)" stroke="rgb(184,149,69)" stroke-width="1" opacity="1" d="M 22.5 232 L 23 235.5 L 22 235.5 L 22.5 232 Z " /><path fill="rgb(184,149,69)" stroke="rgb(184,149,69)" stroke-width="1" opacity="1" d="M 489.5 233 L 490 235.5 L 489 235.5 L 489.5 233 Z " /><path fill="rgb(184,149,69)" stroke="rgb(184,149,69)" stroke-width="1" opacity="1" d="M 214.5 245 L 232 245.5 L 214.5 246 L 214.5 245 Z " /><path fill="rgb(184,149,69)" stroke="rgb(184,149,69)" stroke-width="1" opacity="1" d="M 280.5 245 L 298 245.5 L 280.5 246 L 280.5 245 Z " /><path fill="rgb(184,149,69)" stroke="rgb(184,149,69)" stroke-width="1" opacity="1" d="M 189.5 246 L 197 246.5 L 189.5 247 L 189.5 246 Z " /><path fill="rgb(184,149,69)" stroke="rgb(184,149,69)" stroke-width="1" opacity="1" d="M 315.5 246 L 323 246.5 L 315.5 247 L 315.5 246 Z " /><path fill="rgb(184,149,69)" stroke="rgb(184,149,69)" stroke-width="1" opacity="1" d="M 21.5 247 L 22 263.5 L 21 263.5 L 21.5 247 Z " /><path fill="rgb(184,149,69)" stroke="rgb(184,149,69)" stroke-width="1" opacity="1" d="M 172.5 247 L 177 247.5 L 172.5 248 L 172.5 247 Z " /><path fill="rgb(184,149,69)" stroke="rgb(184,149,69)" stroke-width="1" opacity="1" d="M 335.5 247 L 340 247.5 L 335.5 248 L 335.5 247 Z " /><path fill="rgb(184,149,69)" stroke="rgb(184,149,69)" stroke-width="1" opacity="1" d="M 490.5 247 L 491 263.5 L 490 263.5 L 490.5 247 Z " /><path fill="rgb(184,149,69)" stroke="rgb(184,149,69)" stroke-width="1" opacity="1" d="M 158.5 248 L 162 248.5 L 158.5 249 L 158.5 248 Z " /><path fill="rgb(184,149,69)" stroke="rgb(184,149,69)" stroke-width="1" opacity="1" d="M 350.5 248 L 354 248.5 L 350.5 249 L 350.5 248 Z " /><path fill="rgb(184,149,69)" stroke="rgb(184,149,69)" stroke-width="1" opacity="1" d="M 146.5 249 L 150 249.5 L 146.5 250 L 146.5 249 Z " /><path fill="rgb(184,149,69)" stroke="rgb(184,149,69)" stroke-width="1" opacity="1" d="M 363.5 249 L 367 249.5 L 363.5 250 L 363.5 249 Z " /><path fill="rgb(184,149,69)" stroke="rgb(184,149,69)" stroke-width="1" opacity="1" d="M 135.5 250 L 138 250.5 L 135.5 251 L 135.5 250 Z " /><path fill="rgb(184,149,69)" stroke="rgb(184,149,69)" stroke-width="1" opacity="1" d="M 373.5 250 L 377 250.5 L 373.5 251 L 373.5 250 Z " /><path fill="rgb(184,149,69)" stroke="rgb(184,149,69)" stroke-width="1" opacity="1" d="M 125.5 251 L 128 251.5 L 125.5 252 L 125.5 251 Z " /><path fill="rgb(184,149,69)" stroke="rgb(184,149,69)" stroke-width="1" opacity="1" d="M 384.5 251 L 387 251.5 L 384.5 252 L 384.5 251 Z " /><path fill="rgb(184,149,69)" stroke="rgb(184,149,69)" stroke-width="1" opacity="1" d="M 117.5 252 L 120 252.5 L 117.5 253 L 117.5 252 Z " /><path fill="rgb(184,149,69)" stroke="rgb(184,149,69)" stroke-width="1" opacity="1" d="M 392.5 252 L 395 252.5 L 392.5 253 L 392.5 252 Z " /><path fill="rgb(184,149,69)" stroke="rgb(184,149,69)" stroke-width="1" opacity="1" d="M 110.5 253 L 113 253.5 L 110.5 254 L 110.5 253 Z " /><path fill="rgb(184,149,69)" stroke="rgb(184,149,69)" stroke-width="1" opacity="1" d="M 399.5 253 L 402 253.5 L 399.5 254 L 399.5 253 Z " /><path fill="rgb(184,149,69)" stroke="rgb(184,149,69)" stroke-width="1" opacity="1" d="M 204.5 267 L 213 267.5 L 204.5 268 L 204.5 267 Z " /><path fill="rgb(184,149,69)" stroke="rgb(184,149,69)" stroke-width="1" opacity="1" d="M 299.5 267 L 308 267.5 L 299.5 268 L 299.5 267 Z " /><path fill="rgb(184,149,69)" stroke="rgb(184,149,69)" stroke-width="1" opacity="1" d="M 182.5 268 L 187 268.5 L 182.5 269 L 182.5 268 Z " /><path fill="rgb(184,149,69)" stroke="rgb(184,149,69)" stroke-width="1" opacity="1" d="M 325.5 268 L 330 268.5 L 325.5 269 L 325.5 268 Z " /><path fill="rgb(184,149,69)" stroke="rgb(184,149,69)" stroke-width="1" opacity="1" d="M 165.5 269 L 170 269.5 L 165.5 270 L 165.5 269 Z " /><path fill="rgb(184,149,69)" stroke="rgb(184,149,69)" stroke-width="1" opacity="1" d="M 342.5 269 L 347 269.5 L 342.5 270 L 342.5 269 Z " /><path fill="rgb(184,149,69)" stroke="rgb(184,149,69)" stroke-width="1" opacity="1" d="M 152.5 270 L 156 270.5 L 152.5 271 L 152.5 270 Z " /><path fill="rgb(184,149,69)" stroke="rgb(184,149,69)" stroke-width="1" opacity="1" d="M 356.5 270 L 360 270.5 L 356.5 271 L 356.5 270 Z " /><path fill="rgb(184,149,69)" stroke="rgb(184,149,69)" stroke-width="1" opacity="1" d="M 141.5 271 L 144 271.5 L 141.5 272 L 141.5 271 Z " /><path fill="rgb(184,149,69)" stroke="rgb(184,149,69)" stroke-width="1" opacity="1" d="M 368.5 271 L 371 271.5 L 368.5 272 L 368.5 271 Z " /><path fill="rgb(184,149,69)" stroke="rgb(184,149,69)" stroke-width="1" opacity="1" d="M 131.5 272 L 134 272.5 L 131.5 273 L 131.5 272 Z " /><path fill="rgb(184,149,69)" stroke="rgb(184,149,69)" stroke-width="1" opacity="1" d="M 378.5 272 L 381 272.5 L 378.5 273 L 378.5 272 Z " /><path fill="rgb(184,149,69)" stroke="rgb(184,149,69)" stroke-width="1" opacity="1" d="M 22.5 275 L 23 278.5 L 22 278.5 L 22.5 275 Z " /><path fill="rgb(184,149,69)" stroke="rgb(184,149,69)" stroke-width="1" opacity="1" d="M 489.5 275 L 490 278.5 L 489 278.5 L 489.5 275 Z " /><path fill="rgb(184,149,69)" stroke="rgb(184,149,69)" stroke-width="1" opacity="1" d="M 85.5 281 L 86 283.5 L 85 283.5 L 85.5 281 Z " /><path fill="rgb(184,149,69)" stroke="rgb(184,149,69)" stroke-width="1" opacity="1" d="M 426.5 281 L 427 283.5 L 426 283.5 L 426.5 281 Z " /><path fill="rgb(184,149,69)" stroke="rgb(184,149,69)" stroke-width="1" opacity="1" d="M 488.5 284 L 489 286.5 L 488 286.5 L 488.5 284 Z " /><path fill="rgb(184,149,69)" stroke="rgb(184,149,69)" stroke-width="1" opacity="1" d="M 23.5 285 L 24 287.5 L 23 287.5 L 23.5 285 Z " /><path fill="rgb(184,149,69)" stroke="rgb(184,149,69)" stroke-width="1" opacity="1" d="M 64.5 288 L 65 291.5 L 64 291.5 L 64.5 288 Z " /><path fill="rgb(184,149,69)" stroke="rgb(184,149,69)" stroke-width="1" opacity="1" d="M 447.5 288 L 448 291.5 L 447 291.5 L 447.5 288 Z " /><path fill="rgb(184,149,69)" stroke="rgb(184,149,69)" stroke-width="1" opacity="1" d="M 65.5 297 L 66 299.5 L 65 299.5 L 65.5 297 Z " /><path fill="rgb(184,149,69)" stroke="rgb(184,149,69)" stroke-width="1" opacity="1" d="M 446.5 297 L 447 299.5 L 446 299.5 L 446.5 297 Z " /><path fill="rgb(184,149,69)" stroke="rgb(184,149,69)" stroke-width="1" opacity="1" d="M 87.5 298 L 425 298.5 L 87.5 299 L 87.5 298 Z " /><path fill="rgb(184,149,69)" stroke="rgb(184,149,69)" stroke-width="1" opacity="1" d="M 87.5 355 L 88.5 357 L 87.5 355 Z " /><path fill="rgb(184,149,69)" stroke="rgb(184,149,69)" stroke-width="1" opacity="1" d="M 424.5 355 L 423.5 357 L 424.5 355 Z " /><path fill="rgb(184,149,69)" stroke="rgb(184,149,69)" stroke-width="1" opacity="1" d="M 92.5 362 L 93.5 364 L 92.5 362 Z " /><path fill="rgb(184,149,69)" stroke="rgb(184,149,69)" stroke-width="1" opacity="1" d="M 419.5 362 L 418.5 364 L 419.5 362 Z " /><path fill="rgb(184,149,69)" stroke="rgb(184,149,69)" stroke-width="1" opacity="1" d="M 95.5 366 L 97.5 369 L 95.5 366 Z " /><path fill="rgb(184,149,69)" stroke="rgb(184,149,69)" stroke-width="1" opacity="1" d="M 416.5 366 L 414.5 369 L 416.5 366 Z " /><path fill="rgb(184,149,69)" stroke="rgb(184,149,69)" stroke-width="1" opacity="1" d="M 101.5 373 L 112.5 385 L 101.5 373 Z " /><path fill="rgb(184,149,69)" stroke="rgb(184,149,69)" stroke-width="1" opacity="1" d="M 410.5 373 L 399.5 385 L 410.5 373 Z " /><path fill="rgb(184,149,69)" stroke="rgb(184,149,69)" stroke-width="1" opacity="1" d="M 56.5 379 L 57.5 381 L 56.5 379 Z " /><path fill="rgb(184,149,69)" stroke="rgb(184,149,69)" stroke-width="1" opacity="1" d="M 117.5 388 L 118.5 390 L 117.5 388 Z " /><path fill="rgb(184,149,69)" stroke="rgb(184,149,69)" stroke-width="1" opacity="1" d="M 394.5 388 L 393.5 390 L 394.5 388 Z " /><path fill="rgb(184,149,69)" stroke="rgb(184,149,69)" stroke-width="1" opacity="1" d="M 449.5 388 L 448.5 390 L 449.5 388 Z " /><path fill="rgb(184,149,69)" stroke="rgb(184,149,69)" stroke-width="1" opacity="1" d="M 64.5 391 L 65.5 393 L 64.5 391 Z " /><path fill="rgb(184,149,69)" stroke="rgb(184,149,69)" stroke-width="1" opacity="1" d="M 389.5 392 L 388.5 394 L 389.5 392 Z " /><path fill="rgb(184,149,69)" stroke="rgb(184,149,69)" stroke-width="1" opacity="1" d="M 126.5 395 L 127.5 397 L 126.5 395 Z " /><path fill="rgb(184,149,69)" stroke="rgb(184,149,69)" stroke-width="1" opacity="1" d="M 385.5 395 L 384.5 397 L 385.5 395 Z " /><path fill="rgb(184,149,69)" stroke="rgb(184,149,69)" stroke-width="1" opacity="1" d="M 444.5 395 L 443.5 397 L 444.5 395 Z " /><path fill="rgb(184,149,69)" stroke="rgb(184,149,69)" stroke-width="1" opacity="1" d="M 129.5 397 L 130.5 399 L 129.5 397 Z " /><path fill="rgb(184,149,69)" stroke="rgb(184,149,69)" stroke-width="1" opacity="1" d="M 70.5 399 L 71.5 401 L 70.5 399 Z " /><path fill="rgb(184,149,69)" stroke="rgb(184,149,69)" stroke-width="1" opacity="1" d="M 74.5 404 L 75.5 406 L 74.5 404 Z " /><path fill="rgb(184,149,69)" stroke="rgb(184,149,69)" stroke-width="1" opacity="1" d="M 437.5 404 L 435.5 407 L 437.5 404 Z " /><path fill="rgb(184,149,69)" stroke="rgb(184,149,69)" stroke-width="1" opacity="1" d="M 79.5 410 L 81.5 413 L 79.5 410 Z " /><path fill="rgb(184,149,69)" stroke="rgb(184,149,69)" stroke-width="1" opacity="1" d="M 431.5 411 L 427.5 416 L 431.5 411 Z " /><path fill="rgb(184,149,69)" stroke="rgb(184,149,69)" stroke-width="1" opacity="1" d="M 415.5 427 L 411.5 432 L 415.5 427 Z " /><path fill="rgb(184,149,69)" stroke="rgb(184,149,69)" stroke-width="1" opacity="1" d="M 99.5 430 L 101.5 433 L 99.5 430 Z " /><path fill="rgb(184,149,69)" stroke="rgb(184,149,69)" stroke-width="1" opacity="1" d="M 406.5 435 L 404.5 438 L 406.5 435 Z " /><path fill="rgb(184,149,69)" stroke="rgb(184,149,69)" stroke-width="1" opacity="1" d="M 106.5 436 L 107.5 438 L 106.5 436 Z " /><path fill="rgb(184,149,69)" stroke="rgb(184,149,69)" stroke-width="1" opacity="1" d="M 235.5 436 L 239 436.5 L 235.5 437 L 235.5 436 Z " /><path fill="rgb(184,149,69)" stroke="rgb(184,149,69)" stroke-width="1" opacity="1" d="M 273.5 436 L 277 436.5 L 273.5 437 L 273.5 436 Z " /><path fill="rgb(184,149,69)" stroke="rgb(184,149,69)" stroke-width="1" opacity="1" d="M 250.5 437 L 262 437.5 L 250.5 438 L 250.5 437 Z " /><path fill="rgb(184,149,69)" stroke="rgb(184,149,69)" stroke-width="1" opacity="1" d="M 111.5 440 L 112.5 442 L 111.5 440 Z " /><path fill="rgb(184,149,69)" stroke="rgb(184,149,69)" stroke-width="1" opacity="1" d="M 396.5 443 L 395.5 445 L 396.5 443 Z " /><path fill="rgb(184,149,69)" stroke="rgb(184,149,69)" stroke-width="1" opacity="1" d="M 119.5 446 L 120.5 448 L 119.5 446 Z " /><path fill="rgb(184,149,69)" stroke="rgb(184,149,69)" stroke-width="1" opacity="1" d="M 389.5 448 L 388.5 450 L 389.5 448 Z " /><path fill="rgb(184,149,69)" stroke="rgb(184,149,69)" stroke-width="1" opacity="1" d="M 131.5 454 L 132.5 456 L 131.5 454 Z " /><path fill="rgb(184,149,69)" stroke="rgb(184,149,69)" stroke-width="1" opacity="1" d="M 224.5 488 L 227 488.5 L 224.5 489 L 224.5 488 Z " /><path fill="rgb(184,149,69)" stroke="rgb(184,149,69)" stroke-width="1" opacity="1" d="M 284.5 488 L 287 488.5 L 284.5 489 L 284.5 488 Z " /><path fill="rgb(184,149,69)" stroke="rgb(184,149,69)" stroke-width="1" opacity="1" d="M 233.5 489 L 237 489.5 L 233.5 490 L 233.5 489 Z " /><path fill="rgb(184,149,69)" stroke="rgb(184,149,69)" stroke-width="1" opacity="1" d="M 275.5 489 L 279 489.5 L 275.5 490 L 275.5 489 Z " /><path fill="rgb(184,149,69)" stroke="rgb(184,149,69)" stroke-width="1" opacity="1" d="M 247.5 490 L 264 490.5 L 247.5 491 L 247.5 490 Z " /><path fill="rgb(254,184,57)" stroke="rgb(254,184,57)" stroke-width="1" opacity="1" d="M 22.5 266 L 27 291.5 L 31 304.5 L 41 327.5 Q 58.4 360.1 84.5 384 Q 117.3 414.7 163.5 432 L 181.5 438 L 219.5 446 L 239.5 447 L 240.5 448 L 271.5 448 L 272.5 447 L 283.5 447 L 284.5 446 L 292.5 446 L 293.5 445 L 310.5 443 L 330.5 438 L 363.5 426 Q 408.7 405.7 440 371.5 Q 459.5 350.5 473 323.5 L 484 294.5 L 489.5 266 L 490 274.5 L 489 275.5 L 487 297.5 L 483 315.5 L 469 354.5 Q 448.8 396.8 416.5 427 Q 383.7 458.2 337.5 476 L 319.5 482 L 291.5 488 L 275.5 489 L 274.5 490 L 237.5 490 L 236.5 489 L 227.5 489 L 226.5 488 L 214.5 487 L 192.5 482 L 157.5 469 Q 113 448 82 413.5 Q 55.6 384.4 39 345.5 L 33 329.5 L 27 307.5 L 23 284.5 L 22.5 266 Z " /></svg>