<svg width="512" height="512" version="1.1" xmlns="http://www.w3.org/2000/svg" desc="Created with imagetracer.js version 1.2.6" ><path fill="rgb(205,178,0)" stroke="rgb(205,178,0)" stroke-width="1" opacity="0.9450980392156862" d="M 249.5 42 L 259 42.5 L 249.5 43 L 245.5 47 L 249.5 42 Z " /><path fill="rgb(205,178,0)" stroke="rgb(205,178,0)" stroke-width="1" opacity="0.9450980392156862" d="M 268.5 43 L 272 43.5 L 268.5 44 L 268.5 43 Z " /><path fill="rgb(205,178,0)" stroke="rgb(205,178,0)" stroke-width="1" opacity="0.9450980392156862" d="M 220.5 50 L 227 50.5 L 220.5 51 L 220.5 50 Z " /><path fill="rgb(205,178,0)" stroke="rgb(205,178,0)" stroke-width="1" opacity="0.9450980392156862" d="M 210.5 51 L 213 51.5 L 210.5 52 L 210.5 51 Z " /><path fill="rgb(205,178,0)" stroke="rgb(205,178,0)" stroke-width="1" opacity="0.9450980392156862" d="M 126.5 85 L 125.5 87 L 126.5 85 Z " /><path fill="rgb(205,178,0)" stroke="rgb(205,178,0)" stroke-width="1" opacity="0.9450980392156862" d="M 399.5 88 L 400.5 90 L 399.5 88 Z " /><path fill="rgb(205,178,0)" stroke="rgb(205,178,0)" stroke-width="1" opacity="0.9450980392156862" d="M 118.5 91 L 116.5 94 L 118.5 91 Z " /><path fill="rgb(205,178,0)" stroke="rgb(205,178,0)" stroke-width="1" opacity="0.9450980392156862" d="M 403.5 91 L 404.5 93 L 403.5 91 Z " /><path fill="rgb(205,178,0)" stroke="rgb(205,178,0)" stroke-width="1" opacity="0.9450980392156862" d="M 408.5 95 L 410.5 98 L 408.5 95 Z " /><path fill="rgb(205,178,0)" stroke="rgb(205,178,0)" stroke-width="1" opacity="0.9450980392156862" d="M 112.5 96 L 108.5 101 L 112.5 96 Z " /><path fill="rgb(205,178,0)" stroke="rgb(205,178,0)" stroke-width="1" opacity="0.9450980392156862" d="M 417.5 103 L 424.5 111 L 417.5 103 Z " /><path fill="rgb(205,178,0)" stroke="rgb(205,178,0)" stroke-width="1" opacity="0.9450980392156862" d="M 92.5 116 L 89.5 120 L 92.5 116 Z " /><path fill="rgb(205,178,0)" stroke="rgb(205,178,0)" stroke-width="1" opacity="0.9450980392156862" d="M 430.5 117 L 432.5 120 L 430.5 117 Z " /><path fill="rgb(205,178,0)" stroke="rgb(205,178,0)" stroke-width="1" opacity="0.9450980392156862" d="M 435.5 123 L 436.5 125 L 435.5 123 Z " /><path fill="rgb(205,178,0)" stroke="rgb(205,178,0)" stroke-width="1" opacity="0.9450980392156862" d="M 85.5 124 L 84.5 126 L 85.5 124 Z " /><path fill="rgb(205,178,0)" stroke="rgb(205,178,0)" stroke-width="1" opacity="0.9450980392156862" d="M 438.5 127 L 439.5 129 L 438.5 127 Z " /><path fill="rgb(205,178,0)" stroke="rgb(205,178,0)" stroke-width="1" opacity="0.9450980392156862" d="M 81.5 129 L 80.5 131 L 81.5 129 Z " /><path fill="rgb(205,178,0)" stroke="rgb(205,178,0)" stroke-width="1" opacity="0.9450980392156862" d="M 78.5 133 L 77.5 135 L 78.5 133 Z " /><path fill="rgb(205,178,0)" stroke="rgb(205,178,0)" stroke-width="1" opacity="0.9450980392156862" d="M 183.5 186 L 188 186.5 L 183.5 187 L 183.5 186 Z " /><path fill="rgb(205,178,0)" stroke="rgb(205,178,0)" stroke-width="1" opacity="0.9450980392156862" d="M 332.5 186 L 337 186.5 L 332.5 187 L 332.5 186 Z " /><path fill="rgb(205,178,0)" stroke="rgb(205,178,0)" stroke-width="1" opacity="0.9450980392156862" d="M 173.5 189 L 175 189.5 L 172.5 191 L 173.5 189 Z " /><path fill="rgb(205,178,0)" stroke="rgb(205,178,0)" stroke-width="1" opacity="0.9450980392156862" d="M 321.5 190 L 320.5 192 L 321.5 190 Z " /><path fill="rgb(205,178,0)" stroke="rgb(205,178,0)" stroke-width="1" opacity="0.9450980392156862" d="M 348.5 190 L 349.5 192 L 348.5 190 Z " /><path fill="rgb(205,178,0)" stroke="rgb(205,178,0)" stroke-width="1" opacity="0.9450980392156862" d="M 170.5 191 L 164.5 198 L 170.5 191 Z " /><path fill="rgb(205,178,0)" stroke="rgb(205,178,0)" stroke-width="1" opacity="0.9450980392156862" d="M 200.5 191 L 205.5 197 L 200.5 191 Z " /><path fill="rgb(205,178,0)" stroke="rgb(205,178,0)" stroke-width="1" opacity="0.9450980392156862" d="M 351.5 192 L 354.5 196 L 351.5 192 Z " /><path fill="rgb(205,178,0)" stroke="rgb(205,178,0)" stroke-width="1" opacity="0.9450980392156862" d="M 359.5 205 L 360 207.5 L 359 207.5 L 359.5 205 Z " /><path fill="rgb(205,178,0)" stroke="rgb(205,178,0)" stroke-width="1" opacity="0.9450980392156862" d="M 160.5 207 L 161 214.5 L 160 214.5 L 160.5 207 Z " /><path fill="rgb(205,178,0)" stroke="rgb(205,178,0)" stroke-width="1" opacity="0.9450980392156862" d="M 210.5 209 L 211 215.5 L 210 215.5 L 210.5 209 Z " /><path fill="rgb(205,178,0)" stroke="rgb(205,178,0)" stroke-width="1" opacity="0.9450980392156862" d="M 310.5 214 L 311 216.5 L 310 216.5 L 310.5 214 Z " /><path fill="rgb(205,178,0)" stroke="rgb(205,178,0)" stroke-width="1" opacity="0.9450980392156862" d="M 473.5 216 L 474 219.5 L 473 219.5 L 473.5 216 Z " /><path fill="rgb(205,178,0)" stroke="rgb(205,178,0)" stroke-width="1" opacity="0.9450980392156862" d="M 356.5 225 L 355.5 227 L 356.5 225 Z " /><path fill="rgb(205,178,0)" stroke="rgb(205,178,0)" stroke-width="1" opacity="0.9450980392156862" d="M 315.5 227 L 319.5 232 L 315.5 227 Z " /><path fill="rgb(205,178,0)" stroke="rgb(205,178,0)" stroke-width="1" opacity="0.9450980392156862" d="M 166.5 228 L 168.5 231 L 166.5 228 Z " /><path fill="rgb(205,178,0)" stroke="rgb(205,178,0)" stroke-width="1" opacity="0.9450980392156862" d="M 204.5 228 L 201.5 232 L 204.5 228 Z " /><path fill="rgb(205,178,0)" stroke="rgb(205,178,0)" stroke-width="1" opacity="0.9450980392156862" d="M 474.5 229 L 475 236.5 L 474 236.5 L 474.5 229 Z " /><path fill="rgb(205,178,0)" stroke="rgb(205,178,0)" stroke-width="1" opacity="0.9450980392156862" d="M 350.5 231 L 349.5 233 L 350.5 231 Z " /><path fill="rgb(205,178,0)" stroke="rgb(205,178,0)" stroke-width="1" opacity="0.9450980392156862" d="M 38.5 232 L 39 234.5 L 38 234.5 L 38.5 232 Z " /><path fill="rgb(205,178,0)" stroke="rgb(205,178,0)" stroke-width="1" opacity="0.9450980392156862" d="M 199.5 232 L 198.5 234 L 199.5 232 Z " /><path fill="rgb(205,178,0)" stroke="rgb(205,178,0)" stroke-width="1" opacity="0.9450980392156862" d="M 180.5 236 L 183 236.5 L 180.5 237 L 180.5 236 Z " /><path fill="rgb(205,178,0)" stroke="rgb(205,178,0)" stroke-width="1" opacity="0.9450980392156862" d="M 37.5 244 L 38 250.5 L 37 250.5 L 37.5 244 Z " /><path fill="rgb(205,178,0)" stroke="rgb(205,178,0)" stroke-width="1" opacity="0.9450980392156862" d="M 474.5 255 L 475 261.5 L 474 261.5 L 474.5 255 Z " /><path fill="rgb(205,178,0)" stroke="rgb(205,178,0)" stroke-width="1" opacity="0.9450980392156862" d="M 256.5 256 L 276 256.5 L 256.5 257 L 256.5 256 Z " /><path fill="rgb(205,178,0)" stroke="rgb(205,178,0)" stroke-width="1" opacity="0.9450980392156862" d="M 243.5 257 L 248 257.5 L 243.5 258 L 243.5 257 Z " /><path fill="rgb(205,178,0)" stroke="rgb(205,178,0)" stroke-width="1" opacity="0.9450980392156862" d="M 284.5 257 L 289 257.5 L 284.5 258 L 284.5 257 Z " /><path fill="rgb(205,178,0)" stroke="rgb(205,178,0)" stroke-width="1" opacity="0.9450980392156862" d="M 236.5 258 L 239 258.5 L 236.5 259 L 236.5 258 Z " /><path fill="rgb(205,178,0)" stroke="rgb(205,178,0)" stroke-width="1" opacity="0.9450980392156862" d="M 293.5 258 L 297 258.5 L 293.5 259 L 293.5 258 Z " /><path fill="rgb(205,178,0)" stroke="rgb(205,178,0)" stroke-width="1" opacity="0.9450980392156862" d="M 300.5 259 L 303 259.5 L 300.5 260 L 300.5 259 Z " /><path fill="rgb(205,178,0)" stroke="rgb(205,178,0)" stroke-width="1" opacity="0.9450980392156862" d="M 37.5 267 L 38 273.5 L 37 273.5 L 37.5 267 Z " /><path fill="rgb(205,178,0)" stroke="rgb(205,178,0)" stroke-width="1" opacity="0.9450980392156862" d="M 473.5 273 L 474 276.5 L 473 276.5 L 473.5 273 Z " /><path fill="rgb(205,178,0)" stroke="rgb(205,178,0)" stroke-width="1" opacity="0.9450980392156862" d="M 360.5 278 L 361.5 280 L 360.5 278 Z " /><path fill="rgb(205,178,0)" stroke="rgb(205,178,0)" stroke-width="1" opacity="0.9450980392156862" d="M 174.5 280 L 173.5 282 L 174.5 280 Z " /><path fill="rgb(205,178,0)" stroke="rgb(205,178,0)" stroke-width="1" opacity="0.9450980392156862" d="M 38.5 283 L 39 285.5 L 38 285.5 L 38.5 283 Z " /><path fill="rgb(205,178,0)" stroke="rgb(205,178,0)" stroke-width="1" opacity="0.9450980392156862" d="M 168.5 284 L 167.5 286 L 168.5 284 Z " /><path fill="rgb(205,178,0)" stroke="rgb(205,178,0)" stroke-width="1" opacity="0.9450980392156862" d="M 369.5 284 L 370.5 286 L 369.5 284 Z " /><path fill="rgb(205,178,0)" stroke="rgb(205,178,0)" stroke-width="1" opacity="0.9450980392156862" d="M 472.5 284 L 473 286.5 L 472 286.5 L 472.5 284 Z " /><path fill="rgb(205,178,0)" stroke="rgb(205,178,0)" stroke-width="1" opacity="0.9450980392156862" d="M 165.5 286 L 164.5 288 L 165.5 286 Z " /><path fill="rgb(205,178,0)" stroke="rgb(205,178,0)" stroke-width="1" opacity="0.9450980392156862" d="M 372.5 286 L 374.5 289 L 372.5 286 Z " /><path fill="rgb(205,178,0)" stroke="rgb(205,178,0)" stroke-width="1" opacity="0.9450980392156862" d="M 161.5 289 L 160.5 291 L 161.5 289 Z " /><path fill="rgb(205,178,0)" stroke="rgb(205,178,0)" stroke-width="1" opacity="0.9450980392156862" d="M 378.5 291 L 387.5 301 L 378.5 291 Z " /><path fill="rgb(205,178,0)" stroke="rgb(205,178,0)" stroke-width="1" opacity="0.9450980392156862" d="M 157.5 292 L 154.5 296 L 157.5 292 Z " /><path fill="rgb(205,178,0)" stroke="rgb(205,178,0)" stroke-width="1" opacity="0.9450980392156862" d="M 247.5 292 L 252 292.5 L 247.5 293 L 247.5 292 Z " /><path fill="rgb(205,178,0)" stroke="rgb(205,178,0)" stroke-width="1" opacity="0.9450980392156862" d="M 280.5 292 L 286 292.5 L 280.5 293 L 280.5 292 Z " /><path fill="rgb(205,178,0)" stroke="rgb(205,178,0)" stroke-width="1" opacity="0.9450980392156862" d="M 471.5 292 L 472 294.5 L 471 294.5 L 471.5 292 Z " /><path fill="rgb(205,178,0)" stroke="rgb(205,178,0)" stroke-width="1" opacity="0.9450980392156862" d="M 240.5 293 L 243 293.5 L 240.5 294 L 240.5 293 Z " /><path fill="rgb(205,178,0)" stroke="rgb(205,178,0)" stroke-width="1" opacity="0.9450980392156862" d="M 290.5 293 L 293 293.5 L 290.5 294 L 290.5 293 Z " /><path fill="rgb(205,178,0)" stroke="rgb(205,178,0)" stroke-width="1" opacity="0.9450980392156862" d="M 296.5 294 L 299 294.5 L 296.5 295 L 296.5 294 Z " /><path fill="rgb(205,178,0)" stroke="rgb(205,178,0)" stroke-width="1" opacity="0.9450980392156862" d="M 147.5 301 L 146.5 303 L 147.5 301 Z " /><path fill="rgb(205,178,0)" stroke="rgb(205,178,0)" stroke-width="1" opacity="0.9450980392156862" d="M 390.5 304 L 391.5 306 L 390.5 304 Z " /><path fill="rgb(205,178,0)" stroke="rgb(205,178,0)" stroke-width="1" opacity="0.9450980392156862" d="M 393.5 308 L 394.5 310 L 393.5 308 Z " /><path fill="rgb(205,178,0)" stroke="rgb(205,178,0)" stroke-width="1" opacity="0.9450980392156862" d="M 140.5 309 L 137.5 313 L 140.5 309 Z " /><path fill="rgb(205,178,0)" stroke="rgb(205,178,0)" stroke-width="1" opacity="0.9450980392156862" d="M 343.5 309 L 344.5 311 L 343.5 309 Z " /><path fill="rgb(205,178,0)" stroke="rgb(205,178,0)" stroke-width="1" opacity="0.9450980392156862" d="M 191.5 311 L 190.5 313 L 191.5 311 Z " /><path fill="rgb(205,178,0)" stroke="rgb(205,178,0)" stroke-width="1" opacity="0.9450980392156862" d="M 396.5 312 L 397.5 314 L 396.5 312 Z " /><path fill="rgb(205,178,0)" stroke="rgb(205,178,0)" stroke-width="1" opacity="0.9450980392156862" d="M 188.5 313 L 187.5 315 L 188.5 313 Z " /><path fill="rgb(205,178,0)" stroke="rgb(205,178,0)" stroke-width="1" opacity="0.9450980392156862" d="M 135.5 315 L 133.5 318 L 135.5 315 Z " /><path fill="rgb(205,178,0)" stroke="rgb(205,178,0)" stroke-width="1" opacity="0.9450980392156862" d="M 185.5 315 L 184.5 317 L 185.5 315 Z " /><path fill="rgb(205,178,0)" stroke="rgb(205,178,0)" stroke-width="1" opacity="0.9450980392156862" d="M 353.5 316 L 362.5 326 L 353.5 316 Z " /><path fill="rgb(205,178,0)" stroke="rgb(205,178,0)" stroke-width="1" opacity="0.9450980392156862" d="M 181.5 318 L 178.5 322 L 181.5 318 Z " /><path fill="rgb(205,178,0)" stroke="rgb(205,178,0)" stroke-width="1" opacity="0.9450980392156862" d="M 132.5 319 L 131.5 321 L 132.5 319 Z " /><path fill="rgb(205,178,0)" stroke="rgb(205,178,0)" stroke-width="1" opacity="0.9450980392156862" d="M 172.5 326 L 171.5 328 L 172.5 326 Z " /><path fill="rgb(205,178,0)" stroke="rgb(205,178,0)" stroke-width="1" opacity="0.9450980392156862" d="M 165.5 334 L 163.5 337 L 165.5 334 Z " /><path fill="rgb(205,178,0)" stroke="rgb(205,178,0)" stroke-width="1" opacity="0.9450980392156862" d="M 370.5 337 L 371.5 339 L 370.5 337 Z " /><path fill="rgb(205,178,0)" stroke="rgb(205,178,0)" stroke-width="1" opacity="0.9450980392156862" d="M 161.5 339 L 160.5 341 L 161.5 339 Z " /><path fill="rgb(205,178,0)" stroke="rgb(205,178,0)" stroke-width="1" opacity="0.9450980392156862" d="M 157.5 345 L 156.5 347 L 157.5 345 Z " /><path fill="rgb(205,178,0)" stroke="rgb(205,178,0)" stroke-width="1" opacity="0.9450980392156862" d="M 416.5 361 L 417 363.5 L 416 363.5 L 416.5 361 Z " /><path fill="rgb(205,178,0)" stroke="rgb(205,178,0)" stroke-width="1" opacity="0.9450980392156862" d="M 109.5 368 L 110 370.5 L 109 370.5 L 109.5 368 Z " /><path fill="rgb(205,178,0)" stroke="rgb(205,178,0)" stroke-width="1" opacity="0.9450980392156862" d="M 417.5 368 L 418 371.5 L 417 371.5 L 417.5 368 Z " /><path fill="rgb(205,178,0)" stroke="rgb(205,178,0)" stroke-width="1" opacity="0.9450980392156862" d="M 382.5 371 L 383 375.5 L 382 375.5 L 382.5 371 Z " /><path fill="rgb(205,178,0)" stroke="rgb(205,178,0)" stroke-width="1" opacity="0.9450980392156862" d="M 108.5 373 L 109 375.5 L 108 375.5 L 108.5 373 Z " /><path fill="rgb(205,178,0)" stroke="rgb(205,178,0)" stroke-width="1" opacity="0.9450980392156862" d="M 107.5 380 L 108 383.5 L 107 383.5 L 107.5 380 Z " /><path fill="rgb(205,178,0)" stroke="rgb(205,178,0)" stroke-width="1" opacity="0.9450980392156862" d="M 418.5 380 L 419 385.5 L 418 385.5 L 418.5 380 Z " /><path fill="rgb(205,178,0)" stroke="rgb(205,178,0)" stroke-width="1" opacity="0.9450980392156862" d="M 142.5 383 L 143 386.5 L 142 386.5 L 142.5 383 Z " /><path fill="rgb(205,178,0)" stroke="rgb(205,178,0)" stroke-width="1" opacity="0.9450980392156862" d="M 416.5 393 L 415.5 395 L 416.5 393 Z " /><path fill="rgb(205,178,0)" stroke="rgb(205,178,0)" stroke-width="1" opacity="0.9450980392156862" d="M 414.5 396 L 411.5 400 L 414.5 396 Z " /><path fill="rgb(205,178,0)" stroke="rgb(205,178,0)" stroke-width="1" opacity="0.9450980392156862" d="M 387.5 397 L 388.5 399 L 387.5 397 Z " /><path fill="rgb(205,178,0)" stroke="rgb(205,178,0)" stroke-width="1" opacity="0.9450980392156862" d="M 82.5 399 L 83.5 401 L 82.5 399 Z " /><path fill="rgb(205,178,0)" stroke="rgb(205,178,0)" stroke-width="1" opacity="0.9450980392156862" d="M 138.5 402 L 137.5 404 L 138.5 402 Z " /><path fill="rgb(205,178,0)" stroke="rgb(205,178,0)" stroke-width="1" opacity="0.9450980392156862" d="M 85.5 403 L 87.5 406 L 85.5 403 Z " /><path fill="rgb(205,178,0)" stroke="rgb(205,178,0)" stroke-width="1" opacity="0.9450980392156862" d="M 135.5 405 L 134.5 407 L 135.5 405 Z " /><path fill="rgb(205,178,0)" stroke="rgb(205,178,0)" stroke-width="1" opacity="0.9450980392156862" d="M 431.5 407 L 430.5 409 L 431.5 407 Z " /><path fill="rgb(205,178,0)" stroke="rgb(205,178,0)" stroke-width="1" opacity="0.9450980392156862" d="M 121.5 409 L 128 409.5 L 121.5 410 L 121.5 409 Z " /><path fill="rgb(205,178,0)" stroke="rgb(205,178,0)" stroke-width="1" opacity="0.9450980392156862" d="M 91.5 410 L 101.5 421 L 91.5 410 Z " /><path fill="rgb(205,178,0)" stroke="rgb(205,178,0)" stroke-width="1" opacity="0.9450980392156862" d="M 428.5 411 L 425.5 415 L 428.5 411 Z " /><path fill="rgb(205,178,0)" stroke="rgb(205,178,0)" stroke-width="1" opacity="0.9450980392156862" d="M 421.5 419 L 413.5 428 L 421.5 419 Z " /><path fill="rgb(205,178,0)" stroke="rgb(205,178,0)" stroke-width="1" opacity="0.9450980392156862" d="M 106.5 424 L 107.5 426 L 106.5 424 Z " /><path fill="rgb(205,178,0)" stroke="rgb(205,178,0)" stroke-width="1" opacity="0.9450980392156862" d="M 110.5 427 L 111.5 429 L 110.5 427 Z " /><path fill="rgb(205,178,0)" stroke="rgb(205,178,0)" stroke-width="1" opacity="0.9450980392156862" d="M 407.5 432 L 405.5 435 L 407.5 432 Z " /><path fill="rgb(205,178,0)" stroke="rgb(205,178,0)" stroke-width="1" opacity="0.9450980392156862" d="M 391.5 443 L 390.5 445 L 391.5 443 Z " /><path fill="rgb(205,178,0)" stroke="rgb(205,178,0)" stroke-width="1" opacity="0.9450980392156862" d="M 207.5 466 L 210 466.5 L 207.5 467 L 207.5 466 Z " /><path fill="rgb(205,178,0)" stroke="rgb(205,178,0)" stroke-width="1" opacity="0.9450980392156862" d="M 216.5 467 L 220 467.5 L 216.5 468 L 216.5 467 Z " /><path fill="rgb(205,178,0)" stroke="rgb(205,178,0)" stroke-width="1" opacity="0.9450980392156862" d="M 317.5 467 L 320 467.5 L 317.5 468 L 317.5 467 Z " /><path fill="rgb(205,178,0)" stroke="rgb(205,178,0)" stroke-width="1" opacity="0.9450980392156862" d="M 228.5 468 L 232 468.5 L 228.5 469 L 228.5 468 Z " /><path fill="rgb(205,178,0)" stroke="rgb(205,178,0)" stroke-width="1" opacity="0.9450980392156862" d="M 305.5 468 L 310 468.5 L 305.5 469 L 305.5 468 Z " /><path fill="rgb(205,178,0)" stroke="rgb(205,178,0)" stroke-width="1" opacity="0.9450980392156862" d="M 246.5 469 L 262 469.5 L 246.5 470 L 246.5 469 Z " /><path fill="rgb(205,178,0)" stroke="rgb(205,178,0)" stroke-width="1" opacity="0.9450980392156862" d="M 272.5 469 L 290 469.5 L 272.5 470 L 272.5 469 Z " /><path fill="rgb(255,222,0)" stroke="rgb(255,222,0)" stroke-width="1" opacity="0.996078431372549" d="M 121.5 89 L 120.5 91 L 121.5 89 Z " /><path fill="rgb(255,222,0)" stroke="rgb(255,222,0)" stroke-width="1" opacity="0.996078431372549" d="M 411.5 98 L 413.5 101 L 411.5 98 Z " /><path fill="rgb(255,222,0)" stroke="rgb(255,222,0)" stroke-width="1" opacity="0.996078431372549" d="M 107.5 101 L 103.5 106 L 107.5 101 Z " /><path fill="rgb(255,222,0)" stroke="rgb(255,222,0)" stroke-width="1" opacity="0.996078431372549" d="M 98.5 110 L 93.5 116 L 98.5 110 Z " /><path fill="rgb(255,222,0)" stroke="rgb(255,222,0)" stroke-width="1" opacity="0.996078431372549" d="M 426.5 113 L 429.5 117 L 426.5 113 Z " /><path fill="rgb(255,222,0)" stroke="rgb(255,222,0)" stroke-width="1" opacity="0.996078431372549" d="M 433.5 121 L 434.5 123 L 433.5 121 Z " /><path fill="rgb(255,222,0)" stroke="rgb(255,222,0)" stroke-width="1" opacity="0.996078431372549" d="M 87.5 122 L 86.5 124 L 87.5 122 Z " /><path fill="rgb(255,222,0)" stroke="rgb(255,222,0)" stroke-width="1" opacity="0.996078431372549" d="M 474.5 237 L 475 239.5 L 474 239.5 L 474.5 237 Z " /><path fill="rgb(255,222,0)" stroke="rgb(255,222,0)" stroke-width="1" opacity="0.996078431372549" d="M 474.5 251 L 475 254.5 L 474 254.5 L 474.5 251 Z " /><path fill="rgb(255,222,0)" stroke="rgb(255,222,0)" stroke-width="1" opacity="0.996078431372549" d="M 37.5 264 L 38 266.5 L 37 266.5 L 37.5 264 Z " /><path fill="rgb(255,222,0)" stroke="rgb(255,222,0)" stroke-width="1" opacity="0.996078431372549" d="M 88.5 406 L 89.5 408 L 88.5 406 Z " /><path fill="rgb(255,222,0)" stroke="rgb(255,222,0)" stroke-width="1" opacity="0.996078431372549" d="M 104.5 422 L 105.5 424 L 104.5 422 Z " /><path fill="rgb(255,222,0)" stroke="rgb(255,222,0)" stroke-width="1" opacity="0.996078431372549" d="M 409.5 430 L 408.5 432 L 409.5 430 Z " /><path fill="rgb(255,222,0)" stroke="rgb(255,222,0)" stroke-width="1" opacity="0.996078431372549" d="M 262.5 469 L 272 469.5 L 262.5 470 L 262.5 469 Z " /><path fill="rgb(0,0,0)" stroke="rgb(0,0,0)" stroke-width="1" opacity="0" d="M 0 0 L 512 0 L 512 512 L 0 512 L 0 0 Z M 234 7 L 233 8 L 215 9 L 209 12 L 205 17 L 175 23 L 141 36 Q 108 52 84 75 Q 47 108 24 156 L 10 194 L 4 223 L 3 241 L 2 242 L 2 277 L 3 278 L 3 288 L 4 289 L 5 303 L 10 327 L 18 353 Q 29 383 45 408 L 71 441 L 90 456 L 114 472 Q 131 483 153 491 L 175 497 L 198 500 L 199 501 L 215 502 L 216 503 L 227 503 L 228 504 L 245 504 L 246 505 L 292 505 L 293 504 L 310 504 L 311 503 L 321 503 L 322 502 L 336 501 L 359 496 Q 402 484 433 458 Q 467 429 485 384 L 495 356 L 500 337 L 507 297 L 508 280 L 509 279 L 509 267 L 510 266 L 510 227 L 509 226 L 509 215 L 508 214 L 508 207 L 505 190 L 500 171 Q 484 124 455 92 Q 436 69 411 53 L 386 39 L 360 28 L 332 19 L 296 11 L 275 9 L 274 8 L 262 8 L 261 7 L 234 7 Z " /><path fill="rgb(16,14,0)" stroke="rgb(16,14,0)" stroke-width="1" opacity="0.8235294117647058" d="M 233.5 7 L 241 7.5 L 233.5 8 L 233.5 7 Z " /><path fill="rgb(16,14,0)" stroke="rgb(16,14,0)" stroke-width="1" opacity="0.8235294117647058" d="M 252.5 7 L 261 7.5 L 252.5 8 L 252.5 7 Z " /><path fill="rgb(16,14,0)" stroke="rgb(16,14,0)" stroke-width="1" opacity="0.8235294117647058" d="M 222.5 8 L 226 8.5 L 222.5 9 L 222.5 8 Z " /><path fill="rgb(16,14,0)" stroke="rgb(16,14,0)" stroke-width="1" opacity="0.8235294117647058" d="M 270.5 8 L 274 8.5 L 270.5 9 L 270.5 8 Z " /><path fill="rgb(16,14,0)" stroke="rgb(16,14,0)" stroke-width="1" opacity="0.8235294117647058" d="M 214.5 9 L 217 9.5 L 214.5 10 L 214.5 9 Z " /><path fill="rgb(16,14,0)" stroke="rgb(16,14,0)" stroke-width="1" opacity="0.8235294117647058" d="M 287.5 10 L 290 10.5 L 287.5 11 L 287.5 10 Z " /><path fill="rgb(16,14,0)" stroke="rgb(16,14,0)" stroke-width="1" opacity="0.8235294117647058" d="M 208.5 12 L 205.5 16 L 208.5 12 Z " /><path fill="rgb(16,14,0)" stroke="rgb(16,14,0)" stroke-width="1" opacity="0.8235294117647058" d="M 259.5 42 L 266 42.5 L 259.5 43 L 259.5 42 Z " /><path fill="rgb(16,14,0)" stroke="rgb(16,14,0)" stroke-width="1" opacity="0.8235294117647058" d="M 272.5 43 L 276 43.5 L 272.5 44 L 272.5 43 Z " /><path fill="rgb(16,14,0)" stroke="rgb(16,14,0)" stroke-width="1" opacity="0.8235294117647058" d="M 280.5 44 L 283 44.5 L 280.5 45 L 280.5 44 Z " /><path fill="rgb(16,14,0)" stroke="rgb(16,14,0)" stroke-width="1" opacity="0.8235294117647058" d="M 287.5 45 L 290 45.5 L 287.5 46 L 287.5 45 Z " /><path fill="rgb(16,14,0)" stroke="rgb(16,14,0)" stroke-width="1" opacity="0.8235294117647058" d="M 244.5 46 L 243.5 48 L 244.5 46 Z " /><path fill="rgb(16,14,0)" stroke="rgb(16,14,0)" stroke-width="1" opacity="0.8235294117647058" d="M 292.5 46 L 295 46.5 L 292.5 47 L 292.5 46 Z " /><path fill="rgb(16,14,0)" stroke="rgb(16,14,0)" stroke-width="1" opacity="0.8235294117647058" d="M 302.5 48 L 305 48.5 L 302.5 49 L 302.5 48 Z " /><path fill="rgb(16,14,0)" stroke="rgb(16,14,0)" stroke-width="1" opacity="0.8235294117647058" d="M 236.5 49 L 239 49.5 L 236.5 50 L 236.5 49 Z " /><path fill="rgb(16,14,0)" stroke="rgb(16,14,0)" stroke-width="1" opacity="0.8235294117647058" d="M 215.5 50 L 220 50.5 L 215.5 51 L 215.5 50 Z " /><path fill="rgb(16,14,0)" stroke="rgb(16,14,0)" stroke-width="1" opacity="0.8235294117647058" d="M 207.5 51 L 210 51.5 L 207.5 52 L 207.5 51 Z " /><path fill="rgb(16,14,0)" stroke="rgb(16,14,0)" stroke-width="1" opacity="0.8235294117647058" d="M 201.5 52 L 204 52.5 L 201.5 53 L 201.5 52 Z " /><path fill="rgb(16,14,0)" stroke="rgb(16,14,0)" stroke-width="1" opacity="0.8235294117647058" d="M 196.5 53 L 199 53.5 L 196.5 54 L 196.5 53 Z " /><path fill="rgb(16,14,0)" stroke="rgb(16,14,0)" stroke-width="1" opacity="0.8235294117647058" d="M 413.5 55 L 414.5 57 L 413.5 55 Z " /><path fill="rgb(16,14,0)" stroke="rgb(16,14,0)" stroke-width="1" opacity="0.8235294117647058" d="M 105.5 57 L 104.5 59 L 105.5 57 Z " /><path fill="rgb(16,14,0)" stroke="rgb(16,14,0)" stroke-width="1" opacity="0.8235294117647058" d="M 416.5 57 L 417.5 59 L 416.5 57 Z " /><path fill="rgb(16,14,0)" stroke="rgb(16,14,0)" stroke-width="1" opacity="0.8235294117647058" d="M 101.5 60 L 100.5 62 L 101.5 60 Z " /><path fill="rgb(16,14,0)" stroke="rgb(16,14,0)" stroke-width="1" opacity="0.8235294117647058" d="M 424.5 63 L 425.5 65 L 424.5 63 Z " /><path fill="rgb(16,14,0)" stroke="rgb(16,14,0)" stroke-width="1" opacity="0.8235294117647058" d="M 96.5 64 L 95.5 66 L 96.5 64 Z " /><path fill="rgb(16,14,0)" stroke="rgb(16,14,0)" stroke-width="1" opacity="0.8235294117647058" d="M 428.5 66 L 430.5 69 L 428.5 66 Z " /><path fill="rgb(16,14,0)" stroke="rgb(16,14,0)" stroke-width="1" opacity="0.8235294117647058" d="M 91.5 68 L 89.5 71 L 91.5 68 Z " /><path fill="rgb(16,14,0)" stroke="rgb(16,14,0)" stroke-width="1" opacity="0.8235294117647058" d="M 434.5 71 L 438.5 76 L 434.5 71 Z " /><path fill="rgb(16,14,0)" stroke="rgb(16,14,0)" stroke-width="1" opacity="0.8235294117647058" d="M 144.5 73 L 143.5 75 L 144.5 73 Z " /><path fill="rgb(16,14,0)" stroke="rgb(16,14,0)" stroke-width="1" opacity="0.8235294117647058" d="M 83.5 75 L 76.5 83 L 83.5 75 Z " /><path fill="rgb(16,14,0)" stroke="rgb(16,14,0)" stroke-width="1" opacity="0.8235294117647058" d="M 139.5 76 L 138.5 78 L 139.5 76 Z " /><path fill="rgb(16,14,0)" stroke="rgb(16,14,0)" stroke-width="1" opacity="0.8235294117647058" d="M 131.5 81 L 130.5 83 L 131.5 81 Z " /><path fill="rgb(16,14,0)" stroke="rgb(16,14,0)" stroke-width="1" opacity="0.8235294117647058" d="M 391.5 82 L 392.5 84 L 391.5 82 Z " /><path fill="rgb(16,14,0)" stroke="rgb(16,14,0)" stroke-width="1" opacity="0.8235294117647058" d="M 394.5 84 L 395.5 86 L 394.5 84 Z " /><path fill="rgb(16,14,0)" stroke="rgb(16,14,0)" stroke-width="1" opacity="0.8235294117647058" d="M 72.5 86 L 67.5 92 L 72.5 86 Z " /><path fill="rgb(16,14,0)" stroke="rgb(16,14,0)" stroke-width="1" opacity="0.8235294117647058" d="M 124.5 86 L 123.5 88 L 124.5 86 Z " /><path fill="rgb(16,14,0)" stroke="rgb(16,14,0)" stroke-width="1" opacity="0.8235294117647058" d="M 397.5 86 L 398.5 88 L 397.5 86 Z " /><path fill="rgb(16,14,0)" stroke="rgb(16,14,0)" stroke-width="1" opacity="0.8235294117647058" d="M 120.5 89 L 119.5 91 L 120.5 89 Z " /><path fill="rgb(16,14,0)" stroke="rgb(16,14,0)" stroke-width="1" opacity="0.8235294117647058" d="M 401.5 89 L 402.5 91 L 401.5 89 Z " /><path fill="rgb(16,14,0)" stroke="rgb(16,14,0)" stroke-width="1" opacity="0.8235294117647058" d="M 452.5 89 L 454.5 92 L 452.5 89 Z " /><path fill="rgb(16,14,0)" stroke="rgb(16,14,0)" stroke-width="1" opacity="0.8235294117647058" d="M 405.5 92 L 407.5 95 L 405.5 92 Z " /><path fill="rgb(16,14,0)" stroke="rgb(16,14,0)" stroke-width="1" opacity="0.8235294117647058" d="M 115.5 93 L 113.5 96 L 115.5 93 Z " /><path fill="rgb(16,14,0)" stroke="rgb(16,14,0)" stroke-width="1" opacity="0.8235294117647058" d="M 63.5 96 L 60.5 100 L 63.5 96 Z " /><path fill="rgb(16,14,0)" stroke="rgb(16,14,0)" stroke-width="1" opacity="0.8235294117647058" d="M 458.5 96 L 460.5 99 L 458.5 96 Z " /><path fill="rgb(16,14,0)" stroke="rgb(16,14,0)" stroke-width="1" opacity="0.8235294117647058" d="M 411.5 97 L 416.5 103 L 411.5 97 Z " /><path fill="rgb(16,14,0)" stroke="rgb(16,14,0)" stroke-width="1" opacity="0.8235294117647058" d="M 108.5 99 L 92.5 116 L 108.5 99 Z " /><path fill="rgb(16,14,0)" stroke="rgb(16,14,0)" stroke-width="1" opacity="0.8235294117647058" d="M 462.5 101 L 463.5 103 L 462.5 101 Z " /><path fill="rgb(16,14,0)" stroke="rgb(16,14,0)" stroke-width="1" opacity="0.8235294117647058" d="M 57.5 103 L 56.5 105 L 57.5 103 Z " /><path fill="rgb(16,14,0)" stroke="rgb(16,14,0)" stroke-width="1" opacity="0.8235294117647058" d="M 54.5 107 L 53.5 109 L 54.5 107 Z " /><path fill="rgb(16,14,0)" stroke="rgb(16,14,0)" stroke-width="1" opacity="0.8235294117647058" d="M 468.5 109 L 469.5 111 L 468.5 109 Z " /><path fill="rgb(16,14,0)" stroke="rgb(16,14,0)" stroke-width="1" opacity="0.8235294117647058" d="M 425.5 111 L 430.5 117 L 425.5 111 Z " /><path fill="rgb(16,14,0)" stroke="rgb(16,14,0)" stroke-width="1" opacity="0.8235294117647058" d="M 48.5 115 L 47.5 117 L 48.5 115 Z " /><path fill="rgb(16,14,0)" stroke="rgb(16,14,0)" stroke-width="1" opacity="0.8235294117647058" d="M 88.5 120 L 85.5 124 L 88.5 120 Z " /><path fill="rgb(16,14,0)" stroke="rgb(16,14,0)" stroke-width="1" opacity="0.8235294117647058" d="M 433.5 120 L 435.5 123 L 433.5 120 Z " /><path fill="rgb(16,14,0)" stroke="rgb(16,14,0)" stroke-width="1" opacity="0.8235294117647058" d="M 437.5 125 L 438.5 127 L 437.5 125 Z " /><path fill="rgb(16,14,0)" stroke="rgb(16,14,0)" stroke-width="1" opacity="0.8235294117647058" d="M 83.5 126 L 81.5 129 L 83.5 126 Z " /><path fill="rgb(16,14,0)" stroke="rgb(16,14,0)" stroke-width="1" opacity="0.8235294117647058" d="M 79.5 131 L 78.5 133 L 79.5 131 Z " /><path fill="rgb(16,14,0)" stroke="rgb(16,14,0)" stroke-width="1" opacity="0.8235294117647058" d="M 442.5 132 L 443.5 134 L 442.5 132 Z " /><path fill="rgb(16,14,0)" stroke="rgb(16,14,0)" stroke-width="1" opacity="0.8235294117647058" d="M 74.5 138 L 73.5 140 L 74.5 138 Z " /><path fill="rgb(16,14,0)" stroke="rgb(16,14,0)" stroke-width="1" opacity="0.8235294117647058" d="M 447.5 140 L 448.5 142 L 447.5 140 Z " /><path fill="rgb(16,14,0)" stroke="rgb(16,14,0)" stroke-width="1" opacity="0.8235294117647058" d="M 72.5 141 L 71.5 143 L 72.5 141 Z " /><path fill="rgb(16,14,0)" stroke="rgb(16,14,0)" stroke-width="1" opacity="0.8235294117647058" d="M 450.5 145 L 451.5 147 L 450.5 145 Z " /><path fill="rgb(16,14,0)" stroke="rgb(16,14,0)" stroke-width="1" opacity="0.8235294117647058" d="M 67.5 149 L 66.5 151 L 67.5 149 Z " /><path fill="rgb(16,14,0)" stroke="rgb(16,14,0)" stroke-width="1" opacity="0.8235294117647058" d="M 64.5 154 L 63.5 156 L 64.5 154 Z " /><path fill="rgb(16,14,0)" stroke="rgb(16,14,0)" stroke-width="1" opacity="0.8235294117647058" d="M 472.5 206 L 473 208.5 L 472 208.5 L 472.5 206 Z " /><path fill="rgb(16,14,0)" stroke="rgb(16,14,0)" stroke-width="1" opacity="0.8235294117647058" d="M 507.5 206 L 508 208.5 L 507 208.5 L 507.5 206 Z " /><path fill="rgb(16,14,0)" stroke="rgb(16,14,0)" stroke-width="1" opacity="0.8235294117647058" d="M 473.5 212 L 474 215.5 L 473 215.5 L 473.5 212 Z " /><path fill="rgb(16,14,0)" stroke="rgb(16,14,0)" stroke-width="1" opacity="0.8235294117647058" d="M 508.5 214 L 509 217.5 L 508 217.5 L 508.5 214 Z " /><path fill="rgb(16,14,0)" stroke="rgb(16,14,0)" stroke-width="1" opacity="0.8235294117647058" d="M 4.5 222 L 5 224.5 L 4 224.5 L 4.5 222 Z " /><path fill="rgb(16,14,0)" stroke="rgb(16,14,0)" stroke-width="1" opacity="0.8235294117647058" d="M 39.5 222 L 40 224.5 L 39 224.5 L 39.5 222 Z " /><path fill="rgb(16,14,0)" stroke="rgb(16,14,0)" stroke-width="1" opacity="0.8235294117647058" d="M 474.5 222 L 475 228.5 L 474 228.5 L 474.5 222 Z " /><path fill="rgb(16,14,0)" stroke="rgb(16,14,0)" stroke-width="1" opacity="0.8235294117647058" d="M 509.5 226 L 510 233.5 L 509 233.5 L 509.5 226 Z " /><path fill="rgb(16,14,0)" stroke="rgb(16,14,0)" stroke-width="1" opacity="0.8235294117647058" d="M 38.5 228 L 39 231.5 L 38 231.5 L 38.5 228 Z " /><path fill="rgb(16,14,0)" stroke="rgb(16,14,0)" stroke-width="1" opacity="0.8235294117647058" d="M 3.5 230 L 4 233.5 L 3 233.5 L 3.5 230 Z " /><path fill="rgb(16,14,0)" stroke="rgb(16,14,0)" stroke-width="1" opacity="0.8235294117647058" d="M 37.5 237 L 38 243.5 L 37 243.5 L 37.5 237 Z " /><path fill="rgb(16,14,0)" stroke="rgb(16,14,0)" stroke-width="1" opacity="0.8235294117647058" d="M 2.5 241 L 3 247.5 L 2 247.5 L 2.5 241 Z " /><path fill="rgb(16,14,0)" stroke="rgb(16,14,0)" stroke-width="1" opacity="0.8235294117647058" d="M 509.5 257 L 510 265.5 L 509 265.5 L 509.5 257 Z " /><path fill="rgb(16,14,0)" stroke="rgb(16,14,0)" stroke-width="1" opacity="0.8235294117647058" d="M 474.5 262 L 475 269.5 L 474 269.5 L 474.5 262 Z " /><path fill="rgb(16,14,0)" stroke="rgb(16,14,0)" stroke-width="1" opacity="0.8235294117647058" d="M 2.5 269 L 3 276.5 L 2 276.5 L 2.5 269 Z " /><path fill="rgb(16,14,0)" stroke="rgb(16,14,0)" stroke-width="1" opacity="0.8235294117647058" d="M 37.5 274 L 38 279.5 L 37 279.5 L 37.5 274 Z " /><path fill="rgb(16,14,0)" stroke="rgb(16,14,0)" stroke-width="1" opacity="0.8235294117647058" d="M 508.5 275 L 509 278.5 L 508 278.5 L 508.5 275 Z " /><path fill="rgb(16,14,0)" stroke="rgb(16,14,0)" stroke-width="1" opacity="0.8235294117647058" d="M 473.5 277 L 474 280.5 L 473 280.5 L 473.5 277 Z " /><path fill="rgb(16,14,0)" stroke="rgb(16,14,0)" stroke-width="1" opacity="0.8235294117647058" d="M 3.5 284 L 4 287.5 L 3 287.5 L 3.5 284 Z " /><path fill="rgb(16,14,0)" stroke="rgb(16,14,0)" stroke-width="1" opacity="0.8235294117647058" d="M 38.5 286 L 39 289.5 L 38 289.5 L 38.5 286 Z " /><path fill="rgb(16,14,0)" stroke="rgb(16,14,0)" stroke-width="1" opacity="0.8235294117647058" d="M 507.5 286 L 508 288.5 L 507 288.5 L 507.5 286 Z " /><path fill="rgb(16,14,0)" stroke="rgb(16,14,0)" stroke-width="1" opacity="0.8235294117647058" d="M 472.5 287 L 473 290.5 L 472 290.5 L 472.5 287 Z " /><path fill="rgb(16,14,0)" stroke="rgb(16,14,0)" stroke-width="1" opacity="0.8235294117647058" d="M 4.5 293 L 5 295.5 L 4 295.5 L 4.5 293 Z " /><path fill="rgb(16,14,0)" stroke="rgb(16,14,0)" stroke-width="1" opacity="0.8235294117647058" d="M 39.5 293 L 40 295.5 L 39 295.5 L 39.5 293 Z " /><path fill="rgb(16,14,0)" stroke="rgb(16,14,0)" stroke-width="1" opacity="0.8235294117647058" d="M 506.5 294 L 507 296.5 L 506 296.5 L 506.5 294 Z " /><path fill="rgb(16,14,0)" stroke="rgb(16,14,0)" stroke-width="1" opacity="0.8235294117647058" d="M 471.5 295 L 472 297.5 L 471 297.5 L 471.5 295 Z " /><path fill="rgb(16,14,0)" stroke="rgb(16,14,0)" stroke-width="1" opacity="0.8235294117647058" d="M 40.5 299 L 41 301.5 L 40 301.5 L 40.5 299 Z " /><path fill="rgb(16,14,0)" stroke="rgb(16,14,0)" stroke-width="1" opacity="0.8235294117647058" d="M 5.5 300 L 6 302.5 L 5 302.5 L 5.5 300 Z " /><path fill="rgb(16,14,0)" stroke="rgb(16,14,0)" stroke-width="1" opacity="0.8235294117647058" d="M 470.5 302 L 471 304.5 L 470 304.5 L 470.5 302 Z " /><path fill="rgb(16,14,0)" stroke="rgb(16,14,0)" stroke-width="1" opacity="0.8235294117647058" d="M 504.5 308 L 505 310.5 L 504 310.5 L 504.5 308 Z " /><path fill="rgb(16,14,0)" stroke="rgb(16,14,0)" stroke-width="1" opacity="0.8235294117647058" d="M 468.5 313 L 469 315.5 L 468 315.5 L 468.5 313 Z " /><path fill="rgb(16,14,0)" stroke="rgb(16,14,0)" stroke-width="1" opacity="0.8235294117647058" d="M 503.5 314 L 504 316.5 L 503 316.5 L 503.5 314 Z " /><path fill="rgb(16,14,0)" stroke="rgb(16,14,0)" stroke-width="1" opacity="0.8235294117647058" d="M 467.5 318 L 468 320.5 L 467 320.5 L 467.5 318 Z " /><path fill="rgb(16,14,0)" stroke="rgb(16,14,0)" stroke-width="1" opacity="0.8235294117647058" d="M 74.5 388 L 75.5 390 L 74.5 388 Z " /><path fill="rgb(16,14,0)" stroke="rgb(16,14,0)" stroke-width="1" opacity="0.8235294117647058" d="M 76.5 391 L 77.5 393 L 76.5 391 Z " /><path fill="rgb(16,14,0)" stroke="rgb(16,14,0)" stroke-width="1" opacity="0.8235294117647058" d="M 78.5 394 L 79.5 396 L 78.5 394 Z " /><path fill="rgb(16,14,0)" stroke="rgb(16,14,0)" stroke-width="1" opacity="0.8235294117647058" d="M 440.5 394 L 439.5 396 L 440.5 394 Z " /><path fill="rgb(16,14,0)" stroke="rgb(16,14,0)" stroke-width="1" opacity="0.8235294117647058" d="M 80.5 397 L 81.5 399 L 80.5 397 Z " /><path fill="rgb(16,14,0)" stroke="rgb(16,14,0)" stroke-width="1" opacity="0.8235294117647058" d="M 83.5 401 L 84.5 403 L 83.5 401 Z " /><path fill="rgb(16,14,0)" stroke="rgb(16,14,0)" stroke-width="1" opacity="0.8235294117647058" d="M 87.5 406 L 90.5 410 L 87.5 406 Z " /><path fill="rgb(16,14,0)" stroke="rgb(16,14,0)" stroke-width="1" opacity="0.8235294117647058" d="M 45.5 407 L 46.5 409 L 45.5 407 Z " /><path fill="rgb(16,14,0)" stroke="rgb(16,14,0)" stroke-width="1" opacity="0.8235294117647058" d="M 430.5 409 L 429.5 411 L 430.5 409 Z " /><path fill="rgb(16,14,0)" stroke="rgb(16,14,0)" stroke-width="1" opacity="0.8235294117647058" d="M 47.5 410 L 48.5 412 L 47.5 410 Z " /><path fill="rgb(16,14,0)" stroke="rgb(16,14,0)" stroke-width="1" opacity="0.8235294117647058" d="M 49.5 413 L 50.5 415 L 49.5 413 Z " /><path fill="rgb(16,14,0)" stroke="rgb(16,14,0)" stroke-width="1" opacity="0.8235294117647058" d="M 426.5 414 L 422.5 419 L 426.5 414 Z " /><path fill="rgb(16,14,0)" stroke="rgb(16,14,0)" stroke-width="1" opacity="0.8235294117647058" d="M 102.5 421 L 105.5 425 L 102.5 421 Z " /><path fill="rgb(16,14,0)" stroke="rgb(16,14,0)" stroke-width="1" opacity="0.8235294117647058" d="M 464.5 421 L 463.5 423 L 464.5 421 Z " /><path fill="rgb(16,14,0)" stroke="rgb(16,14,0)" stroke-width="1" opacity="0.8235294117647058" d="M 57.5 424 L 59.5 427 L 57.5 424 Z " /><path fill="rgb(16,14,0)" stroke="rgb(16,14,0)" stroke-width="1" opacity="0.8235294117647058" d="M 108.5 426 L 109.5 428 L 108.5 426 Z " /><path fill="rgb(16,14,0)" stroke="rgb(16,14,0)" stroke-width="1" opacity="0.8235294117647058" d="M 412.5 428 L 409.5 432 L 412.5 428 Z " /><path fill="rgb(16,14,0)" stroke="rgb(16,14,0)" stroke-width="1" opacity="0.8235294117647058" d="M 459.5 428 L 458.5 430 L 459.5 428 Z " /><path fill="rgb(16,14,0)" stroke="rgb(16,14,0)" stroke-width="1" opacity="0.8235294117647058" d="M 62.5 430 L 64.5 433 L 62.5 430 Z " /><path fill="rgb(16,14,0)" stroke="rgb(16,14,0)" stroke-width="1" opacity="0.8235294117647058" d="M 456.5 432 L 454.5 435 L 456.5 432 Z " /><path fill="rgb(16,14,0)" stroke="rgb(16,14,0)" stroke-width="1" opacity="0.8235294117647058" d="M 123.5 436 L 124.5 438 L 123.5 436 Z " /><path fill="rgb(16,14,0)" stroke="rgb(16,14,0)" stroke-width="1" opacity="0.8235294117647058" d="M 401.5 437 L 400.5 439 L 401.5 437 Z " /><path fill="rgb(16,14,0)" stroke="rgb(16,14,0)" stroke-width="1" opacity="0.8235294117647058" d="M 452.5 437 L 449.5 441 L 452.5 437 Z " /><path fill="rgb(16,14,0)" stroke="rgb(16,14,0)" stroke-width="1" opacity="0.8235294117647058" d="M 128.5 439 L 129.5 441 L 128.5 439 Z " /><path fill="rgb(16,14,0)" stroke="rgb(16,14,0)" stroke-width="1" opacity="0.8235294117647058" d="M 398.5 439 L 397.5 441 L 398.5 439 Z " /><path fill="rgb(16,14,0)" stroke="rgb(16,14,0)" stroke-width="1" opacity="0.8235294117647058" d="M 395.5 441 L 394.5 443 L 395.5 441 Z " /><path fill="rgb(16,14,0)" stroke="rgb(16,14,0)" stroke-width="1" opacity="0.8235294117647058" d="M 138.5 445 L 139.5 447 L 138.5 445 Z " /><path fill="rgb(16,14,0)" stroke="rgb(16,14,0)" stroke-width="1" opacity="0.8235294117647058" d="M 79.5 447 L 80.5 449 L 79.5 447 Z " /><path fill="rgb(16,14,0)" stroke="rgb(16,14,0)" stroke-width="1" opacity="0.8235294117647058" d="M 84.5 451 L 85.5 453 L 84.5 451 Z " /><path fill="rgb(16,14,0)" stroke="rgb(16,14,0)" stroke-width="1" opacity="0.8235294117647058" d="M 435.5 454 L 432.5 458 L 435.5 454 Z " /><path fill="rgb(16,14,0)" stroke="rgb(16,14,0)" stroke-width="1" opacity="0.8235294117647058" d="M 95.5 459 L 96.5 461 L 95.5 459 Z " /><path fill="rgb(16,14,0)" stroke="rgb(16,14,0)" stroke-width="1" opacity="0.8235294117647058" d="M 428.5 460 L 427.5 462 L 428.5 460 Z " /><path fill="rgb(16,14,0)" stroke="rgb(16,14,0)" stroke-width="1" opacity="0.8235294117647058" d="M 98.5 461 L 99.5 463 L 98.5 461 Z " /><path fill="rgb(16,14,0)" stroke="rgb(16,14,0)" stroke-width="1" opacity="0.8235294117647058" d="M 101.5 463 L 102.5 465 L 101.5 463 Z " /><path fill="rgb(16,14,0)" stroke="rgb(16,14,0)" stroke-width="1" opacity="0.8235294117647058" d="M 185.5 463 L 188 463.5 L 185.5 464 L 185.5 463 Z " /><path fill="rgb(16,14,0)" stroke="rgb(16,14,0)" stroke-width="1" opacity="0.8235294117647058" d="M 424.5 463 L 423.5 465 L 424.5 463 Z " /><path fill="rgb(16,14,0)" stroke="rgb(16,14,0)" stroke-width="1" opacity="0.8235294117647058" d="M 104.5 465 L 105.5 467 L 104.5 465 Z " /><path fill="rgb(16,14,0)" stroke="rgb(16,14,0)" stroke-width="1" opacity="0.8235294117647058" d="M 197.5 465 L 200 465.5 L 197.5 466 L 197.5 465 Z " /><path fill="rgb(16,14,0)" stroke="rgb(16,14,0)" stroke-width="1" opacity="0.8235294117647058" d="M 203.5 466 L 207 466.5 L 203.5 467 L 203.5 466 Z " /><path fill="rgb(16,14,0)" stroke="rgb(16,14,0)" stroke-width="1" opacity="0.8235294117647058" d="M 327.5 466 L 330 466.5 L 327.5 467 L 327.5 466 Z " /><path fill="rgb(16,14,0)" stroke="rgb(16,14,0)" stroke-width="1" opacity="0.8235294117647058" d="M 212.5 467 L 216 467.5 L 212.5 468 L 212.5 467 Z " /><path fill="rgb(16,14,0)" stroke="rgb(16,14,0)" stroke-width="1" opacity="0.8235294117647058" d="M 320.5 467 L 324 467.5 L 320.5 468 L 320.5 467 Z " /><path fill="rgb(16,14,0)" stroke="rgb(16,14,0)" stroke-width="1" opacity="0.8235294117647058" d="M 222.5 468 L 228 468.5 L 222.5 469 L 222.5 468 Z " /><path fill="rgb(16,14,0)" stroke="rgb(16,14,0)" stroke-width="1" opacity="0.8235294117647058" d="M 310.5 468 L 315 468.5 L 310.5 469 L 310.5 468 Z " /><path fill="rgb(16,14,0)" stroke="rgb(16,14,0)" stroke-width="1" opacity="0.8235294117647058" d="M 236.5 469 L 246 469.5 L 236.5 470 L 236.5 469 Z " /><path fill="rgb(16,14,0)" stroke="rgb(16,14,0)" stroke-width="1" opacity="0.8235294117647058" d="M 290.5 469 L 302 469.5 L 290.5 470 L 290.5 469 Z " /><path fill="rgb(16,14,0)" stroke="rgb(16,14,0)" stroke-width="1" opacity="0.8235294117647058" d="M 112.5 470 L 113.5 472 L 112.5 470 Z " /><path fill="rgb(16,14,0)" stroke="rgb(16,14,0)" stroke-width="1" opacity="0.8235294117647058" d="M 198.5 500 L 201 500.5 L 198.5 501 L 198.5 500 Z " /><path fill="rgb(16,14,0)" stroke="rgb(16,14,0)" stroke-width="1" opacity="0.8235294117647058" d="M 333.5 500 L 336 500.5 L 333.5 501 L 333.5 500 Z " /><path fill="rgb(16,14,0)" stroke="rgb(16,14,0)" stroke-width="1" opacity="0.8235294117647058" d="M 206.5 501 L 209 501.5 L 206.5 502 L 206.5 501 Z " /><path fill="rgb(16,14,0)" stroke="rgb(16,14,0)" stroke-width="1" opacity="0.8235294117647058" d="M 326.5 501 L 329 501.5 L 326.5 502 L 326.5 501 Z " /><path fill="rgb(16,14,0)" stroke="rgb(16,14,0)" stroke-width="1" opacity="0.8235294117647058" d="M 215.5 502 L 219 502.5 L 215.5 503 L 215.5 502 Z " /><path fill="rgb(16,14,0)" stroke="rgb(16,14,0)" stroke-width="1" opacity="0.8235294117647058" d="M 317.5 502 L 321 502.5 L 317.5 503 L 317.5 502 Z " /><path fill="rgb(16,14,0)" stroke="rgb(16,14,0)" stroke-width="1" opacity="0.8235294117647058" d="M 227.5 503 L 232 503.5 L 227.5 504 L 227.5 503 Z " /><path fill="rgb(16,14,0)" stroke="rgb(16,14,0)" stroke-width="1" opacity="0.8235294117647058" d="M 305.5 503 L 310 503.5 L 305.5 504 L 305.5 503 Z " /><path fill="rgb(16,14,0)" stroke="rgb(16,14,0)" stroke-width="1" opacity="0.8235294117647058" d="M 245.5 504 L 257 504.5 L 245.5 505 L 245.5 504 Z " /><path fill="rgb(16,14,0)" stroke="rgb(16,14,0)" stroke-width="1" opacity="0.8235294117647058" d="M 278.5 504 L 292 504.5 L 278.5 505 L 278.5 504 Z " /><path fill="rgb(255,222,0)" stroke="rgb(255,222,0)" stroke-width="1" opacity="1" d="M 249.5 43 L 276.5 44 L 304.5 49 L 324.5 54 L 356.5 65 Q 398.1 81.9 426 112.5 Q 448.4 136.6 462 169.5 L 467 184.5 L 473 211.5 L 475 250.5 L 474 251.5 L 473 282.5 L 472 283.5 L 469 310.5 L 462 341.5 L 457 357.5 Q 441.9 401.9 410.5 430 Q 393.4 444.4 371.5 454 L 335.5 465 L 330.5 465 L 324.5 467 L 316.5 467 L 315.5 468 L 304.5 468 L 303.5 469 L 234.5 469 L 233.5 468 L 220.5 468 L 219.5 467 L 211.5 467 L 210.5 466 L 190.5 464 L 172.5 460 L 157.5 455 L 141.5 447 L 112.5 429 L 90 408.5 Q 67 381 53 344.5 L 45 319.5 L 40 296.5 L 39 282.5 L 38 281.5 L 37 253.5 L 38 252.5 L 38 236.5 L 39 235.5 L 39 228.5 L 42 212.5 L 53 177.5 Q 71.7 135.7 102.5 106 Q 127.8 80.8 162.5 65 Q 182.3 56.3 206.5 52 L 240.5 50 L 249.5 43 Z M 184 186 L 171 191 Q 162 196 160 208 Q 159 222 166 229 Q 171 235 181 237 L 191 237 L 202 232 Q 208 226 211 216 Q 212 203 206 197 Q 201 190 193 187 L 184 186 Z M 333 186 L 322 190 Q 313 196 310 207 L 310 217 L 315 228 Q 320 235 331 237 L 341 237 L 350 233 L 357 226 L 361 213 L 359 203 L 355 196 Q 348 186 333 186 Z M 257 256 L 256 257 L 244 257 L 243 258 L 226 260 L 192 271 Q 166 283 148 301 Q 129 319 117 345 L 109 369 L 108 380 L 107 381 L 107 392 L 106 393 L 109 402 Q 113 408 122 410 Q 130 411 135 407 Q 140 403 142 397 L 143 381 L 149 361 Q 156 345 166 334 Q 183 313 210 302 L 229 296 L 244 293 L 252 293 L 253 292 L 280 292 L 281 293 L 290 293 L 307 296 L 333 304 L 351 314 Q 367 327 376 348 L 382 369 L 383 390 L 387 398 L 396 403 Q 407 405 412 400 L 417 394 L 419 386 L 417 362 L 410 337 Q 402 316 388 301 Q 376 287 361 278 L 336 267 L 297 258 L 277 257 L 276 256 L 257 256 Z " /><path fill="rgb(0,0,0)" stroke="rgb(0,0,0)" stroke-width="1" opacity="1" d="M 241.5 7 L 269.5 8 L 270.5 9 L 279.5 9 L 280.5 10 L 304.5 13 L 340.5 22 L 363.5 30 Q 417.1 49.9 452 88.5 Q 481.5 120.5 498 165.5 L 504 186.5 L 508 209.5 L 509 233.5 L 510 234.5 L 510 256.5 L 509 257.5 L 508 285.5 L 507 286.5 L 507 293.5 L 506 294.5 L 506 301.5 L 505 302.5 L 503 319.5 L 496 350.5 L 489 372.5 Q 471.4 421.9 436.5 454 Q 405.8 481.8 360.5 495 L 338.5 500 L 317.5 502 L 316.5 503 L 257.5 505 L 256.5 504 L 232.5 504 L 231.5 503 L 219.5 503 L 218.5 502 L 201.5 501 L 200.5 500 L 194.5 500 L 171.5 496 L 153.5 491 Q 101.2 470.3 65 433.5 Q 34.2 397.8 17 348.5 L 9 320.5 L 5 299.5 L 4 284.5 L 3 283.5 L 3 269.5 L 2 268.5 L 2 248.5 L 3 247.5 L 4 225.5 L 9 198.5 L 15 178.5 L 23 158.5 Q 43.6 115.1 75.5 83 Q 104.3 53.8 143.5 35 L 175.5 23 L 197.5 18 L 202.5 18 L 212.5 10 L 225.5 9 L 226.5 8 L 240.5 8 L 241.5 7 Z M 250 42 L 241 49 L 236 50 L 216 50 L 215 51 L 202 52 Q 182 56 165 63 Q 133 77 109 99 Q 82 123 63 156 Q 51 176 44 201 L 37 238 L 37 280 L 38 281 L 38 290 L 46 327 Q 60 373 87 407 L 110 428 Q 131 444 158 456 L 186 464 L 203 466 L 204 467 L 212 467 L 213 468 L 222 468 L 223 469 L 236 469 L 237 470 L 302 470 L 303 469 L 324 468 L 340 465 Q 382 456 410 432 L 431 410 Q 444 392 453 371 L 460 352 L 468 321 L 472 298 L 472 292 L 473 291 L 474 271 L 475 270 L 475 223 L 474 222 L 473 207 L 468 185 Q 456 144 431 117 Q 402 82 357 64 Q 332 54 305 48 L 276 43 L 250 42 Z " /><path fill="rgb(0,0,0)" stroke="rgb(0,0,0)" stroke-width="1" opacity="1" d="M 180.5 187 Q 188.7 185.8 193.5 188 Q 202.3 191.3 207 198.5 Q 211.8 204.7 210 217.5 Q 207.6 227.1 200.5 232 Q 194.6 237.1 183.5 237 L 173.5 234 L 165 226.5 L 161 218.5 L 161 205.5 Q 163.8 195.8 171.5 191 L 180.5 187 Z " /><path fill="rgb(0,0,0)" stroke="rgb(0,0,0)" stroke-width="1" opacity="1" d="M 329.5 187 Q 338.4 185.6 343.5 188 Q 351.3 191.3 356 197.5 L 359 203.5 L 360 216.5 Q 357.9 225.9 351.5 231 Q 345.3 237.3 332.5 237 Q 319.8 234.8 314 225.5 L 311 219.5 L 310 208.5 Q 312 197.5 319.5 192 L 329.5 187 Z " /><path fill="rgb(0,0,0)" stroke="rgb(0,0,0)" stroke-width="1" opacity="1" d="M 248.5 257 L 283.5 257 L 284.5 258 L 305.5 260 L 327.5 265 Q 367.2 275.8 390 303.5 Q 405.2 321.3 413 346.5 L 418 372.5 L 418 389.5 Q 415.4 396.9 409.5 401 L 403.5 403 L 397.5 403 Q 389.9 401.1 386 395.5 L 383 387.5 L 383 371.5 L 381 361.5 L 376 346.5 Q 367.7 328.3 353.5 316 L 331.5 303 L 308.5 296 L 285.5 292 L 247.5 292 L 226.5 296 L 208.5 302 Q 186.5 311.5 171 327.5 Q 156.8 341.8 148 361.5 L 142 383.5 L 142 394.5 L 137 405 L 129.5 409 L 119.5 409 L 110 402.5 Q 105.4 396.7 107 384.5 L 111 362.5 L 123 333.5 Q 135.5 312 153.5 296 Q 170.4 280.9 192.5 271 L 218.5 262 L 239.5 258 L 247.5 258 L 248.5 257 Z " /></svg>