<svg width="512" height="512" version="1.1" xmlns="http://www.w3.org/2000/svg" desc="Created with imagetracer.js version 1.2.6" ><path fill="rgb(0,0,0)" stroke="rgb(0,0,0)" stroke-width="1" opacity="0" d="M 0 0 L 512 0 L 512 472.5 L 511 472.5 Q 510.2 464.8 506 460.5 L 478.5 433 L 419.5 375 L 415.5 373 L 389.5 402 L 372 416.5 L 380.5 426 L 461.5 505 L 474.5 511 L 487.5 511 Q 497.8 508.3 504 501.5 L 510 492.5 L 511.5 486 L 512 512 L 0 512 L 0 235.5 L 1 235.5 L 1 244.5 L 5 267.5 Q 10.2 289.8 19 308.5 Q 38.4 350.1 70.5 379 Q 99.8 406.2 140.5 422 L 175.5 432 L 194.5 434 L 195.5 435 L 222.5 436 L 223.5 435 L 247.5 434 L 268.5 430 Q 290.1 424.6 308.5 416 Q 352.3 395.3 382 360.5 Q 406.3 332.8 421 295.5 L 428 273.5 L 433 248.5 L 434 228.5 L 435 227.5 L 435 208.5 L 434 207.5 L 433 187.5 L 429 166.5 Q 423.3 143.7 414 124.5 Q 394 83.5 361.5 55 Q 327.6 24.4 278.5 9 L 245.5 2 L 236.5 2 L 235.5 1 L 198.5 1 L 197.5 2 L 182.5 3 L 159.5 8 L 124.5 21 Q 87.7 38.7 61 66.5 Q 36.3 91.8 20 125.5 L 14 139.5 L 6 164.5 L 2 184.5 L 0.5 201 L 0 0 Z " /><path fill="rgb(0,0,0)" stroke="rgb(0,0,0)" stroke-width="1" opacity="0" d="M 201.5 62 L 233.5 62 Q 235.3 64.7 241.5 63 L 259.5 67 L 274.5 72 Q 311.2 86.8 335 114.5 Q 353.2 134.8 364 162.5 L 368 174.5 L 373 198.5 L 374 226.5 L 373 227.5 L 372 244.5 L 368 261.5 L 359 285.5 Q 343.7 316.7 318.5 338 Q 298.9 354.9 272.5 365 L 248.5 372 L 236.5 373 L 235.5 374 L 212.5 375 L 211.5 374 L 198.5 374 L 177.5 370 L 154.5 362 Q 122.7 347.8 101 323.5 Q 81.3 302.2 70 272.5 L 62 241.5 Q 63.8 235.3 61 233.5 L 61 203.5 L 62 202.5 L 62 194.5 L 64 184.5 L 72 158.5 L 87 130.5 L 106 107 L 129.5 88 L 148.5 77 L 178.5 66 L 201.5 62 Z " /><path fill="rgb(0,0,0)" stroke="rgb(0,0,0)" stroke-width="1" opacity="0.9098039215686274" d="M 204.5 1 L 211 1.5 L 204.5 2 L 204.5 1 Z " /><path fill="rgb(0,0,0)" stroke="rgb(0,0,0)" stroke-width="1" opacity="0.9098039215686274" d="M 224.5 1 L 230 1.5 L 224.5 2 L 224.5 1 Z " /><path fill="rgb(0,0,0)" stroke="rgb(0,0,0)" stroke-width="1" opacity="0.9098039215686274" d="M 340.5 39 L 341.5 41 L 340.5 39 Z " /><path fill="rgb(0,0,0)" stroke="rgb(0,0,0)" stroke-width="1" opacity="0.9098039215686274" d="M 347.5 44 L 348.5 46 L 347.5 44 Z " /><path fill="rgb(0,0,0)" stroke="rgb(0,0,0)" stroke-width="1" opacity="0.9098039215686274" d="M 84.5 46 L 83.5 48 L 84.5 46 Z " /><path fill="rgb(0,0,0)" stroke="rgb(0,0,0)" stroke-width="1" opacity="0.9098039215686274" d="M 352.5 48 L 353.5 50 L 352.5 48 Z " /><path fill="rgb(0,0,0)" stroke="rgb(0,0,0)" stroke-width="1" opacity="0.9098039215686274" d="M 79.5 50 L 78.5 52 L 79.5 50 Z " /><path fill="rgb(0,0,0)" stroke="rgb(0,0,0)" stroke-width="1" opacity="0.9098039215686274" d="M 357.5 52 L 359.5 55 L 357.5 52 Z " /><path fill="rgb(0,0,0)" stroke="rgb(0,0,0)" stroke-width="1" opacity="0.9098039215686274" d="M 72.5 56 L 68.5 61 L 72.5 56 Z " /><path fill="rgb(0,0,0)" stroke="rgb(0,0,0)" stroke-width="1" opacity="0.9098039215686274" d="M 204.5 61 L 207 61.5 L 204.5 62 L 204.5 61 Z " /><path fill="rgb(0,0,0)" stroke="rgb(0,0,0)" stroke-width="1" opacity="0.9098039215686274" d="M 227.5 61 L 230 61.5 L 227.5 62 L 227.5 61 Z " /><path fill="rgb(0,0,0)" stroke="rgb(0,0,0)" stroke-width="1" opacity="0.9098039215686274" d="M 368.5 62 L 373.5 68 L 368.5 62 Z " /><path fill="rgb(0,0,0)" stroke="rgb(0,0,0)" stroke-width="1" opacity="0.9098039215686274" d="M 60.5 68 L 55.5 74 L 60.5 68 Z " /><path fill="rgb(0,0,0)" stroke="rgb(0,0,0)" stroke-width="1" opacity="0.9098039215686274" d="M 380.5 75 L 382.5 78 L 380.5 75 Z " /><path fill="rgb(0,0,0)" stroke="rgb(0,0,0)" stroke-width="1" opacity="0.9098039215686274" d="M 51.5 78 L 49.5 81 L 51.5 78 Z " /><path fill="rgb(0,0,0)" stroke="rgb(0,0,0)" stroke-width="1" opacity="0.9098039215686274" d="M 46.5 84 L 45.5 86 L 46.5 84 Z " /><path fill="rgb(0,0,0)" stroke="rgb(0,0,0)" stroke-width="1" opacity="0.9098039215686274" d="M 389.5 86 L 390.5 88 L 389.5 86 Z " /><path fill="rgb(0,0,0)" stroke="rgb(0,0,0)" stroke-width="1" opacity="0.9098039215686274" d="M 125.5 90 L 124.5 92 L 125.5 90 Z " /><path fill="rgb(0,0,0)" stroke="rgb(0,0,0)" stroke-width="1" opacity="0.9098039215686274" d="M 392.5 90 L 393.5 92 L 392.5 90 Z " /><path fill="rgb(0,0,0)" stroke="rgb(0,0,0)" stroke-width="1" opacity="0.9098039215686274" d="M 310.5 91 L 311.5 93 L 310.5 91 Z " /><path fill="rgb(0,0,0)" stroke="rgb(0,0,0)" stroke-width="1" opacity="0.9098039215686274" d="M 121.5 93 L 120.5 95 L 121.5 93 Z " /><path fill="rgb(0,0,0)" stroke="rgb(0,0,0)" stroke-width="1" opacity="0.9098039215686274" d="M 38.5 95 L 37.5 97 L 38.5 95 Z " /><path fill="rgb(0,0,0)" stroke="rgb(0,0,0)" stroke-width="1" opacity="0.9098039215686274" d="M 315.5 95 L 316.5 97 L 315.5 95 Z " /><path fill="rgb(0,0,0)" stroke="rgb(0,0,0)" stroke-width="1" opacity="0.9098039215686274" d="M 116.5 97 L 114.5 100 L 116.5 97 Z " /><path fill="rgb(0,0,0)" stroke="rgb(0,0,0)" stroke-width="1" opacity="0.9098039215686274" d="M 36.5 98 L 35.5 100 L 36.5 98 Z " /><path fill="rgb(0,0,0)" stroke="rgb(0,0,0)" stroke-width="1" opacity="0.9098039215686274" d="M 321.5 100 L 326.5 106 L 321.5 100 Z " /><path fill="rgb(0,0,0)" stroke="rgb(0,0,0)" stroke-width="1" opacity="0.9098039215686274" d="M 330.5 109 L 334.5 114 L 330.5 109 Z " /><path fill="rgb(0,0,0)" stroke="rgb(0,0,0)" stroke-width="1" opacity="0.9098039215686274" d="M 98.5 115 L 96.5 118 L 98.5 115 Z " /><path fill="rgb(0,0,0)" stroke="rgb(0,0,0)" stroke-width="1" opacity="0.9098039215686274" d="M 93.5 121 L 92.5 123 L 93.5 121 Z " /><path fill="rgb(0,0,0)" stroke="rgb(0,0,0)" stroke-width="1" opacity="0.9098039215686274" d="M 342.5 123 L 343.5 125 L 342.5 123 Z " /><path fill="rgb(0,0,0)" stroke="rgb(0,0,0)" stroke-width="1" opacity="0.9098039215686274" d="M 90.5 125 L 89.5 127 L 90.5 125 Z " /><path fill="rgb(0,0,0)" stroke="rgb(0,0,0)" stroke-width="1" opacity="0.9098039215686274" d="M 433.5 200 L 434 202.5 L 433 202.5 L 433.5 200 Z " /><path fill="rgb(0,0,0)" stroke="rgb(0,0,0)" stroke-width="1" opacity="0.9098039215686274" d="M 0.5 207 L 1 215.5 L 0 215.5 L 0.5 207 Z " /><path fill="rgb(0,0,0)" stroke="rgb(0,0,0)" stroke-width="1" opacity="0.9098039215686274" d="M 60.5 207 L 61 209.5 L 60 209.5 L 60.5 207 Z " /><path fill="rgb(0,0,0)" stroke="rgb(0,0,0)" stroke-width="1" opacity="0.9098039215686274" d="M 0.5 220 L 1 228.5 L 0 228.5 L 0.5 220 Z " /><path fill="rgb(0,0,0)" stroke="rgb(0,0,0)" stroke-width="1" opacity="0.9098039215686274" d="M 60.5 227 L 61 229.5 L 60 229.5 L 60.5 227 Z " /><path fill="rgb(0,0,0)" stroke="rgb(0,0,0)" stroke-width="1" opacity="0.9098039215686274" d="M 433.5 233 L 434 235.5 L 433 235.5 L 433.5 233 Z " /><path fill="rgb(0,0,0)" stroke="rgb(0,0,0)" stroke-width="1" opacity="0.9098039215686274" d="M 1.5 239 L 2 241.5 L 1 241.5 L 1.5 239 Z " /><path fill="rgb(0,0,0)" stroke="rgb(0,0,0)" stroke-width="1" opacity="0.9098039215686274" d="M 86.5 305 L 87.5 307 L 86.5 305 Z " /><path fill="rgb(0,0,0)" stroke="rgb(0,0,0)" stroke-width="1" opacity="0.9098039215686274" d="M 344.5 310 L 343.5 312 L 344.5 310 Z " /><path fill="rgb(0,0,0)" stroke="rgb(0,0,0)" stroke-width="1" opacity="0.9098039215686274" d="M 91.5 312 L 92.5 314 L 91.5 312 Z " /><path fill="rgb(0,0,0)" stroke="rgb(0,0,0)" stroke-width="1" opacity="0.9098039215686274" d="M 95.5 317 L 96.5 319 L 95.5 317 Z " /><path fill="rgb(0,0,0)" stroke="rgb(0,0,0)" stroke-width="1" opacity="0.9098039215686274" d="M 336.5 320 L 334.5 323 L 336.5 320 Z " /><path fill="rgb(0,0,0)" stroke="rgb(0,0,0)" stroke-width="1" opacity="0.9098039215686274" d="M 101.5 324 L 111.5 335 L 101.5 324 Z " /><path fill="rgb(0,0,0)" stroke="rgb(0,0,0)" stroke-width="1" opacity="0.9098039215686274" d="M 321.5 335 L 319.5 338 L 321.5 335 Z " /><path fill="rgb(0,0,0)" stroke="rgb(0,0,0)" stroke-width="1" opacity="0.9098039215686274" d="M 116.5 338 L 117.5 340 L 116.5 338 Z " /><path fill="rgb(0,0,0)" stroke="rgb(0,0,0)" stroke-width="1" opacity="0.9098039215686274" d="M 315.5 340 L 314.5 342 L 315.5 340 Z " /><path fill="rgb(0,0,0)" stroke="rgb(0,0,0)" stroke-width="1" opacity="0.9098039215686274" d="M 396.5 340 L 395.5 342 L 396.5 340 Z " /><path fill="rgb(0,0,0)" stroke="rgb(0,0,0)" stroke-width="1" opacity="0.9098039215686274" d="M 121.5 342 L 122.5 344 L 121.5 342 Z " /><path fill="rgb(0,0,0)" stroke="rgb(0,0,0)" stroke-width="1" opacity="0.9098039215686274" d="M 125.5 345 L 126.5 347 L 125.5 345 Z " /><path fill="rgb(0,0,0)" stroke="rgb(0,0,0)" stroke-width="1" opacity="0.9098039215686274" d="M 391.5 347 L 390.5 349 L 391.5 347 Z " /><path fill="rgb(0,0,0)" stroke="rgb(0,0,0)" stroke-width="1" opacity="0.9098039215686274" d="M 44.5 349 L 45.5 351 L 44.5 349 Z " /><path fill="rgb(0,0,0)" stroke="rgb(0,0,0)" stroke-width="1" opacity="0.9098039215686274" d="M 387.5 352 L 386.5 354 L 387.5 352 Z " /><path fill="rgb(0,0,0)" stroke="rgb(0,0,0)" stroke-width="1" opacity="0.9098039215686274" d="M 48.5 354 L 49.5 356 L 48.5 354 Z " /><path fill="rgb(0,0,0)" stroke="rgb(0,0,0)" stroke-width="1" opacity="0.9098039215686274" d="M 384.5 356 L 381.5 360 L 384.5 356 Z " /><path fill="rgb(0,0,0)" stroke="rgb(0,0,0)" stroke-width="1" opacity="0.9098039215686274" d="M 53.5 360 L 55.5 363 L 53.5 360 Z " /><path fill="rgb(0,0,0)" stroke="rgb(0,0,0)" stroke-width="1" opacity="0.9098039215686274" d="M 377.5 364 L 363.5 379 L 377.5 364 Z " /><path fill="rgb(0,0,0)" stroke="rgb(0,0,0)" stroke-width="1" opacity="0.9098039215686274" d="M 416.5 373 L 417.5 375 L 416.5 373 Z " /><path fill="rgb(0,0,0)" stroke="rgb(0,0,0)" stroke-width="1" opacity="0.9098039215686274" d="M 201.5 374 L 204 374.5 L 201.5 375 L 201.5 374 Z " /><path fill="rgb(0,0,0)" stroke="rgb(0,0,0)" stroke-width="1" opacity="0.9098039215686274" d="M 231.5 374 L 234 374.5 L 231.5 375 L 231.5 374 Z " /><path fill="rgb(0,0,0)" stroke="rgb(0,0,0)" stroke-width="1" opacity="0.9098039215686274" d="M 413.5 376 L 412.5 378 L 413.5 376 Z " /><path fill="rgb(0,0,0)" stroke="rgb(0,0,0)" stroke-width="1" opacity="0.9098039215686274" d="M 72.5 379 L 74.5 382 L 72.5 379 Z " /><path fill="rgb(0,0,0)" stroke="rgb(0,0,0)" stroke-width="1" opacity="0.9098039215686274" d="M 358.5 382 L 356.5 385 L 358.5 382 Z " /><path fill="rgb(0,0,0)" stroke="rgb(0,0,0)" stroke-width="1" opacity="0.9098039215686274" d="M 408.5 382 L 406.5 385 L 408.5 382 Z " /><path fill="rgb(0,0,0)" stroke="rgb(0,0,0)" stroke-width="1" opacity="0.9098039215686274" d="M 352.5 387 L 351.5 389 L 352.5 387 Z " /><path fill="rgb(0,0,0)" stroke="rgb(0,0,0)" stroke-width="1" opacity="0.9098039215686274" d="M 84.5 389 L 85.5 391 L 84.5 389 Z " /><path fill="rgb(0,0,0)" stroke="rgb(0,0,0)" stroke-width="1" opacity="0.9098039215686274" d="M 347.5 391 L 346.5 393 L 347.5 391 Z " /><path fill="rgb(0,0,0)" stroke="rgb(0,0,0)" stroke-width="1" opacity="0.9098039215686274" d="M 400.5 391 L 390.5 402 L 400.5 391 Z " /><path fill="rgb(0,0,0)" stroke="rgb(0,0,0)" stroke-width="1" opacity="0.9098039215686274" d="M 340.5 396 L 339.5 398 L 340.5 396 Z " /><path fill="rgb(0,0,0)" stroke="rgb(0,0,0)" stroke-width="1" opacity="0.9098039215686274" d="M 95.5 397 L 96.5 399 L 95.5 397 Z " /><path fill="rgb(0,0,0)" stroke="rgb(0,0,0)" stroke-width="1" opacity="0.9098039215686274" d="M 449.5 405 L 473.5 430 L 449.5 405 Z " /><path fill="rgb(0,0,0)" stroke="rgb(0,0,0)" stroke-width="1" opacity="0.9098039215686274" d="M 383.5 407 L 381.5 410 L 383.5 407 Z " /><path fill="rgb(0,0,0)" stroke="rgb(0,0,0)" stroke-width="1" opacity="0.9098039215686274" d="M 376.5 413 L 375.5 415 L 376.5 413 Z " /><path fill="rgb(0,0,0)" stroke="rgb(0,0,0)" stroke-width="1" opacity="0.9098039215686274" d="M 385.5 429 L 408.5 453 L 385.5 429 Z " /><path fill="rgb(0,0,0)" stroke="rgb(0,0,0)" stroke-width="1" opacity="0.9098039215686274" d="M 201.5 434 L 204 434.5 L 201.5 435 L 201.5 434 Z " /><path fill="rgb(0,0,0)" stroke="rgb(0,0,0)" stroke-width="1" opacity="0.9098039215686274" d="M 230.5 434 L 234 434.5 L 230.5 435 L 230.5 434 Z " /><path fill="rgb(0,0,0)" stroke="rgb(0,0,0)" stroke-width="1" opacity="0.9098039215686274" d="M 505.5 461 L 506.5 463 L 505.5 461 Z " /><path fill="rgb(0,0,0)" stroke="rgb(0,0,0)" stroke-width="1" opacity="0.9098039215686274" d="M 511.5 476 L 512 478.5 L 511 478.5 L 511.5 476 Z " /><path fill="rgb(0,0,0)" stroke="rgb(0,0,0)" stroke-width="1" opacity="0.9098039215686274" d="M 511.5 481 L 512 483.5 L 511 483.5 L 511.5 481 Z " /><path fill="rgb(0,0,0)" stroke="rgb(0,0,0)" stroke-width="1" opacity="0.9098039215686274" d="M 440.5 483 L 459.5 503 L 440.5 483 Z " /><path fill="rgb(0,0,0)" stroke="rgb(0,0,0)" stroke-width="1" opacity="0.9098039215686274" d="M 505.5 498 L 504.5 500 L 505.5 498 Z " /><path fill="rgb(0,0,0)" stroke="rgb(0,0,0)" stroke-width="1" opacity="0.9098039215686274" d="M 500.5 503 L 499.5 505 L 500.5 503 Z " /><path fill="rgb(0,0,0)" stroke="rgb(0,0,0)" stroke-width="1" opacity="0.5215686274509804" d="M 198.5 1 L 204 1.5 L 198.5 2 L 198.5 1 Z " /><path fill="rgb(0,0,0)" stroke="rgb(0,0,0)" stroke-width="1" opacity="0.5215686274509804" d="M 230.5 1 L 236 1.5 L 230.5 2 L 230.5 1 Z " /><path fill="rgb(0,0,0)" stroke="rgb(0,0,0)" stroke-width="1" opacity="0.5215686274509804" d="M 189.5 2 L 193 2.5 L 189.5 3 L 189.5 2 Z " /><path fill="rgb(0,0,0)" stroke="rgb(0,0,0)" stroke-width="1" opacity="0.5215686274509804" d="M 242.5 2 L 246 2.5 L 242.5 3 L 242.5 2 Z " /><path fill="rgb(0,0,0)" stroke="rgb(0,0,0)" stroke-width="1" opacity="0.5215686274509804" d="M 182.5 3 L 185 3.5 L 182.5 4 L 182.5 3 Z " /><path fill="rgb(0,0,0)" stroke="rgb(0,0,0)" stroke-width="1" opacity="0.5215686274509804" d="M 265.5 6 L 268 6.5 L 265.5 7 L 265.5 6 Z " /><path fill="rgb(0,0,0)" stroke="rgb(0,0,0)" stroke-width="1" opacity="0.5215686274509804" d="M 330.5 32 L 331.5 34 L 330.5 32 Z " /><path fill="rgb(0,0,0)" stroke="rgb(0,0,0)" stroke-width="1" opacity="0.5215686274509804" d="M 102.5 33 L 101.5 35 L 102.5 33 Z " /><path fill="rgb(0,0,0)" stroke="rgb(0,0,0)" stroke-width="1" opacity="0.5215686274509804" d="M 93.5 39 L 92.5 41 L 93.5 39 Z " /><path fill="rgb(0,0,0)" stroke="rgb(0,0,0)" stroke-width="1" opacity="0.5215686274509804" d="M 342.5 40 L 343.5 42 L 342.5 40 Z " /><path fill="rgb(0,0,0)" stroke="rgb(0,0,0)" stroke-width="1" opacity="0.5215686274509804" d="M 90.5 41 L 89.5 43 L 90.5 41 Z " /><path fill="rgb(0,0,0)" stroke="rgb(0,0,0)" stroke-width="1" opacity="0.5215686274509804" d="M 86.5 44 L 85.5 46 L 86.5 44 Z " /><path fill="rgb(0,0,0)" stroke="rgb(0,0,0)" stroke-width="1" opacity="0.5215686274509804" d="M 350.5 46 L 351.5 48 L 350.5 46 Z " /><path fill="rgb(0,0,0)" stroke="rgb(0,0,0)" stroke-width="1" opacity="0.5215686274509804" d="M 81.5 48 L 80.5 50 L 81.5 48 Z " /><path fill="rgb(0,0,0)" stroke="rgb(0,0,0)" stroke-width="1" opacity="0.5215686274509804" d="M 354.5 49 L 356.5 52 L 354.5 49 Z " /><path fill="rgb(0,0,0)" stroke="rgb(0,0,0)" stroke-width="1" opacity="0.5215686274509804" d="M 76.5 52 L 73.5 56 L 76.5 52 Z " /><path fill="rgb(0,0,0)" stroke="rgb(0,0,0)" stroke-width="1" opacity="0.5215686274509804" d="M 361.5 55 L 367.5 62 L 361.5 55 Z " /><path fill="rgb(0,0,0)" stroke="rgb(0,0,0)" stroke-width="1" opacity="0.5215686274509804" d="M 66.5 61 L 61.5 67 L 66.5 61 Z " /><path fill="rgb(0,0,0)" stroke="rgb(0,0,0)" stroke-width="1" opacity="0.5215686274509804" d="M 207.5 61 L 227 61.5 L 207.5 62 L 207.5 61 Z " /><path fill="rgb(0,0,0)" stroke="rgb(0,0,0)" stroke-width="1" opacity="0.5215686274509804" d="M 197.5 62 L 201 62.5 L 197.5 63 L 197.5 62 Z " /><path fill="rgb(0,0,0)" stroke="rgb(0,0,0)" stroke-width="1" opacity="0.5215686274509804" d="M 234.5 62 L 238 62.5 L 234.5 63 L 234.5 62 Z " /><path fill="rgb(0,0,0)" stroke="rgb(0,0,0)" stroke-width="1" opacity="0.5215686274509804" d="M 190.5 63 L 193 63.5 L 190.5 64 L 190.5 63 Z " /><path fill="rgb(0,0,0)" stroke="rgb(0,0,0)" stroke-width="1" opacity="0.5215686274509804" d="M 247.5 64 L 250 64.5 L 247.5 65 L 247.5 64 Z " /><path fill="rgb(0,0,0)" stroke="rgb(0,0,0)" stroke-width="1" opacity="0.5215686274509804" d="M 374.5 68 L 379.5 74 L 374.5 68 Z " /><path fill="rgb(0,0,0)" stroke="rgb(0,0,0)" stroke-width="1" opacity="0.5215686274509804" d="M 54.5 74 L 51.5 78 L 54.5 74 Z " /><path fill="rgb(0,0,0)" stroke="rgb(0,0,0)" stroke-width="1" opacity="0.5215686274509804" d="M 383.5 78 L 385.5 81 L 383.5 78 Z " /><path fill="rgb(0,0,0)" stroke="rgb(0,0,0)" stroke-width="1" opacity="0.5215686274509804" d="M 48.5 81 L 47.5 83 L 48.5 81 Z " /><path fill="rgb(0,0,0)" stroke="rgb(0,0,0)" stroke-width="1" opacity="0.5215686274509804" d="M 294.5 81 L 295.5 83 L 294.5 81 Z " /><path fill="rgb(0,0,0)" stroke="rgb(0,0,0)" stroke-width="1" opacity="0.5215686274509804" d="M 387.5 83 L 389.5 86 L 387.5 83 Z " /><path fill="rgb(0,0,0)" stroke="rgb(0,0,0)" stroke-width="1" opacity="0.5215686274509804" d="M 299.5 84 L 300.5 86 L 299.5 84 Z " /><path fill="rgb(0,0,0)" stroke="rgb(0,0,0)" stroke-width="1" opacity="0.5215686274509804" d="M 133.5 85 L 132.5 87 L 133.5 85 Z " /><path fill="rgb(0,0,0)" stroke="rgb(0,0,0)" stroke-width="1" opacity="0.5215686274509804" d="M 44.5 86 L 43.5 88 L 44.5 86 Z " /><path fill="rgb(0,0,0)" stroke="rgb(0,0,0)" stroke-width="1" opacity="0.5215686274509804" d="M 305.5 88 L 306.5 90 L 305.5 88 Z " /><path fill="rgb(0,0,0)" stroke="rgb(0,0,0)" stroke-width="1" opacity="0.5215686274509804" d="M 391.5 88 L 392.5 90 L 391.5 88 Z " /><path fill="rgb(0,0,0)" stroke="rgb(0,0,0)" stroke-width="1" opacity="0.5215686274509804" d="M 127.5 89 L 126.5 91 L 127.5 89 Z " /><path fill="rgb(0,0,0)" stroke="rgb(0,0,0)" stroke-width="1" opacity="0.5215686274509804" d="M 308.5 90 L 309.5 92 L 308.5 90 Z " /><path fill="rgb(0,0,0)" stroke="rgb(0,0,0)" stroke-width="1" opacity="0.5215686274509804" d="M 123.5 92 L 122.5 94 L 123.5 92 Z " /><path fill="rgb(0,0,0)" stroke="rgb(0,0,0)" stroke-width="1" opacity="0.5215686274509804" d="M 39.5 93 L 38.5 95 L 39.5 93 Z " /><path fill="rgb(0,0,0)" stroke="rgb(0,0,0)" stroke-width="1" opacity="0.5215686274509804" d="M 312.5 93 L 313.5 95 L 312.5 93 Z " /><path fill="rgb(0,0,0)" stroke="rgb(0,0,0)" stroke-width="1" opacity="0.5215686274509804" d="M 119.5 95 L 118.5 97 L 119.5 95 Z " /><path fill="rgb(0,0,0)" stroke="rgb(0,0,0)" stroke-width="1" opacity="0.5215686274509804" d="M 396.5 95 L 397.5 97 L 396.5 95 Z " /><path fill="rgb(0,0,0)" stroke="rgb(0,0,0)" stroke-width="1" opacity="0.5215686274509804" d="M 317.5 97 L 319.5 100 L 317.5 97 Z " /><path fill="rgb(0,0,0)" stroke="rgb(0,0,0)" stroke-width="1" opacity="0.5215686274509804" d="M 113.5 100 L 107.5 107 L 113.5 100 Z " /><path fill="rgb(0,0,0)" stroke="rgb(0,0,0)" stroke-width="1" opacity="0.5215686274509804" d="M 33.5 102 L 32.5 104 L 33.5 102 Z " /><path fill="rgb(0,0,0)" stroke="rgb(0,0,0)" stroke-width="1" opacity="0.5215686274509804" d="M 327.5 106 L 329.5 109 L 327.5 106 Z " /><path fill="rgb(0,0,0)" stroke="rgb(0,0,0)" stroke-width="1" opacity="0.5215686274509804" d="M 105.5 108 L 99.5 115 L 105.5 108 Z " /><path fill="rgb(0,0,0)" stroke="rgb(0,0,0)" stroke-width="1" opacity="0.5215686274509804" d="M 335.5 115 L 338.5 119 L 335.5 115 Z " /><path fill="rgb(0,0,0)" stroke="rgb(0,0,0)" stroke-width="1" opacity="0.5215686274509804" d="M 95.5 119 L 94.5 121 L 95.5 119 Z " /><path fill="rgb(0,0,0)" stroke="rgb(0,0,0)" stroke-width="1" opacity="0.5215686274509804" d="M 340.5 121 L 341.5 123 L 340.5 121 Z " /><path fill="rgb(0,0,0)" stroke="rgb(0,0,0)" stroke-width="1" opacity="0.5215686274509804" d="M 92.5 123 L 91.5 125 L 92.5 123 Z " /><path fill="rgb(0,0,0)" stroke="rgb(0,0,0)" stroke-width="1" opacity="0.5215686274509804" d="M 343.5 125 L 344.5 127 L 343.5 125 Z " /><path fill="rgb(0,0,0)" stroke="rgb(0,0,0)" stroke-width="1" opacity="0.5215686274509804" d="M 89.5 127 L 88.5 129 L 89.5 127 Z " /><path fill="rgb(0,0,0)" stroke="rgb(0,0,0)" stroke-width="1" opacity="0.5215686274509804" d="M 85.5 133 L 84.5 135 L 85.5 133 Z " /><path fill="rgb(0,0,0)" stroke="rgb(0,0,0)" stroke-width="1" opacity="0.5215686274509804" d="M 430.5 175 L 431 177.5 L 430 177.5 L 430.5 175 Z " /><path fill="rgb(0,0,0)" stroke="rgb(0,0,0)" stroke-width="1" opacity="0.5215686274509804" d="M 3.5 178 L 4 180.5 L 3 180.5 L 3.5 178 Z " /><path fill="rgb(0,0,0)" stroke="rgb(0,0,0)" stroke-width="1" opacity="0.5215686274509804" d="M 2.5 184 L 3 186.5 L 2 186.5 L 2.5 184 Z " /><path fill="rgb(0,0,0)" stroke="rgb(0,0,0)" stroke-width="1" opacity="0.5215686274509804" d="M 63.5 186 L 64 188.5 L 63 188.5 L 63.5 186 Z " /><path fill="rgb(0,0,0)" stroke="rgb(0,0,0)" stroke-width="1" opacity="0.5215686274509804" d="M 432.5 187 L 433 190.5 L 432 190.5 L 432.5 187 Z " /><path fill="rgb(0,0,0)" stroke="rgb(0,0,0)" stroke-width="1" opacity="0.5215686274509804" d="M 371.5 189 L 372 191.5 L 371 191.5 L 371.5 189 Z " /><path fill="rgb(0,0,0)" stroke="rgb(0,0,0)" stroke-width="1" opacity="0.5215686274509804" d="M 1.5 191 L 2 194.5 L 1 194.5 L 1.5 191 Z " /><path fill="rgb(0,0,0)" stroke="rgb(0,0,0)" stroke-width="1" opacity="0.5215686274509804" d="M 372.5 195 L 373 197.5 L 372 197.5 L 372.5 195 Z " /><path fill="rgb(0,0,0)" stroke="rgb(0,0,0)" stroke-width="1" opacity="0.5215686274509804" d="M 433.5 195 L 434 199.5 L 433 199.5 L 433.5 195 Z " /><path fill="rgb(0,0,0)" stroke="rgb(0,0,0)" stroke-width="1" opacity="0.5215686274509804" d="M 61.5 199 L 62 202.5 L 61 202.5 L 61.5 199 Z " /><path fill="rgb(0,0,0)" stroke="rgb(0,0,0)" stroke-width="1" opacity="0.5215686274509804" d="M 0.5 201 L 1 206.5 L 0 206.5 L 0.5 201 Z " /><path fill="rgb(0,0,0)" stroke="rgb(0,0,0)" stroke-width="1" opacity="0.5215686274509804" d="M 373.5 203 L 374 208.5 L 373 208.5 L 373.5 203 Z " /><path fill="rgb(0,0,0)" stroke="rgb(0,0,0)" stroke-width="1" opacity="0.5215686274509804" d="M 434.5 208 L 435 227.5 L 434 227.5 L 434.5 208 Z " /><path fill="rgb(0,0,0)" stroke="rgb(0,0,0)" stroke-width="1" opacity="0.5215686274509804" d="M 60.5 210 L 61 226.5 L 60 226.5 L 60.5 210 Z " /><path fill="rgb(0,0,0)" stroke="rgb(0,0,0)" stroke-width="1" opacity="0.5215686274509804" d="M 373.5 227 L 374 232.5 L 373 232.5 L 373.5 227 Z " /><path fill="rgb(0,0,0)" stroke="rgb(0,0,0)" stroke-width="1" opacity="0.5215686274509804" d="M 0.5 229 L 1 234.5 L 0 234.5 L 0.5 229 Z " /><path fill="rgb(0,0,0)" stroke="rgb(0,0,0)" stroke-width="1" opacity="0.5215686274509804" d="M 61.5 234 L 62 236.5 L 61 236.5 L 61.5 234 Z " /><path fill="rgb(0,0,0)" stroke="rgb(0,0,0)" stroke-width="1" opacity="0.5215686274509804" d="M 433.5 236 L 434 240.5 L 433 240.5 L 433.5 236 Z " /><path fill="rgb(0,0,0)" stroke="rgb(0,0,0)" stroke-width="1" opacity="0.5215686274509804" d="M 372.5 238 L 373 240.5 L 372 240.5 L 372.5 238 Z " /><path fill="rgb(0,0,0)" stroke="rgb(0,0,0)" stroke-width="1" opacity="0.5215686274509804" d="M 1.5 242 L 2 244.5 L 1 244.5 L 1.5 242 Z " /><path fill="rgb(0,0,0)" stroke="rgb(0,0,0)" stroke-width="1" opacity="0.5215686274509804" d="M 432.5 246 L 433 248.5 L 432 248.5 L 432.5 246 Z " /><path fill="rgb(0,0,0)" stroke="rgb(0,0,0)" stroke-width="1" opacity="0.5215686274509804" d="M 63.5 247 L 64 249.5 L 63 249.5 L 63.5 247 Z " /><path fill="rgb(0,0,0)" stroke="rgb(0,0,0)" stroke-width="1" opacity="0.5215686274509804" d="M 2.5 250 L 3 252.5 L 2 252.5 L 2.5 250 Z " /><path fill="rgb(0,0,0)" stroke="rgb(0,0,0)" stroke-width="1" opacity="0.5215686274509804" d="M 430.5 258 L 431 260.5 L 430 260.5 L 430.5 258 Z " /><path fill="rgb(0,0,0)" stroke="rgb(0,0,0)" stroke-width="1" opacity="0.5215686274509804" d="M 349.5 302 L 348.5 304 L 349.5 302 Z " /><path fill="rgb(0,0,0)" stroke="rgb(0,0,0)" stroke-width="1" opacity="0.5215686274509804" d="M 347.5 305 L 346.5 307 L 347.5 305 Z " /><path fill="rgb(0,0,0)" stroke="rgb(0,0,0)" stroke-width="1" opacity="0.5215686274509804" d="M 345.5 308 L 344.5 310 L 345.5 308 Z " /><path fill="rgb(0,0,0)" stroke="rgb(0,0,0)" stroke-width="1" opacity="0.5215686274509804" d="M 90.5 310 L 91.5 312 L 90.5 310 Z " /><path fill="rgb(0,0,0)" stroke="rgb(0,0,0)" stroke-width="1" opacity="0.5215686274509804" d="M 342.5 312 L 341.5 314 L 342.5 312 Z " /><path fill="rgb(0,0,0)" stroke="rgb(0,0,0)" stroke-width="1" opacity="0.5215686274509804" d="M 93.5 314 L 94.5 316 L 93.5 314 Z " /><path fill="rgb(0,0,0)" stroke="rgb(0,0,0)" stroke-width="1" opacity="0.5215686274509804" d="M 339.5 316 L 337.5 319 L 339.5 316 Z " /><path fill="rgb(0,0,0)" stroke="rgb(0,0,0)" stroke-width="1" opacity="0.5215686274509804" d="M 97.5 319 L 100.5 323 L 97.5 319 Z " /><path fill="rgb(0,0,0)" stroke="rgb(0,0,0)" stroke-width="1" opacity="0.5215686274509804" d="M 333.5 323 L 322.5 335 L 333.5 323 Z " /><path fill="rgb(0,0,0)" stroke="rgb(0,0,0)" stroke-width="1" opacity="0.5215686274509804" d="M 401.5 333 L 400.5 335 L 401.5 333 Z " /><path fill="rgb(0,0,0)" stroke="rgb(0,0,0)" stroke-width="1" opacity="0.5215686274509804" d="M 112.5 334 L 115.5 338 L 112.5 334 Z " /><path fill="rgb(0,0,0)" stroke="rgb(0,0,0)" stroke-width="1" opacity="0.5215686274509804" d="M 317.5 338 L 316.5 340 L 317.5 338 Z " /><path fill="rgb(0,0,0)" stroke="rgb(0,0,0)" stroke-width="1" opacity="0.5215686274509804" d="M 37.5 340 L 38.5 342 L 37.5 340 Z " /><path fill="rgb(0,0,0)" stroke="rgb(0,0,0)" stroke-width="1" opacity="0.5215686274509804" d="M 119.5 340 L 120.5 342 L 119.5 340 Z " /><path fill="rgb(0,0,0)" stroke="rgb(0,0,0)" stroke-width="1" opacity="0.5215686274509804" d="M 312.5 342 L 311.5 344 L 312.5 342 Z " /><path fill="rgb(0,0,0)" stroke="rgb(0,0,0)" stroke-width="1" opacity="0.5215686274509804" d="M 395.5 342 L 394.5 344 L 395.5 342 Z " /><path fill="rgb(0,0,0)" stroke="rgb(0,0,0)" stroke-width="1" opacity="0.5215686274509804" d="M 40.5 344 L 41.5 346 L 40.5 344 Z " /><path fill="rgb(0,0,0)" stroke="rgb(0,0,0)" stroke-width="1" opacity="0.5215686274509804" d="M 308.5 345 L 307.5 347 L 308.5 345 Z " /><path fill="rgb(0,0,0)" stroke="rgb(0,0,0)" stroke-width="1" opacity="0.5215686274509804" d="M 127.5 346 L 128.5 348 L 127.5 346 Z " /><path fill="rgb(0,0,0)" stroke="rgb(0,0,0)" stroke-width="1" opacity="0.5215686274509804" d="M 42.5 347 L 43.5 349 L 42.5 347 Z " /><path fill="rgb(0,0,0)" stroke="rgb(0,0,0)" stroke-width="1" opacity="0.5215686274509804" d="M 305.5 347 L 304.5 349 L 305.5 347 Z " /><path fill="rgb(0,0,0)" stroke="rgb(0,0,0)" stroke-width="1" opacity="0.5215686274509804" d="M 130.5 348 L 131.5 350 L 130.5 348 Z " /><path fill="rgb(0,0,0)" stroke="rgb(0,0,0)" stroke-width="1" opacity="0.5215686274509804" d="M 302.5 349 L 301.5 351 L 302.5 349 Z " /><path fill="rgb(0,0,0)" stroke="rgb(0,0,0)" stroke-width="1" opacity="0.5215686274509804" d="M 390.5 349 L 388.5 352 L 390.5 349 Z " /><path fill="rgb(0,0,0)" stroke="rgb(0,0,0)" stroke-width="1" opacity="0.5215686274509804" d="M 46.5 352 L 47.5 354 L 46.5 352 Z " /><path fill="rgb(0,0,0)" stroke="rgb(0,0,0)" stroke-width="1" opacity="0.5215686274509804" d="M 386.5 354 L 385.5 356 L 386.5 354 Z " /><path fill="rgb(0,0,0)" stroke="rgb(0,0,0)" stroke-width="1" opacity="0.5215686274509804" d="M 49.5 356 L 52.5 360 L 49.5 356 Z " /><path fill="rgb(0,0,0)" stroke="rgb(0,0,0)" stroke-width="1" opacity="0.5215686274509804" d="M 381.5 360 L 378.5 364 L 381.5 360 Z " /><path fill="rgb(0,0,0)" stroke="rgb(0,0,0)" stroke-width="1" opacity="0.5215686274509804" d="M 56.5 364 L 70.5 379 L 56.5 364 Z " /><path fill="rgb(0,0,0)" stroke="rgb(0,0,0)" stroke-width="1" opacity="0.5215686274509804" d="M 243.5 372 L 246 372.5 L 243.5 373 L 243.5 372 Z " /><path fill="rgb(0,0,0)" stroke="rgb(0,0,0)" stroke-width="1" opacity="0.5215686274509804" d="M 195.5 373 L 198 373.5 L 195.5 374 L 195.5 373 Z " /><path fill="rgb(0,0,0)" stroke="rgb(0,0,0)" stroke-width="1" opacity="0.5215686274509804" d="M 236.5 373 L 240 373.5 L 236.5 374 L 236.5 373 Z " /><path fill="rgb(0,0,0)" stroke="rgb(0,0,0)" stroke-width="1" opacity="0.5215686274509804" d="M 415.5 373 L 414.5 375 L 415.5 373 Z " /><path fill="rgb(0,0,0)" stroke="rgb(0,0,0)" stroke-width="1" opacity="0.5215686274509804" d="M 204.5 374 L 212 374.5 L 204.5 375 L 204.5 374 Z " /><path fill="rgb(0,0,0)" stroke="rgb(0,0,0)" stroke-width="1" opacity="0.5215686274509804" d="M 223.5 374 L 231 374.5 L 223.5 375 L 223.5 374 Z " /><path fill="rgb(0,0,0)" stroke="rgb(0,0,0)" stroke-width="1" opacity="0.5215686274509804" d="M 419.5 375 L 448.5 405 L 419.5 375 Z " /><path fill="rgb(0,0,0)" stroke="rgb(0,0,0)" stroke-width="1" opacity="0.5215686274509804" d="M 411.5 378 L 409.5 381 L 411.5 378 Z " /><path fill="rgb(0,0,0)" stroke="rgb(0,0,0)" stroke-width="1" opacity="0.5215686274509804" d="M 362.5 379 L 359.5 383 L 362.5 379 Z " /><path fill="rgb(0,0,0)" stroke="rgb(0,0,0)" stroke-width="1" opacity="0.5215686274509804" d="M 75.5 382 L 78.5 386 L 75.5 382 Z " /><path fill="rgb(0,0,0)" stroke="rgb(0,0,0)" stroke-width="1" opacity="0.5215686274509804" d="M 355.5 385 L 353.5 388 L 355.5 385 Z " /><path fill="rgb(0,0,0)" stroke="rgb(0,0,0)" stroke-width="1" opacity="0.5215686274509804" d="M 405.5 385 L 401.5 390 L 405.5 385 Z " /><path fill="rgb(0,0,0)" stroke="rgb(0,0,0)" stroke-width="1" opacity="0.5215686274509804" d="M 81.5 387 L 82.5 389 L 81.5 387 Z " /><path fill="rgb(0,0,0)" stroke="rgb(0,0,0)" stroke-width="1" opacity="0.5215686274509804" d="M 350.5 389 L 348.5 392 L 350.5 389 Z " /><path fill="rgb(0,0,0)" stroke="rgb(0,0,0)" stroke-width="1" opacity="0.5215686274509804" d="M 86.5 391 L 87.5 393 L 86.5 391 Z " /><path fill="rgb(0,0,0)" stroke="rgb(0,0,0)" stroke-width="1" opacity="0.5215686274509804" d="M 342.5 395 L 341.5 397 L 342.5 395 Z " /><path fill="rgb(0,0,0)" stroke="rgb(0,0,0)" stroke-width="1" opacity="0.5215686274509804" d="M 93.5 396 L 94.5 398 L 93.5 396 Z " /><path fill="rgb(0,0,0)" stroke="rgb(0,0,0)" stroke-width="1" opacity="0.5215686274509804" d="M 336.5 399 L 335.5 401 L 336.5 399 Z " /><path fill="rgb(0,0,0)" stroke="rgb(0,0,0)" stroke-width="1" opacity="0.5215686274509804" d="M 99.5 400 L 100.5 402 L 99.5 400 Z " /><path fill="rgb(0,0,0)" stroke="rgb(0,0,0)" stroke-width="1" opacity="0.5215686274509804" d="M 333.5 401 L 332.5 403 L 333.5 401 Z " /><path fill="rgb(0,0,0)" stroke="rgb(0,0,0)" stroke-width="1" opacity="0.5215686274509804" d="M 388.5 402 L 384.5 407 L 388.5 402 Z " /><path fill="rgb(0,0,0)" stroke="rgb(0,0,0)" stroke-width="1" opacity="0.5215686274509804" d="M 379.5 410 L 377.5 413 L 379.5 410 Z " /><path fill="rgb(0,0,0)" stroke="rgb(0,0,0)" stroke-width="1" opacity="0.5215686274509804" d="M 373.5 415 L 373 416.5 L 381 425.5 L 372 417.5 L 373.5 415 Z " /><path fill="rgb(0,0,0)" stroke="rgb(0,0,0)" stroke-width="1" opacity="0.5215686274509804" d="M 175.5 431 L 178 431.5 L 175.5 432 L 175.5 431 Z " /><path fill="rgb(0,0,0)" stroke="rgb(0,0,0)" stroke-width="1" opacity="0.5215686274509804" d="M 257.5 431 L 260 431.5 L 257.5 432 L 257.5 431 Z " /><path fill="rgb(0,0,0)" stroke="rgb(0,0,0)" stroke-width="1" opacity="0.5215686274509804" d="M 251.5 432 L 254 432.5 L 251.5 433 L 251.5 432 Z " /><path fill="rgb(0,0,0)" stroke="rgb(0,0,0)" stroke-width="1" opacity="0.5215686274509804" d="M 187.5 433 L 191 433.5 L 187.5 434 L 187.5 433 Z " /><path fill="rgb(0,0,0)" stroke="rgb(0,0,0)" stroke-width="1" opacity="0.5215686274509804" d="M 244.5 433 L 248 433.5 L 244.5 434 L 244.5 433 Z " /><path fill="rgb(0,0,0)" stroke="rgb(0,0,0)" stroke-width="1" opacity="0.5215686274509804" d="M 478.5 433 L 505.5 461 L 478.5 433 Z " /><path fill="rgb(0,0,0)" stroke="rgb(0,0,0)" stroke-width="1" opacity="0.5215686274509804" d="M 195.5 434 L 201 434.5 L 195.5 435 L 195.5 434 Z " /><path fill="rgb(0,0,0)" stroke="rgb(0,0,0)" stroke-width="1" opacity="0.5215686274509804" d="M 234.5 434 L 239 434.5 L 234.5 435 L 234.5 434 Z " /><path fill="rgb(0,0,0)" stroke="rgb(0,0,0)" stroke-width="1" opacity="0.5215686274509804" d="M 211.5 435 L 223 435.5 L 211.5 436 L 211.5 435 Z " /><path fill="rgb(0,0,0)" stroke="rgb(0,0,0)" stroke-width="1" opacity="0.5215686274509804" d="M 409.5 453 L 438.5 483 L 409.5 453 Z " /><path fill="rgb(0,0,0)" stroke="rgb(0,0,0)" stroke-width="1" opacity="0.5215686274509804" d="M 511.5 473 L 512 475.5 L 511 475.5 L 511.5 473 Z " /><path fill="rgb(0,0,0)" stroke="rgb(0,0,0)" stroke-width="1" opacity="0.5215686274509804" d="M 503.5 501 L 502.5 503 L 503.5 501 Z " /><path fill="rgb(0,0,0)" stroke="rgb(0,0,0)" stroke-width="1" opacity="0.5215686274509804" d="M 460.5 503 L 461.5 505 L 460.5 503 Z " /><path fill="rgb(0,0,0)" stroke="rgb(0,0,0)" stroke-width="1" opacity="0.5215686274509804" d="M 485.5 510 L 488 510.5 L 485.5 511 L 485.5 510 Z " /><path fill="rgb(0,0,0)" stroke="rgb(0,0,0)" stroke-width="1" opacity="1" d="M 211.5 1 L 239.5 2 L 240.5 3 L 259.5 5 L 279.5 10 L 308.5 21 Q 350.8 41.2 380 74.5 Q 406.8 104.2 422 145.5 L 429 169.5 L 433 192.5 L 433 202.5 L 434 203.5 L 434 232.5 L 433 233.5 L 433 243.5 L 429 266.5 L 417 303.5 Q 396.1 350.6 359.5 382 Q 330.1 408.1 289.5 423 L 273.5 428 L 249.5 433 L 230.5 434 L 229.5 435 L 204.5 435 L 203.5 434 L 185.5 433 L 161.5 428 L 125.5 415 Q 84.5 395.5 56 363.5 Q 29.4 334.6 14 294.5 L 4 259.5 L 4 254.5 L 2 247.5 L 2 239.5 L 1 238.5 Q 2.8 225.2 0 216.5 L 1 215.5 L 1 197.5 L 2 196.5 L 4 176.5 L 9 156.5 L 19 129.5 Q 37.3 89.3 67.5 61 Q 94.2 35.2 130.5 19 L 170.5 6 L 187.5 3 L 194.5 3 L 195.5 2 L 210.5 2 L 211.5 1 Z M 205 61 L 204 62 L 196 62 L 185 64 L 156 73 Q 134 83 117 97 Q 94 116 79 143 L 66 174 L 63 186 L 62 197 L 61 198 L 61 207 L 60 208 L 60 230 L 61 231 L 62 246 L 70 275 Q 81 304 101 325 Q 119 344 143 357 L 172 369 L 202 375 L 234 375 L 260 370 Q 295 360 320 338 Q 340 320 354 297 L 368 265 L 374 235 L 374 202 L 369 176 Q 358 139 335 114 Q 312 87 277 72 L 246 63 L 231 62 L 230 61 L 205 61 Z " /><path fill="rgb(0,0,0)" stroke="rgb(0,0,0)" stroke-width="1" opacity="1" d="M 415.5 374 L 418.5 375 L 505 460.5 L 510 469.5 L 512 480.5 L 510 490.5 L 501.5 503 Q 493.7 510.7 478.5 511 L 469.5 509 L 462.5 505 L 385.5 429 L 384 429 Q 385.1 426.3 382.5 427 L 373 416.5 L 401 391.5 L 415.5 374 Z " /></svg>