<svg width="512" height="512" version="1.1" xmlns="http://www.w3.org/2000/svg" desc="Created with imagetracer.js version 1.2.6" ><path fill="rgb(0,0,0)" stroke="rgb(0,0,0)" stroke-width="1" opacity="0" d="M 0 0 L 396 0.5 Q 358.7 6.2 339 29.5 Q 325.6 44.1 319 65.5 L 316 80.5 L 316 99.5 L 319 114.5 L 322 123 L 173.5 212 Q 160.8 196.7 141.5 188 L 126.5 183 L 115.5 181 L 96.5 181 L 81.5 184 L 60.5 193 Q 48.2 200.2 39 210.5 Q 25.6 225.1 19 246.5 L 16 261.5 L 16 280.5 L 19 295.5 L 28 316.5 Q 35.2 328.8 45.5 338 Q 60.1 351.4 81.5 358 L 96.5 361 L 115.5 361 L 130.5 358 L 149.5 350 Q 165.2 341.2 176 327.5 L 178.5 324 L 216.5 342 L 320 395 L 316 413.5 L 316 431.5 L 319 446.5 L 328 467.5 Q 335.2 479.8 345.5 489 Q 356.8 499.7 372.5 506 L 389.5 511 L 396 511.5 L 0 512 L 0 0 Z " /><path fill="rgb(0,0,0)" stroke="rgb(0,0,0)" stroke-width="1" opacity="0" d="M 416.5 0 L 511.5 0 L 512 0.5 L 512 512 L 416 511.5 Q 453.3 505.8 473 482.5 Q 486.4 467.9 493 446.5 L 496 431.5 L 496 412.5 L 493 397.5 L 484 376.5 Q 476.8 364.2 466.5 355 Q 451.9 341.6 430.5 335 L 415.5 332 L 396.5 332 L 381.5 335 L 362.5 343 Q 347 352 336 365.5 L 334.5 368 L 294.5 349 L 192 295.5 L 196 279.5 L 196 261.5 L 190 237.5 L 337.5 148 Q 350.6 163.9 370.5 173 L 385.5 178 L 396.5 180 L 415.5 180 L 430.5 177 L 451.5 168 Q 463.8 160.8 473 150.5 Q 486.4 135.9 493 114.5 L 496 99.5 L 496 80.5 L 493 65.5 L 484 44.5 Q 476.8 32.2 466.5 23 Q 455.2 12.3 439.5 6 L 422.5 1 L 416.5 1 L 416.5 0 Z " /><path fill="rgb(0,0,0)" stroke="rgb(0,0,0)" stroke-width="1" opacity="0.796078431372549" d="M 396.5 0 L 404 0.5 L 396.5 1 L 396.5 0 Z " /><path fill="rgb(0,0,0)" stroke="rgb(0,0,0)" stroke-width="1" opacity="0.796078431372549" d="M 408.5 0 L 416 0.5 L 408.5 1 L 408.5 0 Z " /><path fill="rgb(0,0,0)" stroke="rgb(0,0,0)" stroke-width="1" opacity="0.796078431372549" d="M 389.5 1 L 393 1.5 L 389.5 2 L 389.5 1 Z " /><path fill="rgb(0,0,0)" stroke="rgb(0,0,0)" stroke-width="1" opacity="0.796078431372549" d="M 419.5 1 L 423 1.5 L 419.5 2 L 419.5 1 Z " /><path fill="rgb(0,0,0)" stroke="rgb(0,0,0)" stroke-width="1" opacity="0.796078431372549" d="M 360.5 12 L 359.5 14 L 360.5 12 Z " /><path fill="rgb(0,0,0)" stroke="rgb(0,0,0)" stroke-width="1" opacity="0.796078431372549" d="M 451.5 12 L 452.5 14 L 451.5 12 Z " /><path fill="rgb(0,0,0)" stroke="rgb(0,0,0)" stroke-width="1" opacity="0.796078431372549" d="M 355.5 15 L 353.5 18 L 355.5 15 Z " /><path fill="rgb(0,0,0)" stroke="rgb(0,0,0)" stroke-width="1" opacity="0.796078431372549" d="M 456.5 15 L 458.5 18 L 456.5 15 Z " /><path fill="rgb(0,0,0)" stroke="rgb(0,0,0)" stroke-width="1" opacity="0.796078431372549" d="M 351.5 18 L 349.5 21 L 351.5 18 Z " /><path fill="rgb(0,0,0)" stroke="rgb(0,0,0)" stroke-width="1" opacity="0.796078431372549" d="M 460.5 18 L 462.5 21 L 460.5 18 Z " /><path fill="rgb(0,0,0)" stroke="rgb(0,0,0)" stroke-width="1" opacity="0.796078431372549" d="M 345.5 23 L 339.5 30 L 345.5 23 Z " /><path fill="rgb(0,0,0)" stroke="rgb(0,0,0)" stroke-width="1" opacity="0.796078431372549" d="M 466.5 23 L 472.5 30 L 466.5 23 Z " /><path fill="rgb(0,0,0)" stroke="rgb(0,0,0)" stroke-width="1" opacity="0.796078431372549" d="M 336.5 33 L 334.5 36 L 336.5 33 Z " /><path fill="rgb(0,0,0)" stroke="rgb(0,0,0)" stroke-width="1" opacity="0.796078431372549" d="M 475.5 33 L 477.5 36 L 475.5 33 Z " /><path fill="rgb(0,0,0)" stroke="rgb(0,0,0)" stroke-width="1" opacity="0.796078431372549" d="M 333.5 37 L 331.5 40 L 333.5 37 Z " /><path fill="rgb(0,0,0)" stroke="rgb(0,0,0)" stroke-width="1" opacity="0.796078431372549" d="M 478.5 37 L 480.5 40 L 478.5 37 Z " /><path fill="rgb(0,0,0)" stroke="rgb(0,0,0)" stroke-width="1" opacity="0.796078431372549" d="M 329.5 43 L 328.5 45 L 329.5 43 Z " /><path fill="rgb(0,0,0)" stroke="rgb(0,0,0)" stroke-width="1" opacity="0.796078431372549" d="M 482.5 43 L 483.5 45 L 482.5 43 Z " /><path fill="rgb(0,0,0)" stroke="rgb(0,0,0)" stroke-width="1" opacity="0.796078431372549" d="M 317.5 73 L 318 76.5 L 317 76.5 L 317.5 73 Z " /><path fill="rgb(0,0,0)" stroke="rgb(0,0,0)" stroke-width="1" opacity="0.796078431372549" d="M 494.5 73 L 495 76.5 L 494 76.5 L 494.5 73 Z " /><path fill="rgb(0,0,0)" stroke="rgb(0,0,0)" stroke-width="1" opacity="0.796078431372549" d="M 316.5 80 L 317 87.5 L 316 87.5 L 316.5 80 Z " /><path fill="rgb(0,0,0)" stroke="rgb(0,0,0)" stroke-width="1" opacity="0.796078431372549" d="M 495.5 80 L 496 87.5 L 495 87.5 L 495.5 80 Z " /><path fill="rgb(0,0,0)" stroke="rgb(0,0,0)" stroke-width="1" opacity="0.796078431372549" d="M 316.5 92 L 317 99.5 L 316 99.5 L 316.5 92 Z " /><path fill="rgb(0,0,0)" stroke="rgb(0,0,0)" stroke-width="1" opacity="0.796078431372549" d="M 495.5 92 L 496 99.5 L 495 99.5 L 495.5 92 Z " /><path fill="rgb(0,0,0)" stroke="rgb(0,0,0)" stroke-width="1" opacity="0.796078431372549" d="M 317.5 103 L 318 105.5 L 317 105.5 L 317.5 103 Z " /><path fill="rgb(0,0,0)" stroke="rgb(0,0,0)" stroke-width="1" opacity="0.796078431372549" d="M 494.5 103 L 495 106.5 L 494 106.5 L 494.5 103 Z " /><path fill="rgb(0,0,0)" stroke="rgb(0,0,0)" stroke-width="1" opacity="0.796078431372549" d="M 318.5 108 L 319 110.5 L 318 110.5 L 318.5 108 Z " /><path fill="rgb(0,0,0)" stroke="rgb(0,0,0)" stroke-width="1" opacity="0.796078431372549" d="M 318.5 124 L 317.5 126 L 318.5 124 Z " /><path fill="rgb(0,0,0)" stroke="rgb(0,0,0)" stroke-width="1" opacity="0.796078431372549" d="M 483.5 135 L 482.5 137 L 483.5 135 Z " /><path fill="rgb(0,0,0)" stroke="rgb(0,0,0)" stroke-width="1" opacity="0.796078431372549" d="M 480.5 140 L 478.5 143 L 480.5 140 Z " /><path fill="rgb(0,0,0)" stroke="rgb(0,0,0)" stroke-width="1" opacity="0.796078431372549" d="M 290.5 141 L 289.5 143 L 290.5 141 Z " /><path fill="rgb(0,0,0)" stroke="rgb(0,0,0)" stroke-width="1" opacity="0.796078431372549" d="M 285.5 144 L 284.5 146 L 285.5 144 Z " /><path fill="rgb(0,0,0)" stroke="rgb(0,0,0)" stroke-width="1" opacity="0.796078431372549" d="M 477.5 144 L 475.5 147 L 477.5 144 Z " /><path fill="rgb(0,0,0)" stroke="rgb(0,0,0)" stroke-width="1" opacity="0.796078431372549" d="M 280.5 147 L 279.5 149 L 280.5 147 Z " /><path fill="rgb(0,0,0)" stroke="rgb(0,0,0)" stroke-width="1" opacity="0.796078431372549" d="M 336.5 148 L 335.5 150 L 336.5 148 Z " /><path fill="rgb(0,0,0)" stroke="rgb(0,0,0)" stroke-width="1" opacity="0.796078431372549" d="M 338.5 148 L 342.5 153 L 338.5 148 Z " /><path fill="rgb(0,0,0)" stroke="rgb(0,0,0)" stroke-width="1" opacity="0.796078431372549" d="M 275.5 150 L 274.5 152 L 275.5 150 Z " /><path fill="rgb(0,0,0)" stroke="rgb(0,0,0)" stroke-width="1" opacity="0.796078431372549" d="M 472.5 150 L 466.5 157 L 472.5 150 Z " /><path fill="rgb(0,0,0)" stroke="rgb(0,0,0)" stroke-width="1" opacity="0.796078431372549" d="M 331.5 151 L 330.5 153 L 331.5 151 Z " /><path fill="rgb(0,0,0)" stroke="rgb(0,0,0)" stroke-width="1" opacity="0.796078431372549" d="M 270.5 153 L 269.5 155 L 270.5 153 Z " /><path fill="rgb(0,0,0)" stroke="rgb(0,0,0)" stroke-width="1" opacity="0.796078431372549" d="M 326.5 154 L 325.5 156 L 326.5 154 Z " /><path fill="rgb(0,0,0)" stroke="rgb(0,0,0)" stroke-width="1" opacity="0.796078431372549" d="M 345.5 155 L 349.5 160 L 345.5 155 Z " /><path fill="rgb(0,0,0)" stroke="rgb(0,0,0)" stroke-width="1" opacity="0.796078431372549" d="M 265.5 156 L 264.5 158 L 265.5 156 Z " /><path fill="rgb(0,0,0)" stroke="rgb(0,0,0)" stroke-width="1" opacity="0.796078431372549" d="M 321.5 157 L 320.5 159 L 321.5 157 Z " /><path fill="rgb(0,0,0)" stroke="rgb(0,0,0)" stroke-width="1" opacity="0.796078431372549" d="M 260.5 159 L 259.5 161 L 260.5 159 Z " /><path fill="rgb(0,0,0)" stroke="rgb(0,0,0)" stroke-width="1" opacity="0.796078431372549" d="M 462.5 159 L 460.5 162 L 462.5 159 Z " /><path fill="rgb(0,0,0)" stroke="rgb(0,0,0)" stroke-width="1" opacity="0.796078431372549" d="M 316.5 160 L 315.5 162 L 316.5 160 Z " /><path fill="rgb(0,0,0)" stroke="rgb(0,0,0)" stroke-width="1" opacity="0.796078431372549" d="M 352.5 161 L 353.5 163 L 352.5 161 Z " /><path fill="rgb(0,0,0)" stroke="rgb(0,0,0)" stroke-width="1" opacity="0.796078431372549" d="M 255.5 162 L 254.5 164 L 255.5 162 Z " /><path fill="rgb(0,0,0)" stroke="rgb(0,0,0)" stroke-width="1" opacity="0.796078431372549" d="M 458.5 162 L 456.5 165 L 458.5 162 Z " /><path fill="rgb(0,0,0)" stroke="rgb(0,0,0)" stroke-width="1" opacity="0.796078431372549" d="M 311.5 163 L 310.5 165 L 311.5 163 Z " /><path fill="rgb(0,0,0)" stroke="rgb(0,0,0)" stroke-width="1" opacity="0.796078431372549" d="M 355.5 163 L 356.5 165 L 355.5 163 Z " /><path fill="rgb(0,0,0)" stroke="rgb(0,0,0)" stroke-width="1" opacity="0.796078431372549" d="M 250.5 165 L 249.5 167 L 250.5 165 Z " /><path fill="rgb(0,0,0)" stroke="rgb(0,0,0)" stroke-width="1" opacity="0.796078431372549" d="M 306.5 166 L 305.5 168 L 306.5 166 Z " /><path fill="rgb(0,0,0)" stroke="rgb(0,0,0)" stroke-width="1" opacity="0.796078431372549" d="M 452.5 166 L 451.5 168 L 452.5 166 Z " /><path fill="rgb(0,0,0)" stroke="rgb(0,0,0)" stroke-width="1" opacity="0.796078431372549" d="M 245.5 168 L 244.5 170 L 245.5 168 Z " /><path fill="rgb(0,0,0)" stroke="rgb(0,0,0)" stroke-width="1" opacity="0.796078431372549" d="M 363.5 168 L 364.5 170 L 363.5 168 Z " /><path fill="rgb(0,0,0)" stroke="rgb(0,0,0)" stroke-width="1" opacity="0.796078431372549" d="M 301.5 169 L 300.5 171 L 301.5 169 Z " /><path fill="rgb(0,0,0)" stroke="rgb(0,0,0)" stroke-width="1" opacity="0.796078431372549" d="M 240.5 171 L 239.5 173 L 240.5 171 Z " /><path fill="rgb(0,0,0)" stroke="rgb(0,0,0)" stroke-width="1" opacity="0.796078431372549" d="M 296.5 172 L 295.5 174 L 296.5 172 Z " /><path fill="rgb(0,0,0)" stroke="rgb(0,0,0)" stroke-width="1" opacity="0.796078431372549" d="M 235.5 174 L 234.5 176 L 235.5 174 Z " /><path fill="rgb(0,0,0)" stroke="rgb(0,0,0)" stroke-width="1" opacity="0.796078431372549" d="M 291.5 175 L 290.5 177 L 291.5 175 Z " /><path fill="rgb(0,0,0)" stroke="rgb(0,0,0)" stroke-width="1" opacity="0.796078431372549" d="M 230.5 177 L 229.5 179 L 230.5 177 Z " /><path fill="rgb(0,0,0)" stroke="rgb(0,0,0)" stroke-width="1" opacity="0.796078431372549" d="M 286.5 178 L 285.5 180 L 286.5 178 Z " /><path fill="rgb(0,0,0)" stroke="rgb(0,0,0)" stroke-width="1" opacity="0.796078431372549" d="M 390.5 178 L 393 178.5 L 390.5 179 L 390.5 178 Z " /><path fill="rgb(0,0,0)" stroke="rgb(0,0,0)" stroke-width="1" opacity="0.796078431372549" d="M 419.5 178 L 423 178.5 L 419.5 179 L 419.5 178 Z " /><path fill="rgb(0,0,0)" stroke="rgb(0,0,0)" stroke-width="1" opacity="0.796078431372549" d="M 396.5 179 L 404 179.5 L 396.5 180 L 396.5 179 Z " /><path fill="rgb(0,0,0)" stroke="rgb(0,0,0)" stroke-width="1" opacity="0.796078431372549" d="M 408.5 179 L 416 179.5 L 408.5 180 L 408.5 179 Z " /><path fill="rgb(0,0,0)" stroke="rgb(0,0,0)" stroke-width="1" opacity="0.796078431372549" d="M 225.5 180 L 224.5 182 L 225.5 180 Z " /><path fill="rgb(0,0,0)" stroke="rgb(0,0,0)" stroke-width="1" opacity="0.796078431372549" d="M 96.5 181 L 104 181.5 L 96.5 182 L 96.5 181 Z " /><path fill="rgb(0,0,0)" stroke="rgb(0,0,0)" stroke-width="1" opacity="0.796078431372549" d="M 108.5 181 L 116 181.5 L 108.5 182 L 108.5 181 Z " /><path fill="rgb(0,0,0)" stroke="rgb(0,0,0)" stroke-width="1" opacity="0.796078431372549" d="M 281.5 181 L 280.5 183 L 281.5 181 Z " /><path fill="rgb(0,0,0)" stroke="rgb(0,0,0)" stroke-width="1" opacity="0.796078431372549" d="M 89.5 182 L 93 182.5 L 89.5 183 L 89.5 182 Z " /><path fill="rgb(0,0,0)" stroke="rgb(0,0,0)" stroke-width="1" opacity="0.796078431372549" d="M 119.5 182 L 122 182.5 L 119.5 183 L 119.5 182 Z " /><path fill="rgb(0,0,0)" stroke="rgb(0,0,0)" stroke-width="1" opacity="0.796078431372549" d="M 220.5 183 L 219.5 185 L 220.5 183 Z " /><path fill="rgb(0,0,0)" stroke="rgb(0,0,0)" stroke-width="1" opacity="0.796078431372549" d="M 276.5 184 L 275.5 186 L 276.5 184 Z " /><path fill="rgb(0,0,0)" stroke="rgb(0,0,0)" stroke-width="1" opacity="0.796078431372549" d="M 215.5 186 L 214.5 188 L 215.5 186 Z " /><path fill="rgb(0,0,0)" stroke="rgb(0,0,0)" stroke-width="1" opacity="0.796078431372549" d="M 271.5 187 L 270.5 189 L 271.5 187 Z " /><path fill="rgb(0,0,0)" stroke="rgb(0,0,0)" stroke-width="1" opacity="0.796078431372549" d="M 210.5 189 L 209.5 191 L 210.5 189 Z " /><path fill="rgb(0,0,0)" stroke="rgb(0,0,0)" stroke-width="1" opacity="0.796078431372549" d="M 266.5 190 L 265.5 192 L 266.5 190 Z " /><path fill="rgb(0,0,0)" stroke="rgb(0,0,0)" stroke-width="1" opacity="0.796078431372549" d="M 149.5 192 L 150.5 194 L 149.5 192 Z " /><path fill="rgb(0,0,0)" stroke="rgb(0,0,0)" stroke-width="1" opacity="0.796078431372549" d="M 60.5 193 L 59.5 195 L 60.5 193 Z " /><path fill="rgb(0,0,0)" stroke="rgb(0,0,0)" stroke-width="1" opacity="0.796078431372549" d="M 261.5 193 L 260.5 195 L 261.5 193 Z " /><path fill="rgb(0,0,0)" stroke="rgb(0,0,0)" stroke-width="1" opacity="0.796078431372549" d="M 55.5 196 L 53.5 199 L 55.5 196 Z " /><path fill="rgb(0,0,0)" stroke="rgb(0,0,0)" stroke-width="1" opacity="0.796078431372549" d="M 158.5 198 L 159.5 200 L 158.5 198 Z " /><path fill="rgb(0,0,0)" stroke="rgb(0,0,0)" stroke-width="1" opacity="0.796078431372549" d="M 51.5 199 L 49.5 202 L 51.5 199 Z " /><path fill="rgb(0,0,0)" stroke="rgb(0,0,0)" stroke-width="1" opacity="0.796078431372549" d="M 162.5 201 L 165.5 205 L 162.5 201 Z " /><path fill="rgb(0,0,0)" stroke="rgb(0,0,0)" stroke-width="1" opacity="0.796078431372549" d="M 45.5 204 L 39.5 211 L 45.5 204 Z " /><path fill="rgb(0,0,0)" stroke="rgb(0,0,0)" stroke-width="1" opacity="0.796078431372549" d="M 169.5 208 L 172.5 212 L 169.5 208 Z " /><path fill="rgb(0,0,0)" stroke="rgb(0,0,0)" stroke-width="1" opacity="0.796078431372549" d="M 177.5 209 L 176.5 211 L 177.5 209 Z " /><path fill="rgb(0,0,0)" stroke="rgb(0,0,0)" stroke-width="1" opacity="0.796078431372549" d="M 233.5 210 L 232.5 212 L 233.5 210 Z " /><path fill="rgb(0,0,0)" stroke="rgb(0,0,0)" stroke-width="1" opacity="0.796078431372549" d="M 228.5 213 L 227.5 215 L 228.5 213 Z " /><path fill="rgb(0,0,0)" stroke="rgb(0,0,0)" stroke-width="1" opacity="0.796078431372549" d="M 36.5 214 L 34.5 217 L 36.5 214 Z " /><path fill="rgb(0,0,0)" stroke="rgb(0,0,0)" stroke-width="1" opacity="0.796078431372549" d="M 223.5 216 L 222.5 218 L 223.5 216 Z " /><path fill="rgb(0,0,0)" stroke="rgb(0,0,0)" stroke-width="1" opacity="0.796078431372549" d="M 33.5 218 L 31.5 221 L 33.5 218 Z " /><path fill="rgb(0,0,0)" stroke="rgb(0,0,0)" stroke-width="1" opacity="0.796078431372549" d="M 218.5 219 L 217.5 221 L 218.5 219 Z " /><path fill="rgb(0,0,0)" stroke="rgb(0,0,0)" stroke-width="1" opacity="0.796078431372549" d="M 213.5 222 L 212.5 224 L 213.5 222 Z " /><path fill="rgb(0,0,0)" stroke="rgb(0,0,0)" stroke-width="1" opacity="0.796078431372549" d="M 29.5 224 L 28.5 226 L 29.5 224 Z " /><path fill="rgb(0,0,0)" stroke="rgb(0,0,0)" stroke-width="1" opacity="0.796078431372549" d="M 208.5 225 L 207.5 227 L 208.5 225 Z " /><path fill="rgb(0,0,0)" stroke="rgb(0,0,0)" stroke-width="1" opacity="0.796078431372549" d="M 203.5 228 L 202.5 230 L 203.5 228 Z " /><path fill="rgb(0,0,0)" stroke="rgb(0,0,0)" stroke-width="1" opacity="0.796078431372549" d="M 198.5 231 L 197.5 233 L 198.5 231 Z " /><path fill="rgb(0,0,0)" stroke="rgb(0,0,0)" stroke-width="1" opacity="0.796078431372549" d="M 193.5 234 L 192.5 236 L 193.5 234 Z " /><path fill="rgb(0,0,0)" stroke="rgb(0,0,0)" stroke-width="1" opacity="0.796078431372549" d="M 190.5 236 L 190 237.5 L 189.5 239 L 189 237.5 L 190.5 236 Z " /><path fill="rgb(0,0,0)" stroke="rgb(0,0,0)" stroke-width="1" opacity="0.796078431372549" d="M 17.5 254 L 18 257.5 L 17 257.5 L 17.5 254 Z " /><path fill="rgb(0,0,0)" stroke="rgb(0,0,0)" stroke-width="1" opacity="0.796078431372549" d="M 194.5 255 L 195 257.5 L 194 257.5 L 194.5 255 Z " /><path fill="rgb(0,0,0)" stroke="rgb(0,0,0)" stroke-width="1" opacity="0.796078431372549" d="M 16.5 261 L 17 268.5 L 16 268.5 L 16.5 261 Z " /><path fill="rgb(0,0,0)" stroke="rgb(0,0,0)" stroke-width="1" opacity="0.796078431372549" d="M 195.5 261 L 196 268.5 L 195 268.5 L 195.5 261 Z " /><path fill="rgb(0,0,0)" stroke="rgb(0,0,0)" stroke-width="1" opacity="0.796078431372549" d="M 16.5 273 L 17 280.5 L 16 280.5 L 16.5 273 Z " /><path fill="rgb(0,0,0)" stroke="rgb(0,0,0)" stroke-width="1" opacity="0.796078431372549" d="M 195.5 273 L 196 279.5 L 195 279.5 L 195.5 273 Z " /><path fill="rgb(0,0,0)" stroke="rgb(0,0,0)" stroke-width="1" opacity="0.796078431372549" d="M 17.5 284 L 18 287.5 L 17 287.5 L 17.5 284 Z " /><path fill="rgb(0,0,0)" stroke="rgb(0,0,0)" stroke-width="1" opacity="0.796078431372549" d="M 208.5 304 L 212 306.5 L 210.5 306 L 208.5 304 Z " /><path fill="rgb(0,0,0)" stroke="rgb(0,0,0)" stroke-width="1" opacity="0.796078431372549" d="M 28.5 316 L 29.5 318 L 28.5 316 Z " /><path fill="rgb(0,0,0)" stroke="rgb(0,0,0)" stroke-width="1" opacity="0.796078431372549" d="M 31.5 321 L 33.5 324 L 31.5 321 Z " /><path fill="rgb(0,0,0)" stroke="rgb(0,0,0)" stroke-width="1" opacity="0.796078431372549" d="M 178.5 323 L 180 323.5 L 177.5 325 L 178.5 323 Z " /><path fill="rgb(0,0,0)" stroke="rgb(0,0,0)" stroke-width="1" opacity="0.796078431372549" d="M 34.5 325 L 36.5 328 L 34.5 325 Z " /><path fill="rgb(0,0,0)" stroke="rgb(0,0,0)" stroke-width="1" opacity="0.796078431372549" d="M 249.5 325 L 253 327.5 L 251.5 327 L 249.5 325 Z " /><path fill="rgb(0,0,0)" stroke="rgb(0,0,0)" stroke-width="1" opacity="0.796078431372549" d="M 175.5 327 L 173.5 330 L 175.5 327 Z " /><path fill="rgb(0,0,0)" stroke="rgb(0,0,0)" stroke-width="1" opacity="0.796078431372549" d="M 39.5 331 L 45.5 338 L 39.5 331 Z " /><path fill="rgb(0,0,0)" stroke="rgb(0,0,0)" stroke-width="1" opacity="0.796078431372549" d="M 396.5 332 L 404 332.5 L 396.5 333 L 396.5 332 Z " /><path fill="rgb(0,0,0)" stroke="rgb(0,0,0)" stroke-width="1" opacity="0.796078431372549" d="M 408.5 332 L 416 332.5 L 408.5 333 L 408.5 332 Z " /><path fill="rgb(0,0,0)" stroke="rgb(0,0,0)" stroke-width="1" opacity="0.796078431372549" d="M 390.5 333 L 393 333.5 L 390.5 334 L 390.5 333 Z " /><path fill="rgb(0,0,0)" stroke="rgb(0,0,0)" stroke-width="1" opacity="0.796078431372549" d="M 419.5 333 L 423 333.5 L 419.5 334 L 419.5 333 Z " /><path fill="rgb(0,0,0)" stroke="rgb(0,0,0)" stroke-width="1" opacity="0.796078431372549" d="M 163.5 339 L 161.5 342 L 163.5 339 Z " /><path fill="rgb(0,0,0)" stroke="rgb(0,0,0)" stroke-width="1" opacity="0.796078431372549" d="M 49.5 340 L 51.5 343 L 49.5 340 Z " /><path fill="rgb(0,0,0)" stroke="rgb(0,0,0)" stroke-width="1" opacity="0.796078431372549" d="M 159.5 342 L 157.5 345 L 159.5 342 Z " /><path fill="rgb(0,0,0)" stroke="rgb(0,0,0)" stroke-width="1" opacity="0.796078431372549" d="M 217.5 342 L 221 344.5 L 219.5 344 L 217.5 342 Z " /><path fill="rgb(0,0,0)" stroke="rgb(0,0,0)" stroke-width="1" opacity="0.796078431372549" d="M 53.5 343 L 55.5 346 L 53.5 343 Z " /><path fill="rgb(0,0,0)" stroke="rgb(0,0,0)" stroke-width="1" opacity="0.796078431372549" d="M 362.5 343 L 361.5 345 L 362.5 343 Z " /><path fill="rgb(0,0,0)" stroke="rgb(0,0,0)" stroke-width="1" opacity="0.796078431372549" d="M 451.5 344 L 452.5 346 L 451.5 344 Z " /><path fill="rgb(0,0,0)" stroke="rgb(0,0,0)" stroke-width="1" opacity="0.796078431372549" d="M 155.5 345 L 154.5 347 L 155.5 345 Z " /><path fill="rgb(0,0,0)" stroke="rgb(0,0,0)" stroke-width="1" opacity="0.796078431372549" d="M 290.5 346 L 294 348.5 L 292.5 348 L 290.5 346 Z " /><path fill="rgb(0,0,0)" stroke="rgb(0,0,0)" stroke-width="1" opacity="0.796078431372549" d="M 357.5 346 L 356.5 348 L 357.5 346 Z " /><path fill="rgb(0,0,0)" stroke="rgb(0,0,0)" stroke-width="1" opacity="0.796078431372549" d="M 59.5 347 L 60.5 349 L 59.5 347 Z " /><path fill="rgb(0,0,0)" stroke="rgb(0,0,0)" stroke-width="1" opacity="0.796078431372549" d="M 456.5 347 L 458.5 350 L 456.5 347 Z " /><path fill="rgb(0,0,0)" stroke="rgb(0,0,0)" stroke-width="1" opacity="0.796078431372549" d="M 150.5 348 L 149.5 350 L 150.5 348 Z " /><path fill="rgb(0,0,0)" stroke="rgb(0,0,0)" stroke-width="1" opacity="0.796078431372549" d="M 354.5 348 L 352.5 351 L 354.5 348 Z " /><path fill="rgb(0,0,0)" stroke="rgb(0,0,0)" stroke-width="1" opacity="0.796078431372549" d="M 460.5 350 L 462.5 353 L 460.5 350 Z " /><path fill="rgb(0,0,0)" stroke="rgb(0,0,0)" stroke-width="1" opacity="0.796078431372549" d="M 349.5 352 L 346.5 356 L 349.5 352 Z " /><path fill="rgb(0,0,0)" stroke="rgb(0,0,0)" stroke-width="1" opacity="0.796078431372549" d="M 466.5 355 L 472.5 362 L 466.5 355 Z " /><path fill="rgb(0,0,0)" stroke="rgb(0,0,0)" stroke-width="1" opacity="0.796078431372549" d="M 89.5 359 L 93 359.5 L 89.5 360 L 89.5 359 Z " /><path fill="rgb(0,0,0)" stroke="rgb(0,0,0)" stroke-width="1" opacity="0.796078431372549" d="M 119.5 359 L 122 359.5 L 119.5 360 L 119.5 359 Z " /><path fill="rgb(0,0,0)" stroke="rgb(0,0,0)" stroke-width="1" opacity="0.796078431372549" d="M 96.5 360 L 104 360.5 L 96.5 361 L 96.5 360 Z " /><path fill="rgb(0,0,0)" stroke="rgb(0,0,0)" stroke-width="1" opacity="0.796078431372549" d="M 108.5 360 L 116 360.5 L 108.5 361 L 108.5 360 Z " /><path fill="rgb(0,0,0)" stroke="rgb(0,0,0)" stroke-width="1" opacity="0.796078431372549" d="M 339.5 362 L 336.5 366 L 339.5 362 Z " /><path fill="rgb(0,0,0)" stroke="rgb(0,0,0)" stroke-width="1" opacity="0.796078431372549" d="M 258.5 363 L 262 365.5 L 260.5 365 L 258.5 363 Z " /><path fill="rgb(0,0,0)" stroke="rgb(0,0,0)" stroke-width="1" opacity="0.796078431372549" d="M 475.5 365 L 477.5 368 L 475.5 365 Z " /><path fill="rgb(0,0,0)" stroke="rgb(0,0,0)" stroke-width="1" opacity="0.796078431372549" d="M 478.5 369 L 480.5 372 L 478.5 369 Z " /><path fill="rgb(0,0,0)" stroke="rgb(0,0,0)" stroke-width="1" opacity="0.796078431372549" d="M 482.5 375 L 483.5 377 L 482.5 375 Z " /><path fill="rgb(0,0,0)" stroke="rgb(0,0,0)" stroke-width="1" opacity="0.796078431372549" d="M 299.5 384 L 303 386.5 L 301.5 386 L 299.5 384 Z " /><path fill="rgb(0,0,0)" stroke="rgb(0,0,0)" stroke-width="1" opacity="0.796078431372549" d="M 494.5 405 L 495 408.5 L 494 408.5 L 494.5 405 Z " /><path fill="rgb(0,0,0)" stroke="rgb(0,0,0)" stroke-width="1" opacity="0.796078431372549" d="M 495.5 412 L 496 419.5 L 495 419.5 L 495.5 412 Z " /><path fill="rgb(0,0,0)" stroke="rgb(0,0,0)" stroke-width="1" opacity="0.796078431372549" d="M 316.5 413 L 317 419.5 L 316 419.5 L 316.5 413 Z " /><path fill="rgb(0,0,0)" stroke="rgb(0,0,0)" stroke-width="1" opacity="0.796078431372549" d="M 316.5 424 L 317 431.5 L 316 431.5 L 316.5 424 Z " /><path fill="rgb(0,0,0)" stroke="rgb(0,0,0)" stroke-width="1" opacity="0.796078431372549" d="M 495.5 424 L 496 431.5 L 495 431.5 L 495.5 424 Z " /><path fill="rgb(0,0,0)" stroke="rgb(0,0,0)" stroke-width="1" opacity="0.796078431372549" d="M 317.5 435 L 318 438.5 L 317 438.5 L 317.5 435 Z " /><path fill="rgb(0,0,0)" stroke="rgb(0,0,0)" stroke-width="1" opacity="0.796078431372549" d="M 494.5 435 L 495 438.5 L 494 438.5 L 494.5 435 Z " /><path fill="rgb(0,0,0)" stroke="rgb(0,0,0)" stroke-width="1" opacity="0.796078431372549" d="M 328.5 467 L 329.5 469 L 328.5 467 Z " /><path fill="rgb(0,0,0)" stroke="rgb(0,0,0)" stroke-width="1" opacity="0.796078431372549" d="M 483.5 467 L 482.5 469 L 483.5 467 Z " /><path fill="rgb(0,0,0)" stroke="rgb(0,0,0)" stroke-width="1" opacity="0.796078431372549" d="M 331.5 472 L 333.5 475 L 331.5 472 Z " /><path fill="rgb(0,0,0)" stroke="rgb(0,0,0)" stroke-width="1" opacity="0.796078431372549" d="M 480.5 472 L 478.5 475 L 480.5 472 Z " /><path fill="rgb(0,0,0)" stroke="rgb(0,0,0)" stroke-width="1" opacity="0.796078431372549" d="M 334.5 476 L 336.5 479 L 334.5 476 Z " /><path fill="rgb(0,0,0)" stroke="rgb(0,0,0)" stroke-width="1" opacity="0.796078431372549" d="M 477.5 476 L 475.5 479 L 477.5 476 Z " /><path fill="rgb(0,0,0)" stroke="rgb(0,0,0)" stroke-width="1" opacity="0.796078431372549" d="M 339.5 482 L 345.5 489 L 339.5 482 Z " /><path fill="rgb(0,0,0)" stroke="rgb(0,0,0)" stroke-width="1" opacity="0.796078431372549" d="M 472.5 482 L 466.5 489 L 472.5 482 Z " /><path fill="rgb(0,0,0)" stroke="rgb(0,0,0)" stroke-width="1" opacity="0.796078431372549" d="M 349.5 491 L 351.5 494 L 349.5 491 Z " /><path fill="rgb(0,0,0)" stroke="rgb(0,0,0)" stroke-width="1" opacity="0.796078431372549" d="M 462.5 491 L 460.5 494 L 462.5 491 Z " /><path fill="rgb(0,0,0)" stroke="rgb(0,0,0)" stroke-width="1" opacity="0.796078431372549" d="M 353.5 494 L 355.5 497 L 353.5 494 Z " /><path fill="rgb(0,0,0)" stroke="rgb(0,0,0)" stroke-width="1" opacity="0.796078431372549" d="M 458.5 494 L 456.5 497 L 458.5 494 Z " /><path fill="rgb(0,0,0)" stroke="rgb(0,0,0)" stroke-width="1" opacity="0.796078431372549" d="M 359.5 498 L 360.5 500 L 359.5 498 Z " /><path fill="rgb(0,0,0)" stroke="rgb(0,0,0)" stroke-width="1" opacity="0.796078431372549" d="M 452.5 498 L 451.5 500 L 452.5 498 Z " /><path fill="rgb(0,0,0)" stroke="rgb(0,0,0)" stroke-width="1" opacity="0.796078431372549" d="M 389.5 510 L 393 510.5 L 389.5 511 L 389.5 510 Z " /><path fill="rgb(0,0,0)" stroke="rgb(0,0,0)" stroke-width="1" opacity="0.796078431372549" d="M 419.5 510 L 423 510.5 L 419.5 511 L 419.5 510 Z " /><path fill="rgb(0,0,0)" stroke="rgb(0,0,0)" stroke-width="1" opacity="0.796078431372549" d="M 396.5 511 L 404 511.5 L 396.5 512 L 396.5 511 Z " /><path fill="rgb(0,0,0)" stroke="rgb(0,0,0)" stroke-width="1" opacity="0.796078431372549" d="M 408.5 511 L 416 511.5 L 408.5 512 L 408.5 511 Z " /><path fill="rgb(0,0,0)" stroke="rgb(0,0,0)" stroke-width="1" opacity="1" d="M 404.5 0 L 424.5 2 L 440.5 7 Q 461.5 16 475 32.5 Q 485 44.5 491 60.5 L 495 77.5 L 496 91.5 L 495 92.5 L 494 108.5 L 489 124.5 Q 480 145.5 463.5 159 Q 451.5 169 435.5 175 L 418.5 179 L 404.5 180 L 403.5 179 L 387.5 178 L 369.5 172 Q 354.1 164.9 343 153.5 L 338.5 148 L 336.5 148 L 189 237.5 L 194 252.5 L 196 272.5 L 195 273.5 L 195 283.5 L 192 292.5 L 192 297 L 335 369 L 345.5 356 Q 357.6 344.6 374.5 338 L 387.5 334 L 407.5 332 L 408.5 333 L 424.5 334 L 440.5 339 Q 461.5 348 475 364.5 Q 485 376.5 491 392.5 L 495 409.5 L 496 423.5 L 495 424.5 L 494 440.5 L 489 456.5 Q 480 477.5 463.5 491 Q 451.5 501 435.5 507 L 418.5 511 L 404.5 512 L 403.5 511 L 387.5 510 L 371.5 505 Q 350.5 496 337 479.5 Q 327 467.5 321 451.5 L 317 434.5 L 316 420.5 L 317 419.5 L 317 409.5 L 321 395 L 178.5 323 L 164.5 339 L 140.5 354 L 124.5 359 L 104.5 361 L 103.5 360 L 87.5 359 L 71.5 354 Q 50.5 345 37 328.5 Q 27 316.5 21 300.5 L 17 283.5 L 16 269.5 L 17 268.5 L 18 252.5 L 23 236.5 Q 32 215.5 48.5 202 Q 60.5 192 76.5 186 L 93.5 182 L 107.5 181 L 108.5 182 L 124.5 183 L 142.5 189 Q 157.8 196.2 169 207.5 L 172.5 212 L 176.5 211 L 322 122.5 L 317 102.5 L 316 88.5 L 317 87.5 L 318 71.5 L 323 55.5 Q 332 34.5 348.5 21 Q 360.5 11 376.5 5 L 387.5 2 L 403.5 1 L 404.5 0 Z " /></svg>