<svg width="1536" height="1024" version="1.1" xmlns="http://www.w3.org/2000/svg" desc="Created with imagetracer.js version 1.2.6" ><path fill="rgb(126,115,124)" stroke="rgb(126,115,124)" stroke-width="1" opacity="0.9568627450980393" d="M 935.5 284 L 936 286 L 938 285.5 L 937.5 284 L 945 285 L 946 291.5 L 945 296 Q 942 294.8 943 298.5 L 942 300.5 L 943 303 Q 940 301.8 941 305.5 L 939 310.5 Q 941.5 312 938 313.5 L 935 322.5 L 935.5 324 Q 933.3 323.3 934 325.5 L 933 328.5 L 933.5 330 Q 930.9 329.2 932 332.5 L 930 335.5 L 930.5 337 Q 927.9 336.2 929 339.5 L 928 342.5 L 924 350.5 L 924 352.5 L 922 355.5 L 922.5 357 L 921 357.5 L 921.5 359 L 920 359.5 L 920.5 361 L 919 361.5 L 919.5 363 Q 917.3 362.3 918 364.5 L 916 367.5 L 916.5 369 Q 914.3 368.3 915 370.5 L 911 377.5 L 911.5 379 Q 909.3 378.3 910 380.5 L 903 391.5 L 903.5 393 L 902 392.5 L 899.5 396 L 895.5 397 L 893.5 396 L 888.5 398 Q 887.2 395.8 882.5 397 Q 881 400.5 879.5 398 L 874.5 398 L 874 400 L 872.5 400 L 869.5 399 L 863.5 401 L 861.5 400 L 856.5 403 Q 855.2 400.7 850.5 402 L 847.5 404 L 845.5 403 L 840 404 L 840 406 L 833.5 406 L 833 407.5 L 834.5 409 L 848 409 Q 846.7 405.7 851.5 407 L 851.5 408 L 849 408.5 L 855.5 409 L 857.5 409 L 865.5 410 L 869.5 409 L 873.5 411 L 882.5 412 L 884 411.5 Q 883.2 414.1 886.5 413 L 891 413.5 L 886 417.5 L 885 419.5 Q 887.5 421 884 422.5 L 883.5 424 Q 881.8 421.2 880 425.5 L 880 428.5 L 876.5 433 L 875.5 432 L 871 436.5 Q 873.5 438 870 439.5 L 861.5 449 L 860.5 448 L 856 452.5 L 857 453.5 L 850.5 460 L 816.5 486 L 794.5 496 L 793 495.5 Q 793.8 498.1 790.5 497 L 788.5 498 L 787 497.5 Q 787.8 499.8 785.5 499 L 783.5 498 L 783.5 500 L 778.5 501 L 776.5 500 Q 773.2 503.8 765 502 Q 766.1 504.7 763.5 504 L 760.5 503 L 752.5 506 L 749.5 505 L 744 506 L 743.5 508 Q 742.3 505.8 737.5 507 L 737.5 508 L 742.5 509 L 782.5 509 L 783.5 510 L 785.5 509 L 785.5 510 L 776.5 514 L 774.5 513 L 774.5 515 L 772.5 514 L 768 516.5 L 768.5 518 L 764.5 519 L 763 518.5 Q 763.8 520.8 761.5 520 L 757 520.5 L 756.5 522 L 755 521.5 Q 755.8 524.1 752.5 523 L 735.5 529 L 734 528.5 Q 734.9 531.5 730.5 530 L 705.5 537 Q 704 534.5 702.5 538 L 699.5 539 L 697.5 539 Q 691.2 538.2 688.5 541 L 686.5 541 L 683.5 541 L 677.5 546 Q 675.8 543.3 674 547.5 L 671.5 551 L 666.5 555 Q 665.3 552.8 664 555.5 L 662.5 558 L 655 562.5 L 653.5 565 L 650.5 567 L 644 572.5 L 644.5 571 L 642 572.5 Q 644.8 574.3 640.5 576 L 639 575.5 L 636.5 579 L 634.5 579 L 633 579.5 L 634 580.5 L 630.5 584 L 622 590.5 L 622.5 592 L 620.5 591 Q 619 594.5 617.5 592 L 616 592.5 Q 618.3 593.8 615.5 595 L 613.5 594 Q 615.2 596 611.5 598 L 601.5 601 L 598 599.5 Q 600.3 598.2 599 593.5 L 615.5 563 L 617 562.5 L 617 560.5 L 633 532.5 L 632.5 531 Q 633.8 533.3 635 530.5 L 636.5 528 L 638 527.5 L 637.5 526 L 639 526.5 L 638 524.5 L 641.5 520 L 643 519.5 L 643 517.5 L 660 491.5 L 661.5 485 L 662.5 487 L 663 484.5 L 662 480.5 L 663 477 L 665 476.5 L 664 473.5 L 668.5 461 L 670 461.5 L 669 458.5 L 671.5 453 L 673 453.5 L 675 449.5 L 674 447.5 L 676.5 444 L 678 444.5 L 677 442.5 L 679 442.5 L 680 439.5 L 679.5 438 L 681 438.5 L 680 436.5 L 682 436.5 L 684 433.5 L 683 431.5 L 686 430.5 L 690 424.5 L 689.5 423 L 691 423.5 L 690 421.5 L 693 420.5 Q 690.8 419.3 693.5 418 L 695 418.5 L 697 415.5 L 696 414.5 L 699.5 411 L 702 409.5 L 701.5 408 Q 703.3 410.8 705 406.5 L 704.5 405 L 706 405.5 L 709 401.5 L 708.5 400 L 709.5 401 L 720 390.5 L 721.5 388 L 724 387.5 L 723.5 386 L 724.5 387 L 728 383.5 Q 727.2 380.9 730.5 382 L 730.5 380 L 732.5 380 L 734 379.5 L 733 377.5 L 734 377.5 Q 733.2 380.5 737 379 L 737 382.5 L 739 386.5 L 738 388.5 L 739.5 393 L 741 392.5 L 740 395.5 L 741 399.5 L 740 403.5 L 741.5 411 L 747 402.5 L 746.5 401 Q 748.8 401.8 748 399.5 L 747.5 398 Q 749.8 398.8 749 396.5 L 751 392.5 L 750.5 391 Q 753.5 391.9 752 387.5 L 754 383.5 L 755 378.5 L 754 376.5 L 756 376.5 L 757 367.5 L 756.5 366 Q 759.1 366.8 758 363.5 L 761.5 360 Q 763 362.5 764.5 359 L 767 357.5 L 768.5 355 L 770.5 354 Q 771.8 356.3 773 353.5 L 773.5 352 L 775 352.5 L 776.5 350 L 778.5 351 L 780.5 348 L 782.5 348 L 787 345.5 L 787.5 344 L 789 344.5 L 789.5 343 L 790.5 344 L 793.5 341 L 799 340 L 800.5 337 L 802.5 337 L 804 336.5 L 803.5 335 L 807.5 335 L 811.5 332 L 813 332.5 L 813.5 331 L 815 331.5 L 815.5 330 L 817 330.5 L 817.5 329 L 819 329.5 L 820.5 327 L 824.5 328 L 824.5 326 L 826.5 327 L 827.5 324 L 828.5 326 L 829.5 324 L 831 324.5 L 832.5 322 L 834.5 322 L 836.5 321 L 838 321.5 Q 837.3 319.3 839.5 320 L 841.5 320 L 849.5 316 L 851.5 316 Q 854.8 317.1 854 314.5 L 856 314.5 Q 855.2 311.9 858.5 313 L 861 312.5 L 861.5 311 Q 863 313.5 864.5 310 L 869.5 308 Q 871 310.5 872.5 307 L 874.5 306 L 875.5 307 Q 877.2 303.9 879 305.5 L 879.5 304 L 880.5 305 L 884.5 303 L 890.5 300 L 892.5 300 L 907.5 294 L 909.5 294 L 912 294 Q 910.9 291.3 913.5 292 L 915.5 292 Q 918.8 293.1 918 290.5 L 920.5 290 L 926 288.5 L 925.5 287 L 928.5 288 Q 930.8 288.8 930 286.5 L 931.5 287 L 934 286.5 L 933.5 285 L 935.5 284 Z M 827 370 L 804 380 Q 801 379 802 382 Q 800 380 799 383 Q 796 382 797 385 L 796 384 L 795 386 L 791 387 L 768 402 L 766 405 Q 765 407 764 405 L 762 408 L 761 407 L 760 409 L 754 413 Q 755 416 751 414 L 751 416 L 748 417 L 741 423 Q 742 425 739 424 L 739 426 Q 733 427 730 432 L 725 438 Q 724 440 721 440 Q 718 441 720 443 Q 719 445 718 443 Q 713 445 716 447 Q 715 449 714 447 L 703 458 L 704 459 Q 703 461 702 459 Q 699 460 701 462 L 696 466 Q 697 468 695 467 L 695 469 L 694 468 Q 691 469 693 471 Q 692 473 691 471 L 689 474 L 685 478 L 686 479 L 684 480 L 679 485 L 680 486 Q 681 488 679 487 L 677 490 L 675 491 L 672 496 L 670 497 L 670 499 L 669 498 L 668 500 Q 664 501 667 503 L 666 503 Q 663 504 665 506 L 663 507 L 663 509 L 661 510 L 661 512 L 659 515 L 658 514 L 651 527 L 648 529 L 648 531 L 645 533 L 646 535 L 643 537 L 643 539 L 630 561 Q 631 564 628 563 L 630 567 L 632 566 L 636 561 Q 635 558 638 559 L 639 556 L 643 555 Q 645 554 643 553 L 646 552 L 645 550 L 647 550 L 650 547 L 649 546 L 651 546 L 654 541 L 657 538 L 656 537 L 661 533 L 663 530 L 667 526 Q 664 524 669 522 Q 671 523 670 520 L 673 519 L 671 518 L 675 516 L 674 515 L 676 512 L 678 512 L 681 509 L 680 508 L 683 506 L 682 505 L 684 505 L 686 502 L 691 495 Q 690 492 694 493 L 697 490 L 696 489 Q 697 486 699 488 L 699 487 L 707 479 L 706 478 L 708 478 L 714 470 L 719 466 L 727 458 L 727 456 L 735 450 Q 734 447 737 448 L 742 442 Q 741 439 744 440 L 747 437 L 748 438 L 756 429 Q 757 426 759 428 L 780 410 L 784 405 L 786 405 L 806 389 Q 810 387 807 386 L 809 386 L 819 379 Q 821 378 819 377 L 821 377 Q 823 378 822 374 L 825 374 L 829 371 L 827 370 Z " /><path fill="rgb(126,115,124)" stroke="rgb(126,115,124)" stroke-width="1" opacity="0.9568627450980393" d="M 735.5 376 L 736.5 378 L 735.5 376 Z " /><path fill="rgb(126,115,124)" stroke="rgb(126,115,124)" stroke-width="1" opacity="0.9568627450980393" d="M 631.5 480 Q 637.7 479.3 639 483.5 L 639 490.5 L 633 502.5 Q 609.3 535.3 591 573.5 Q 586.2 582.7 586 596.5 Q 588.2 604.9 594.5 609 Q 598.6 612.9 607.5 612 L 615.5 609 L 621.5 609 Q 632 619.5 645.5 627 L 671.5 640 L 677 644.5 L 678 648.5 L 661 678.5 L 659 687 L 664.5 687 L 686.5 678 L 707.5 669 L 727.5 658 Q 734 654.5 745.5 656 L 748.5 657 L 750.5 657 L 781.5 656 L 791.5 654 L 793.5 655 L 814.5 651 L 849.5 639 Q 870 630 884 614.5 L 892 603.5 L 897 591.5 L 899 581.5 L 899 567.5 L 893.5 550 L 892 550.5 L 893 547.5 Q 886.1 535.4 875.5 527 L 873.5 528 L 872.5 525 Q 860 515.5 839.5 514 L 838.5 515 L 828.5 515 Q 820.2 518.7 808.5 519 Q 805.5 517.5 808.5 516 Q 821.9 510.9 832 502.5 L 831.5 501 L 833.5 502 L 857.5 481 L 861.5 480 Q 891.9 492.6 912 515.5 L 922 530.5 L 929 547.5 L 931 556.5 L 931 579.5 L 929 589.5 L 921 609.5 Q 910.3 627.8 894.5 641 L 891 643.5 L 891.5 645 L 889.5 645 Q 863.6 665.1 827.5 675 L 790.5 682 L 745.5 684 L 743.5 684 L 739.5 683 L 720.5 683 Q 719 685.5 717.5 682 L 712.5 683 L 680.5 699 L 657 708.5 L 657.5 710 L 654.5 709 L 630.5 718 L 624.5 718 L 620 716 L 618 710.5 L 618 706.5 L 629 680.5 L 628 678.5 L 629 678.5 L 629.5 680 L 635 669.5 L 636 663.5 Q 632.9 661.8 634.5 660 L 614.5 649 L 593 633 Q 594.1 630.3 591.5 631 Q 588.8 625.6 586 627.5 L 587 626.5 L 584 623.5 L 573.5 609 L 572 609.5 L 573 607.5 L 566.5 593 L 565 593.5 L 566 590.5 L 564 585.5 L 563 570.5 L 562 569.5 L 563 567.5 L 563 565.5 L 563 557.5 L 567 541.5 Q 575.5 520.5 591 506.5 L 590.5 505 L 591.5 506 L 596.5 501 Q 611.2 487.7 631.5 480 Z " /><path fill="rgb(126,115,124)" stroke="rgb(126,115,124)" stroke-width="1" opacity="0.9568627450980393" d="M 788.5 506 Q 791.5 507.5 788.5 509 L 787 508.5 L 789 507.5 L 788.5 506 Z " /><path fill="rgb(126,115,124)" stroke="rgb(126,115,124)" stroke-width="1" opacity="0.9568627450980393" d="M 782.5 507 L 785 507.5 L 782.5 508 L 782.5 507 Z " /><path fill="rgb(126,115,124)" stroke="rgb(126,115,124)" stroke-width="1" opacity="0.9568627450980393" d="M 714 564 L 718.5 564 L 725.5 569 Q 727.2 566.3 729 570.5 L 728 572.5 Q 731.2 574.8 730 581.5 L 730 583.5 L 724.5 591 L 722.5 592 L 721 591.5 Q 721.8 594.1 718.5 593 L 716.5 592 L 712 593 L 711.5 591 L 709.5 592 L 706 590 L 702 583.5 L 702 574.5 L 704 574.5 L 705 572.5 L 703 571.5 L 706.5 568 Q 708 570.5 709.5 567 L 712.5 565 L 714 565.5 L 714 564 Z " /><path fill="rgb(126,115,124)" stroke="rgb(126,115,124)" stroke-width="1" opacity="0.9568627450980393" d="M 764.5 564 L 766.5 565 L 768.5 564 L 772.5 565 L 777 568.5 L 775 569.5 L 778 570.5 L 777.5 572 L 780 573.5 L 779 581.5 L 780 583.5 L 777.5 587 L 776 587.5 Q 778.7 589.3 774.5 591 L 774.5 589 L 770 591.5 L 770.5 593 L 768.5 592 L 766.5 593 L 764.5 593 L 758 590.5 L 758.5 589 L 756.5 590 L 754 589.5 L 756 586.5 L 753 585.5 L 751 577.5 L 752 577.5 L 752.5 579 L 753 576.5 L 752 574 L 754 573.5 L 753 571.5 L 756 570.5 L 755 568.5 L 761.5 565 Q 763 567.5 764.5 564 Z " /><path fill="rgb(126,115,124)" stroke="rgb(126,115,124)" stroke-width="1" opacity="0.9568627450980393" d="M 811.5 564 L 818.5 564 L 826 568.5 L 825 570.5 L 828 571.5 L 829 576.5 L 828 580.5 L 829 584 L 827 584.5 L 827 586.5 L 823.5 591 L 820.5 592 L 819 591.5 Q 819.8 593.8 817.5 593 L 813.5 592 L 811 593 L 810.5 591 L 808.5 592 L 803 587.5 Q 800 584.5 800 578.5 L 801 573.5 L 805.5 567 L 807.5 568 L 807.5 566 L 809.5 567 L 809.5 565 L 811.5 564 Z M 803 582 L 802 585 L 803 585 L 803 582 Z " /><path fill="rgb(126,115,124)" stroke="rgb(126,115,124)" stroke-width="1" opacity="0.9568627450980393" d="M 780.5 576 L 781 579.5 L 780 579.5 L 780.5 576 Z " /><path fill="rgb(126,115,124)" stroke="rgb(126,115,124)" stroke-width="1" opacity="0.9568627450980393" d="M 661.5 684 L 662 686 L 660 685.5 L 661.5 684 Z " /><path fill="rgb(0,0,0)" stroke="rgb(0,0,0)" stroke-width="1" opacity="0" d="M 0 0 L 1536 0 L 1536 1024 L 0 1024 L 0 0 Z M 936 284 L 934 285 L 934 287 L 931 286 L 930 288 L 928 287 Q 926 291 921 290 L 918 291 Q 919 293 916 292 L 914 292 Q 911 291 912 294 L 910 294 L 908 294 L 893 300 L 891 300 L 885 303 L 881 305 L 880 304 L 879 306 Q 877 304 876 307 L 875 306 L 873 307 Q 871 310 870 308 L 865 310 Q 863 313 862 311 L 861 313 L 859 313 Q 855 312 856 315 L 854 315 Q 855 317 852 316 L 850 316 L 842 320 L 840 320 Q 837 319 838 322 L 837 321 L 835 322 L 833 322 L 831 325 L 830 324 L 829 326 L 828 324 Q 825 325 827 327 L 825 328 L 821 327 L 821 329 L 820 328 L 819 330 L 818 329 L 817 331 L 816 330 L 815 332 L 814 331 L 813 333 L 812 332 L 808 335 L 804 335 L 804 337 L 803 337 L 801 337 L 799 340 L 794 341 L 791 344 L 790 343 L 789 345 L 788 344 L 787 346 L 783 348 L 781 348 L 779 351 L 777 350 L 777 352 L 776 351 L 775 353 L 774 352 L 773 354 Q 772 356 771 354 L 769 355 L 769 357 L 768 356 L 767 358 L 765 359 Q 763 362 762 360 L 758 364 Q 759 367 757 366 L 757 368 L 756 377 L 754 377 L 755 379 L 754 384 L 752 388 Q 753 392 751 391 L 751 393 L 749 397 Q 750 399 748 398 L 748 400 Q 749 402 747 401 L 747 403 L 742 411 L 740 404 L 741 400 L 738 389 L 739 387 L 737 379 Q 732 378 731 382 Q 727 381 728 384 L 724 388 L 722 388 L 706 406 L 700 411 Q 697 412 699 414 Q 686 426 678 445 L 675 446 L 676 448 L 674 448 L 675 450 L 673 454 L 671 454 L 672 457 L 670 457 L 671 459 L 670 462 L 668 462 L 669 465 L 667 465 L 668 468 L 666 468 L 667 471 L 665 471 L 666 474 L 666 475 L 665 474 L 664 474 L 665 477 L 663 477 L 662 481 L 663 485 L 663 487 L 662 485 L 660 490 L 661 493 L 658 494 L 659 496 L 657 496 L 658 498 L 655 499 L 656 501 Q 655 503 654 501 L 653 503 L 653 505 L 652 504 L 650 507 L 652 507 L 649 508 L 650 510 L 647 511 L 648 513 L 645 514 L 646 516 L 643 517 L 644 519 L 642 520 L 642 522 L 640 522 L 641 524 L 639 527 L 637 528 L 637 530 L 635 530 L 636 532 L 633 533 L 634 535 L 633 534 L 632 536 L 632 538 L 631 537 L 630 539 L 630 541 L 628 541 L 629 543 L 627 543 L 628 545 L 625 546 L 626 548 L 625 547 L 622 551 L 623 553 L 621 553 L 622 555 L 619 556 L 620 558 L 619 557 L 617 560 L 618 562 L 616 563 L 616 565 L 614 565 L 615 567 L 613 567 L 614 569 L 612 569 L 613 571 L 612 570 L 607 578 L 608 580 L 606 580 L 607 582 L 606 581 L 604 584 L 605 586 L 603 586 L 604 588 L 602 588 L 603 590 L 601 590 L 602 592 L 601 591 L 598 600 L 602 601 L 610 599 L 609 598 L 621 589 L 620 591 L 622 591 Q 626 589 623 588 L 625 588 L 627 587 L 629 583 L 631 584 L 630 583 L 635 579 L 638 576 L 639 577 L 639 576 L 645 571 L 651 567 L 654 565 L 655 563 L 663 558 L 664 556 Q 666 551 668 554 L 672 551 L 674 548 Q 676 543 678 546 L 684 541 L 687 541 L 689 541 Q 691 538 698 539 L 700 539 L 703 538 Q 704 534 706 537 L 731 530 Q 735 531 734 529 L 736 529 L 753 523 Q 756 524 755 522 L 757 522 L 757 521 Q 759 522 761 519 L 763 520 L 764 518 L 766 519 L 766 517 L 769 518 L 768 517 L 777 512 L 779 513 L 784 511 L 783 509 L 743 509 L 738 508 L 738 507 Q 742 506 744 508 L 744 506 L 750 505 L 753 506 L 761 503 L 764 504 Q 766 505 765 502 Q 773 504 777 500 L 781 501 L 781 499 L 784 500 L 784 498 L 787 499 L 788 497 L 790 498 L 790 496 L 793 497 L 794 495 L 796 496 L 795 495 L 797 495 L 801 494 L 801 492 L 803 493 L 803 491 L 805 492 L 805 490 L 807 491 L 807 489 L 809 490 L 808 489 L 810 489 L 817 486 L 818 483 L 820 484 L 819 483 Q 820 480 822 482 L 826 480 L 827 477 L 829 478 Q 831 477 829 476 L 831 476 L 833 475 Q 835 474 833 473 Q 834 470 836 472 L 838 471 L 841 466 L 843 467 L 847 463 L 846 462 L 848 462 L 851 460 Q 853 459 851 458 L 853 458 Q 857 456 854 455 L 856 455 Q 858 454 856 453 L 861 448 L 862 449 Q 864 448 862 447 L 868 441 Q 869 443 870 441 L 869 439 L 876 432 L 877 433 L 877 432 L 877 430 Q 878 427 880 429 L 880 426 Q 882 421 884 424 L 884 423 L 884 421 L 886 418 L 890 415 L 887 413 Q 883 414 884 412 L 883 412 L 874 411 L 870 409 L 866 410 L 858 409 L 856 409 L 849 409 L 852 408 L 852 407 Q 847 406 848 409 L 835 409 L 833 408 L 834 406 L 840 406 L 840 404 L 846 403 L 848 404 L 851 402 Q 855 401 857 403 L 862 400 L 864 401 L 870 399 L 873 400 L 874 400 L 875 398 L 880 398 Q 881 401 883 397 Q 887 396 889 398 L 894 396 L 896 397 L 900 396 L 910 381 Q 909 378 912 379 L 911 378 L 915 371 Q 914 368 917 369 L 916 368 L 918 365 Q 917 362 920 363 L 919 362 L 921 361 L 920 360 L 922 359 L 921 358 L 923 357 L 922 356 L 924 353 L 924 351 L 928 343 L 929 340 Q 928 336 931 337 L 930 336 L 932 333 Q 931 329 934 330 L 933 329 L 934 326 Q 933 323 936 324 L 935 323 L 938 314 Q 941 312 939 311 L 941 306 Q 940 302 943 303 L 942 301 L 943 299 Q 942 295 945 296 L 946 292 L 945 285 L 938 284 L 938 286 L 936 286 L 936 284 Z M 632 480 Q 611 488 597 501 Q 583 512 574 528 L 566 545 L 563 558 L 563 566 L 563 568 L 562 570 L 563 571 L 564 586 L 569 601 Q 577 619 592 631 Q 594 630 593 633 L 612 647 L 637 663 L 635 670 Q 625 686 618 707 L 618 711 L 620 716 L 625 718 L 631 718 L 657 709 L 681 699 L 713 683 L 718 682 Q 719 685 721 683 L 740 683 L 744 684 L 746 684 L 791 682 L 792 681 L 799 681 L 811 678 L 816 678 L 835 673 Q 869 662 895 641 Q 910 628 921 610 L 929 590 L 931 580 L 931 557 L 929 548 L 922 531 L 912 516 Q 892 493 862 480 L 858 481 L 837 500 L 811 516 L 809 516 Q 806 518 809 519 Q 820 519 829 515 L 839 515 L 840 514 Q 862 516 876 527 Q 886 535 893 548 L 899 568 L 899 582 L 897 592 L 892 604 L 884 615 Q 870 630 850 639 L 815 651 L 794 655 L 792 654 L 782 656 L 751 657 L 749 657 L 746 656 Q 734 655 728 658 L 708 669 L 687 678 L 665 687 L 659 687 L 661 679 L 678 649 L 677 645 L 672 640 L 646 627 Q 632 619 622 609 L 616 609 L 608 612 Q 599 613 595 609 Q 588 605 586 597 Q 586 583 591 574 Q 609 535 633 503 L 639 491 L 639 484 Q 638 479 632 480 Z M 783 507 L 783 508 L 785 508 L 783 507 Z M 714 564 L 714 566 L 713 565 L 710 567 L 704 575 L 702 575 Q 701 582 703 586 Q 704 588 706 586 L 709 590 Q 707 591 710 592 L 712 591 L 712 593 L 717 592 L 721 593 L 723 590 L 725 591 L 724 590 Q 727 585 729 587 L 728 585 L 730 585 L 730 584 L 730 582 Q 731 575 728 573 L 729 571 L 728 571 L 719 564 L 714 564 Z M 765 564 Q 763 567 762 565 L 759 566 L 759 568 L 758 567 L 755 569 L 756 571 L 753 572 L 754 574 L 752 574 L 753 577 L 753 579 L 752 578 L 751 578 L 753 586 L 755 585 L 756 588 L 759 589 L 760 592 L 763 591 L 762 593 L 765 593 L 767 593 L 769 592 L 771 593 L 770 592 L 778 587 L 777 586 L 779 586 L 778 584 L 780 584 L 778 575 L 779 573 L 778 572 L 772 567 L 773 566 L 769 564 L 767 565 L 765 564 Z M 812 564 L 813 565 L 813 566 L 810 565 L 810 567 L 808 568 L 806 567 L 805 569 L 805 571 L 802 572 L 803 574 L 801 574 L 802 579 L 802 580 L 801 579 L 800 579 L 802 585 L 803 582 L 804 586 L 803 588 L 805 587 Q 808 589 807 591 L 810 590 L 811 593 L 814 592 L 819 593 L 820 591 L 822 592 L 822 590 L 824 591 Q 826 590 824 589 L 827 588 L 826 586 L 829 584 L 828 581 L 829 577 L 829 573 L 828 575 L 827 575 L 828 572 L 827 572 L 825 569 L 823 569 L 825 568 L 823 566 L 821 567 L 821 565 L 819 566 L 819 565 L 812 564 Z M 705 570 L 703 572 L 705 572 L 705 570 Z M 781 576 L 780 580 L 781 580 L 781 576 Z M 707 588 Q 705 591 708 590 L 707 588 Z M 662 684 L 660 686 L 662 686 L 662 684 Z " /><path fill="rgb(0,0,0)" stroke="rgb(0,0,0)" stroke-width="1" opacity="0" d="M 829.5 369 L 827.5 372 L 822 374 Q 823.5 377.7 820.5 377 L 785.5 405 L 784 404.5 L 779.5 410 Q 767 418 757.5 429 L 756 428.5 L 747.5 438 Q 745.7 435.2 744 439.5 L 744.5 441 L 742 440 L 736.5 448 Q 734.3 447.3 735 449.5 L 727 456 L 727 457.5 L 718.5 466 L 714 469.5 L 693.5 493 Q 690.2 491.9 691 494.5 L 692 495.5 L 686 501.5 L 682.5 506 L 681 506.5 L 682 507.5 L 677.5 512 L 676 511.5 L 677 513.5 L 671 517.5 L 673 518.5 L 670 520 Q 671.1 522.7 668.5 522 Q 664.3 523.8 667 525.5 L 663 529.5 L 660.5 533 L 658 534.5 L 659 535.5 L 654 540.5 L 642.5 555 L 639 556 L 640 558.5 L 635.5 563 Q 633.8 560.3 632 564.5 Q 632.8 566.8 630.5 566 Q 629.3 568.3 628 565.5 L 628 563 Q 631 564.3 630 560.5 L 630.5 558 L 632 558.5 L 637 548.5 L 636.5 547 L 638 547.5 L 639 544.5 L 638.5 543 Q 639.8 545.3 641 542.5 L 640 540.5 L 642 540.5 L 643 538.5 L 642.5 537 L 646 534.5 L 645 532.5 L 648 530.5 L 647.5 529 L 650 527.5 L 649.5 526 L 651 526.5 L 653 522.5 L 652.5 521 Q 653.8 523.3 655 520.5 L 654 518.5 L 656 518.5 L 657.5 514 L 659 514.5 L 658 512.5 L 662 509.5 Q 659.8 508.3 662.5 507 L 664 506.5 Q 661.3 504.8 665.5 503 L 667 502.5 Q 664.5 501 668 499.5 L 669.5 497 L 672 495.5 L 674.5 491 L 677 489.5 L 678.5 487 Q 680.8 487.8 680 485.5 L 679 484.5 L 683.5 480 L 685 479.5 L 684 478.5 L 689 473.5 L 694.5 467 Q 696.8 467.8 696 465.5 L 701 461.5 L 700 460.5 L 720.5 440 Q 724.5 440.5 725 437.5 L 729.5 432 Q 733 427 739 426 L 739 424 Q 741.7 425.1 741 422.5 L 747.5 417 L 751 416 L 751 414 Q 754.8 415.5 754 412.5 L 760 408.5 L 760.5 407 L 762 407.5 L 764.5 404 L 766 404.5 L 767.5 402 L 790.5 387 L 795 386 L 795.5 384 L 797 384.5 Q 796.3 382.3 798.5 383 Q 800.3 379.9 802 381.5 Q 801.3 379.3 803.5 380 L 810.5 376 L 829.5 369 Z M 636 559 L 636 561 L 638 560 L 636 559 Z " /></svg>